<?xml version="1.0" encoding="utf-8" standalone="no"?>
<!DOCTYPE svg PUBLIC "-//W3C//DTD SVG 1.1//EN"
  "http://www.w3.org/Graphics/SVG/1.1/DTD/svg11.dtd">
<svg xmlns:xlink="http://www.w3.org/1999/xlink" width="856.374063pt" height="422.889687pt" viewBox="0 0 856.374063 422.889687" xmlns="http://www.w3.org/2000/svg" version="1.1">
 <metadata>
  <rdf:RDF xmlns:dc="http://purl.org/dc/elements/1.1/" xmlns:cc="http://creativecommons.org/ns#" xmlns:rdf="http://www.w3.org/1999/02/22-rdf-syntax-ns#">
   <cc:Work>
    <dc:type rdf:resource="http://purl.org/dc/dcmitype/StillImage"/>
    <dc:date>2025-12-13T14:12:45.364042</dc:date>
    <dc:format>image/svg+xml</dc:format>
    <dc:creator>
     <cc:Agent>
      <dc:title>Matplotlib v3.10.0, https://matplotlib.org/</dc:title>
     </cc:Agent>
    </dc:creator>
   </cc:Work>
  </rdf:RDF>
 </metadata>
 <defs>
  <style type="text/css">*{stroke-linejoin: round; stroke-linecap: butt}</style>
 </defs>
 <g id="figure_1">
  <g id="patch_1">
   <path d="M 0 422.889687 
L 856.374063 422.889687 
L 856.374063 0 
L 0 0 
z
" style="fill: #ffffff"/>
  </g>
  <g id="axes_1">
   <g id="patch_2">
    <path d="M 55.26375 383.397812 
L 741.31375 383.397812 
L 741.31375 23.837812 
L 55.26375 23.837812 
z
" style="fill: #ffffff"/>
   </g>
   <g id="matplotlib.axis_1">
    <g id="xtick_1">
     <g id="line2d_1">
      <path d="M 155.745821 383.397812 
L 155.745821 23.837812 
" clip-path="url(#p6f3aff7dff)" style="fill: none; stroke-dasharray: 2.96,1.28; stroke-dashoffset: 0; stroke: #b0b0b0; stroke-opacity: 0.3; stroke-width: 0.8"/>
     </g>
     <g id="line2d_2">
      <defs>
       <path id="m61699a8d9d" d="M 0 0 
L 0 3.5 
" style="stroke: #000000; stroke-width: 0.8"/>
      </defs>
      <g>
       <use xlink:href="#m61699a8d9d" x="155.745821" y="383.397812" style="stroke: #000000; stroke-width: 0.8"/>
      </g>
     </g>
     <g id="text_1">
      <!-- 0.2 -->
      <g transform="translate(147.794258 397.99625) scale(0.1 -0.1)">
       <defs>
        <path id="DejaVuSans-30" d="M 2034 4250 
Q 1547 4250 1301 3770 
Q 1056 3291 1056 2328 
Q 1056 1369 1301 889 
Q 1547 409 2034 409 
Q 2525 409 2770 889 
Q 3016 1369 3016 2328 
Q 3016 3291 2770 3770 
Q 2525 4250 2034 4250 
z
M 2034 4750 
Q 2819 4750 3233 4129 
Q 3647 3509 3647 2328 
Q 3647 1150 3233 529 
Q 2819 -91 2034 -91 
Q 1250 -91 836 529 
Q 422 1150 422 2328 
Q 422 3509 836 4129 
Q 1250 4750 2034 4750 
z
" transform="scale(0.015625)"/>
        <path id="DejaVuSans-2e" d="M 684 794 
L 1344 794 
L 1344 0 
L 684 0 
L 684 794 
z
" transform="scale(0.015625)"/>
        <path id="DejaVuSans-32" d="M 1228 531 
L 3431 531 
L 3431 0 
L 469 0 
L 469 531 
Q 828 903 1448 1529 
Q 2069 2156 2228 2338 
Q 2531 2678 2651 2914 
Q 2772 3150 2772 3378 
Q 2772 3750 2511 3984 
Q 2250 4219 1831 4219 
Q 1534 4219 1204 4116 
Q 875 4013 500 3803 
L 500 4441 
Q 881 4594 1212 4672 
Q 1544 4750 1819 4750 
Q 2544 4750 2975 4387 
Q 3406 4025 3406 3419 
Q 3406 3131 3298 2873 
Q 3191 2616 2906 2266 
Q 2828 2175 2409 1742 
Q 1991 1309 1228 531 
z
" transform="scale(0.015625)"/>
       </defs>
       <use xlink:href="#DejaVuSans-30"/>
       <use xlink:href="#DejaVuSans-2e" transform="translate(63.623047 0)"/>
       <use xlink:href="#DejaVuSans-32" transform="translate(95.410156 0)"/>
      </g>
     </g>
    </g>
    <g id="xtick_2">
     <g id="line2d_3">
      <path d="M 294.34178 383.397812 
L 294.34178 23.837812 
" clip-path="url(#p6f3aff7dff)" style="fill: none; stroke-dasharray: 2.96,1.28; stroke-dashoffset: 0; stroke: #b0b0b0; stroke-opacity: 0.3; stroke-width: 0.8"/>
     </g>
     <g id="line2d_4">
      <g>
       <use xlink:href="#m61699a8d9d" x="294.34178" y="383.397812" style="stroke: #000000; stroke-width: 0.8"/>
      </g>
     </g>
     <g id="text_2">
      <!-- 0.4 -->
      <g transform="translate(286.390218 397.99625) scale(0.1 -0.1)">
       <defs>
        <path id="DejaVuSans-34" d="M 2419 4116 
L 825 1625 
L 2419 1625 
L 2419 4116 
z
M 2253 4666 
L 3047 4666 
L 3047 1625 
L 3713 1625 
L 3713 1100 
L 3047 1100 
L 3047 0 
L 2419 0 
L 2419 1100 
L 313 1100 
L 313 1709 
L 2253 4666 
z
" transform="scale(0.015625)"/>
       </defs>
       <use xlink:href="#DejaVuSans-30"/>
       <use xlink:href="#DejaVuSans-2e" transform="translate(63.623047 0)"/>
       <use xlink:href="#DejaVuSans-34" transform="translate(95.410156 0)"/>
      </g>
     </g>
    </g>
    <g id="xtick_3">
     <g id="line2d_5">
      <path d="M 432.93774 383.397812 
L 432.93774 23.837812 
" clip-path="url(#p6f3aff7dff)" style="fill: none; stroke-dasharray: 2.96,1.28; stroke-dashoffset: 0; stroke: #b0b0b0; stroke-opacity: 0.3; stroke-width: 0.8"/>
     </g>
     <g id="line2d_6">
      <g>
       <use xlink:href="#m61699a8d9d" x="432.93774" y="383.397812" style="stroke: #000000; stroke-width: 0.8"/>
      </g>
     </g>
     <g id="text_3">
      <!-- 0.6 -->
      <g transform="translate(424.986177 397.99625) scale(0.1 -0.1)">
       <defs>
        <path id="DejaVuSans-36" d="M 2113 2584 
Q 1688 2584 1439 2293 
Q 1191 2003 1191 1497 
Q 1191 994 1439 701 
Q 1688 409 2113 409 
Q 2538 409 2786 701 
Q 3034 994 3034 1497 
Q 3034 2003 2786 2293 
Q 2538 2584 2113 2584 
z
M 3366 4563 
L 3366 3988 
Q 3128 4100 2886 4159 
Q 2644 4219 2406 4219 
Q 1781 4219 1451 3797 
Q 1122 3375 1075 2522 
Q 1259 2794 1537 2939 
Q 1816 3084 2150 3084 
Q 2853 3084 3261 2657 
Q 3669 2231 3669 1497 
Q 3669 778 3244 343 
Q 2819 -91 2113 -91 
Q 1303 -91 875 529 
Q 447 1150 447 2328 
Q 447 3434 972 4092 
Q 1497 4750 2381 4750 
Q 2619 4750 2861 4703 
Q 3103 4656 3366 4563 
z
" transform="scale(0.015625)"/>
       </defs>
       <use xlink:href="#DejaVuSans-30"/>
       <use xlink:href="#DejaVuSans-2e" transform="translate(63.623047 0)"/>
       <use xlink:href="#DejaVuSans-36" transform="translate(95.410156 0)"/>
      </g>
     </g>
    </g>
    <g id="xtick_4">
     <g id="line2d_7">
      <path d="M 571.533699 383.397812 
L 571.533699 23.837812 
" clip-path="url(#p6f3aff7dff)" style="fill: none; stroke-dasharray: 2.96,1.28; stroke-dashoffset: 0; stroke: #b0b0b0; stroke-opacity: 0.3; stroke-width: 0.8"/>
     </g>
     <g id="line2d_8">
      <g>
       <use xlink:href="#m61699a8d9d" x="571.533699" y="383.397812" style="stroke: #000000; stroke-width: 0.8"/>
      </g>
     </g>
     <g id="text_4">
      <!-- 0.8 -->
      <g transform="translate(563.582137 397.99625) scale(0.1 -0.1)">
       <defs>
        <path id="DejaVuSans-38" d="M 2034 2216 
Q 1584 2216 1326 1975 
Q 1069 1734 1069 1313 
Q 1069 891 1326 650 
Q 1584 409 2034 409 
Q 2484 409 2743 651 
Q 3003 894 3003 1313 
Q 3003 1734 2745 1975 
Q 2488 2216 2034 2216 
z
M 1403 2484 
Q 997 2584 770 2862 
Q 544 3141 544 3541 
Q 544 4100 942 4425 
Q 1341 4750 2034 4750 
Q 2731 4750 3128 4425 
Q 3525 4100 3525 3541 
Q 3525 3141 3298 2862 
Q 3072 2584 2669 2484 
Q 3125 2378 3379 2068 
Q 3634 1759 3634 1313 
Q 3634 634 3220 271 
Q 2806 -91 2034 -91 
Q 1263 -91 848 271 
Q 434 634 434 1313 
Q 434 1759 690 2068 
Q 947 2378 1403 2484 
z
M 1172 3481 
Q 1172 3119 1398 2916 
Q 1625 2713 2034 2713 
Q 2441 2713 2670 2916 
Q 2900 3119 2900 3481 
Q 2900 3844 2670 4047 
Q 2441 4250 2034 4250 
Q 1625 4250 1398 4047 
Q 1172 3844 1172 3481 
z
" transform="scale(0.015625)"/>
       </defs>
       <use xlink:href="#DejaVuSans-30"/>
       <use xlink:href="#DejaVuSans-2e" transform="translate(63.623047 0)"/>
       <use xlink:href="#DejaVuSans-38" transform="translate(95.410156 0)"/>
      </g>
     </g>
    </g>
    <g id="xtick_5">
     <g id="line2d_9">
      <path d="M 710.129659 383.397812 
L 710.129659 23.837812 
" clip-path="url(#p6f3aff7dff)" style="fill: none; stroke-dasharray: 2.96,1.28; stroke-dashoffset: 0; stroke: #b0b0b0; stroke-opacity: 0.3; stroke-width: 0.8"/>
     </g>
     <g id="line2d_10">
      <g>
       <use xlink:href="#m61699a8d9d" x="710.129659" y="383.397812" style="stroke: #000000; stroke-width: 0.8"/>
      </g>
     </g>
     <g id="text_5">
      <!-- 1.0 -->
      <g transform="translate(702.178097 397.99625) scale(0.1 -0.1)">
       <defs>
        <path id="DejaVuSans-31" d="M 794 531 
L 1825 531 
L 1825 4091 
L 703 3866 
L 703 4441 
L 1819 4666 
L 2450 4666 
L 2450 531 
L 3481 531 
L 3481 0 
L 794 0 
L 794 531 
z
" transform="scale(0.015625)"/>
       </defs>
       <use xlink:href="#DejaVuSans-31"/>
       <use xlink:href="#DejaVuSans-2e" transform="translate(63.623047 0)"/>
       <use xlink:href="#DejaVuSans-30" transform="translate(95.410156 0)"/>
      </g>
     </g>
    </g>
    <g id="text_6">
     <!-- Peso do Custo -->
     <g transform="translate(355.964375 413.194062) scale(0.12 -0.12)">
      <defs>
       <path id="DejaVuSans-50" d="M 1259 4147 
L 1259 2394 
L 2053 2394 
Q 2494 2394 2734 2622 
Q 2975 2850 2975 3272 
Q 2975 3691 2734 3919 
Q 2494 4147 2053 4147 
L 1259 4147 
z
M 628 4666 
L 2053 4666 
Q 2838 4666 3239 4311 
Q 3641 3956 3641 3272 
Q 3641 2581 3239 2228 
Q 2838 1875 2053 1875 
L 1259 1875 
L 1259 0 
L 628 0 
L 628 4666 
z
" transform="scale(0.015625)"/>
       <path id="DejaVuSans-65" d="M 3597 1894 
L 3597 1613 
L 953 1613 
Q 991 1019 1311 708 
Q 1631 397 2203 397 
Q 2534 397 2845 478 
Q 3156 559 3463 722 
L 3463 178 
Q 3153 47 2828 -22 
Q 2503 -91 2169 -91 
Q 1331 -91 842 396 
Q 353 884 353 1716 
Q 353 2575 817 3079 
Q 1281 3584 2069 3584 
Q 2775 3584 3186 3129 
Q 3597 2675 3597 1894 
z
M 3022 2063 
Q 3016 2534 2758 2815 
Q 2500 3097 2075 3097 
Q 1594 3097 1305 2825 
Q 1016 2553 972 2059 
L 3022 2063 
z
" transform="scale(0.015625)"/>
       <path id="DejaVuSans-73" d="M 2834 3397 
L 2834 2853 
Q 2591 2978 2328 3040 
Q 2066 3103 1784 3103 
Q 1356 3103 1142 2972 
Q 928 2841 928 2578 
Q 928 2378 1081 2264 
Q 1234 2150 1697 2047 
L 1894 2003 
Q 2506 1872 2764 1633 
Q 3022 1394 3022 966 
Q 3022 478 2636 193 
Q 2250 -91 1575 -91 
Q 1294 -91 989 -36 
Q 684 19 347 128 
L 347 722 
Q 666 556 975 473 
Q 1284 391 1588 391 
Q 1994 391 2212 530 
Q 2431 669 2431 922 
Q 2431 1156 2273 1281 
Q 2116 1406 1581 1522 
L 1381 1569 
Q 847 1681 609 1914 
Q 372 2147 372 2553 
Q 372 3047 722 3315 
Q 1072 3584 1716 3584 
Q 2034 3584 2315 3537 
Q 2597 3491 2834 3397 
z
" transform="scale(0.015625)"/>
       <path id="DejaVuSans-6f" d="M 1959 3097 
Q 1497 3097 1228 2736 
Q 959 2375 959 1747 
Q 959 1119 1226 758 
Q 1494 397 1959 397 
Q 2419 397 2687 759 
Q 2956 1122 2956 1747 
Q 2956 2369 2687 2733 
Q 2419 3097 1959 3097 
z
M 1959 3584 
Q 2709 3584 3137 3096 
Q 3566 2609 3566 1747 
Q 3566 888 3137 398 
Q 2709 -91 1959 -91 
Q 1206 -91 779 398 
Q 353 888 353 1747 
Q 353 2609 779 3096 
Q 1206 3584 1959 3584 
z
" transform="scale(0.015625)"/>
       <path id="DejaVuSans-20" transform="scale(0.015625)"/>
       <path id="DejaVuSans-64" d="M 2906 2969 
L 2906 4863 
L 3481 4863 
L 3481 0 
L 2906 0 
L 2906 525 
Q 2725 213 2448 61 
Q 2172 -91 1784 -91 
Q 1150 -91 751 415 
Q 353 922 353 1747 
Q 353 2572 751 3078 
Q 1150 3584 1784 3584 
Q 2172 3584 2448 3432 
Q 2725 3281 2906 2969 
z
M 947 1747 
Q 947 1113 1208 752 
Q 1469 391 1925 391 
Q 2381 391 2643 752 
Q 2906 1113 2906 1747 
Q 2906 2381 2643 2742 
Q 2381 3103 1925 3103 
Q 1469 3103 1208 2742 
Q 947 2381 947 1747 
z
" transform="scale(0.015625)"/>
       <path id="DejaVuSans-43" d="M 4122 4306 
L 4122 3641 
Q 3803 3938 3442 4084 
Q 3081 4231 2675 4231 
Q 1875 4231 1450 3742 
Q 1025 3253 1025 2328 
Q 1025 1406 1450 917 
Q 1875 428 2675 428 
Q 3081 428 3442 575 
Q 3803 722 4122 1019 
L 4122 359 
Q 3791 134 3420 21 
Q 3050 -91 2638 -91 
Q 1578 -91 968 557 
Q 359 1206 359 2328 
Q 359 3453 968 4101 
Q 1578 4750 2638 4750 
Q 3056 4750 3426 4639 
Q 3797 4528 4122 4306 
z
" transform="scale(0.015625)"/>
       <path id="DejaVuSans-75" d="M 544 1381 
L 544 3500 
L 1119 3500 
L 1119 1403 
Q 1119 906 1312 657 
Q 1506 409 1894 409 
Q 2359 409 2629 706 
Q 2900 1003 2900 1516 
L 2900 3500 
L 3475 3500 
L 3475 0 
L 2900 0 
L 2900 538 
Q 2691 219 2414 64 
Q 2138 -91 1772 -91 
Q 1169 -91 856 284 
Q 544 659 544 1381 
z
M 1991 3584 
L 1991 3584 
z
" transform="scale(0.015625)"/>
       <path id="DejaVuSans-74" d="M 1172 4494 
L 1172 3500 
L 2356 3500 
L 2356 3053 
L 1172 3053 
L 1172 1153 
Q 1172 725 1289 603 
Q 1406 481 1766 481 
L 2356 481 
L 2356 0 
L 1766 0 
Q 1100 0 847 248 
Q 594 497 594 1153 
L 594 3053 
L 172 3053 
L 172 3500 
L 594 3500 
L 594 4494 
L 1172 4494 
z
" transform="scale(0.015625)"/>
      </defs>
      <use xlink:href="#DejaVuSans-50"/>
      <use xlink:href="#DejaVuSans-65" transform="translate(56.677734 0)"/>
      <use xlink:href="#DejaVuSans-73" transform="translate(118.201172 0)"/>
      <use xlink:href="#DejaVuSans-6f" transform="translate(170.300781 0)"/>
      <use xlink:href="#DejaVuSans-20" transform="translate(231.482422 0)"/>
      <use xlink:href="#DejaVuSans-64" transform="translate(263.269531 0)"/>
      <use xlink:href="#DejaVuSans-6f" transform="translate(326.746094 0)"/>
      <use xlink:href="#DejaVuSans-20" transform="translate(387.927734 0)"/>
      <use xlink:href="#DejaVuSans-43" transform="translate(419.714844 0)"/>
      <use xlink:href="#DejaVuSans-75" transform="translate(489.539062 0)"/>
      <use xlink:href="#DejaVuSans-73" transform="translate(552.917969 0)"/>
      <use xlink:href="#DejaVuSans-74" transform="translate(605.017578 0)"/>
      <use xlink:href="#DejaVuSans-6f" transform="translate(644.226562 0)"/>
     </g>
    </g>
   </g>
   <g id="matplotlib.axis_2">
    <g id="ytick_1">
     <g id="line2d_11">
      <path d="M 55.26375 340.93896 
L 741.31375 340.93896 
" clip-path="url(#p6f3aff7dff)" style="fill: none; stroke-dasharray: 2.96,1.28; stroke-dashoffset: 0; stroke: #b0b0b0; stroke-opacity: 0.3; stroke-width: 0.8"/>
     </g>
     <g id="line2d_12">
      <defs>
       <path id="mbc43b99ea2" d="M 0 0 
L -3.5 0 
" style="stroke: #000000; stroke-width: 0.8"/>
      </defs>
      <g>
       <use xlink:href="#mbc43b99ea2" x="55.26375" y="340.93896" style="stroke: #000000; stroke-width: 0.8"/>
      </g>
     </g>
     <g id="text_7">
      <!-- 1100 -->
      <g transform="translate(22.81375 344.738178) scale(0.1 -0.1)">
       <use xlink:href="#DejaVuSans-31"/>
       <use xlink:href="#DejaVuSans-31" transform="translate(63.623047 0)"/>
       <use xlink:href="#DejaVuSans-30" transform="translate(127.246094 0)"/>
       <use xlink:href="#DejaVuSans-30" transform="translate(190.869141 0)"/>
      </g>
     </g>
    </g>
    <g id="ytick_2">
     <g id="line2d_13">
      <path d="M 55.26375 294.628643 
L 741.31375 294.628643 
" clip-path="url(#p6f3aff7dff)" style="fill: none; stroke-dasharray: 2.96,1.28; stroke-dashoffset: 0; stroke: #b0b0b0; stroke-opacity: 0.3; stroke-width: 0.8"/>
     </g>
     <g id="line2d_14">
      <g>
       <use xlink:href="#mbc43b99ea2" x="55.26375" y="294.628643" style="stroke: #000000; stroke-width: 0.8"/>
      </g>
     </g>
     <g id="text_8">
      <!-- 1200 -->
      <g transform="translate(22.81375 298.427862) scale(0.1 -0.1)">
       <use xlink:href="#DejaVuSans-31"/>
       <use xlink:href="#DejaVuSans-32" transform="translate(63.623047 0)"/>
       <use xlink:href="#DejaVuSans-30" transform="translate(127.246094 0)"/>
       <use xlink:href="#DejaVuSans-30" transform="translate(190.869141 0)"/>
      </g>
     </g>
    </g>
    <g id="ytick_3">
     <g id="line2d_15">
      <path d="M 55.26375 248.318327 
L 741.31375 248.318327 
" clip-path="url(#p6f3aff7dff)" style="fill: none; stroke-dasharray: 2.96,1.28; stroke-dashoffset: 0; stroke: #b0b0b0; stroke-opacity: 0.3; stroke-width: 0.8"/>
     </g>
     <g id="line2d_16">
      <g>
       <use xlink:href="#mbc43b99ea2" x="55.26375" y="248.318327" style="stroke: #000000; stroke-width: 0.8"/>
      </g>
     </g>
     <g id="text_9">
      <!-- 1300 -->
      <g transform="translate(22.81375 252.117546) scale(0.1 -0.1)">
       <defs>
        <path id="DejaVuSans-33" d="M 2597 2516 
Q 3050 2419 3304 2112 
Q 3559 1806 3559 1356 
Q 3559 666 3084 287 
Q 2609 -91 1734 -91 
Q 1441 -91 1130 -33 
Q 819 25 488 141 
L 488 750 
Q 750 597 1062 519 
Q 1375 441 1716 441 
Q 2309 441 2620 675 
Q 2931 909 2931 1356 
Q 2931 1769 2642 2001 
Q 2353 2234 1838 2234 
L 1294 2234 
L 1294 2753 
L 1863 2753 
Q 2328 2753 2575 2939 
Q 2822 3125 2822 3475 
Q 2822 3834 2567 4026 
Q 2313 4219 1838 4219 
Q 1578 4219 1281 4162 
Q 984 4106 628 3988 
L 628 4550 
Q 988 4650 1302 4700 
Q 1616 4750 1894 4750 
Q 2613 4750 3031 4423 
Q 3450 4097 3450 3541 
Q 3450 3153 3228 2886 
Q 3006 2619 2597 2516 
z
" transform="scale(0.015625)"/>
       </defs>
       <use xlink:href="#DejaVuSans-31"/>
       <use xlink:href="#DejaVuSans-33" transform="translate(63.623047 0)"/>
       <use xlink:href="#DejaVuSans-30" transform="translate(127.246094 0)"/>
       <use xlink:href="#DejaVuSans-30" transform="translate(190.869141 0)"/>
      </g>
     </g>
    </g>
    <g id="ytick_4">
     <g id="line2d_17">
      <path d="M 55.26375 202.008011 
L 741.31375 202.008011 
" clip-path="url(#p6f3aff7dff)" style="fill: none; stroke-dasharray: 2.96,1.28; stroke-dashoffset: 0; stroke: #b0b0b0; stroke-opacity: 0.3; stroke-width: 0.8"/>
     </g>
     <g id="line2d_18">
      <g>
       <use xlink:href="#mbc43b99ea2" x="55.26375" y="202.008011" style="stroke: #000000; stroke-width: 0.8"/>
      </g>
     </g>
     <g id="text_10">
      <!-- 1400 -->
      <g transform="translate(22.81375 205.807229) scale(0.1 -0.1)">
       <use xlink:href="#DejaVuSans-31"/>
       <use xlink:href="#DejaVuSans-34" transform="translate(63.623047 0)"/>
       <use xlink:href="#DejaVuSans-30" transform="translate(127.246094 0)"/>
       <use xlink:href="#DejaVuSans-30" transform="translate(190.869141 0)"/>
      </g>
     </g>
    </g>
    <g id="ytick_5">
     <g id="line2d_19">
      <path d="M 55.26375 155.697694 
L 741.31375 155.697694 
" clip-path="url(#p6f3aff7dff)" style="fill: none; stroke-dasharray: 2.96,1.28; stroke-dashoffset: 0; stroke: #b0b0b0; stroke-opacity: 0.3; stroke-width: 0.8"/>
     </g>
     <g id="line2d_20">
      <g>
       <use xlink:href="#mbc43b99ea2" x="55.26375" y="155.697694" style="stroke: #000000; stroke-width: 0.8"/>
      </g>
     </g>
     <g id="text_11">
      <!-- 1500 -->
      <g transform="translate(22.81375 159.496913) scale(0.1 -0.1)">
       <defs>
        <path id="DejaVuSans-35" d="M 691 4666 
L 3169 4666 
L 3169 4134 
L 1269 4134 
L 1269 2991 
Q 1406 3038 1543 3061 
Q 1681 3084 1819 3084 
Q 2600 3084 3056 2656 
Q 3513 2228 3513 1497 
Q 3513 744 3044 326 
Q 2575 -91 1722 -91 
Q 1428 -91 1123 -41 
Q 819 9 494 109 
L 494 744 
Q 775 591 1075 516 
Q 1375 441 1709 441 
Q 2250 441 2565 725 
Q 2881 1009 2881 1497 
Q 2881 1984 2565 2268 
Q 2250 2553 1709 2553 
Q 1456 2553 1204 2497 
Q 953 2441 691 2322 
L 691 4666 
z
" transform="scale(0.015625)"/>
       </defs>
       <use xlink:href="#DejaVuSans-31"/>
       <use xlink:href="#DejaVuSans-35" transform="translate(63.623047 0)"/>
       <use xlink:href="#DejaVuSans-30" transform="translate(127.246094 0)"/>
       <use xlink:href="#DejaVuSans-30" transform="translate(190.869141 0)"/>
      </g>
     </g>
    </g>
    <g id="ytick_6">
     <g id="line2d_21">
      <path d="M 55.26375 109.387378 
L 741.31375 109.387378 
" clip-path="url(#p6f3aff7dff)" style="fill: none; stroke-dasharray: 2.96,1.28; stroke-dashoffset: 0; stroke: #b0b0b0; stroke-opacity: 0.3; stroke-width: 0.8"/>
     </g>
     <g id="line2d_22">
      <g>
       <use xlink:href="#mbc43b99ea2" x="55.26375" y="109.387378" style="stroke: #000000; stroke-width: 0.8"/>
      </g>
     </g>
     <g id="text_12">
      <!-- 1600 -->
      <g transform="translate(22.81375 113.186597) scale(0.1 -0.1)">
       <use xlink:href="#DejaVuSans-31"/>
       <use xlink:href="#DejaVuSans-36" transform="translate(63.623047 0)"/>
       <use xlink:href="#DejaVuSans-30" transform="translate(127.246094 0)"/>
       <use xlink:href="#DejaVuSans-30" transform="translate(190.869141 0)"/>
      </g>
     </g>
    </g>
    <g id="ytick_7">
     <g id="line2d_23">
      <path d="M 55.26375 63.077062 
L 741.31375 63.077062 
" clip-path="url(#p6f3aff7dff)" style="fill: none; stroke-dasharray: 2.96,1.28; stroke-dashoffset: 0; stroke: #b0b0b0; stroke-opacity: 0.3; stroke-width: 0.8"/>
     </g>
     <g id="line2d_24">
      <g>
       <use xlink:href="#mbc43b99ea2" x="55.26375" y="63.077062" style="stroke: #000000; stroke-width: 0.8"/>
      </g>
     </g>
     <g id="text_13">
      <!-- 1700 -->
      <g transform="translate(22.81375 66.87628) scale(0.1 -0.1)">
       <defs>
        <path id="DejaVuSans-37" d="M 525 4666 
L 3525 4666 
L 3525 4397 
L 1831 0 
L 1172 0 
L 2766 4134 
L 525 4134 
L 525 4666 
z
" transform="scale(0.015625)"/>
       </defs>
       <use xlink:href="#DejaVuSans-31"/>
       <use xlink:href="#DejaVuSans-37" transform="translate(63.623047 0)"/>
       <use xlink:href="#DejaVuSans-30" transform="translate(127.246094 0)"/>
       <use xlink:href="#DejaVuSans-30" transform="translate(190.869141 0)"/>
      </g>
     </g>
    </g>
    <g id="text_14">
     <!-- Custo Total -->
     <g transform="translate(16.318125 236.677812) rotate(-90) scale(0.12 -0.12)">
      <defs>
       <path id="DejaVuSans-54" d="M -19 4666 
L 3928 4666 
L 3928 4134 
L 2272 4134 
L 2272 0 
L 1638 0 
L 1638 4134 
L -19 4134 
L -19 4666 
z
" transform="scale(0.015625)"/>
       <path id="DejaVuSans-61" d="M 2194 1759 
Q 1497 1759 1228 1600 
Q 959 1441 959 1056 
Q 959 750 1161 570 
Q 1363 391 1709 391 
Q 2188 391 2477 730 
Q 2766 1069 2766 1631 
L 2766 1759 
L 2194 1759 
z
M 3341 1997 
L 3341 0 
L 2766 0 
L 2766 531 
Q 2569 213 2275 61 
Q 1981 -91 1556 -91 
Q 1019 -91 701 211 
Q 384 513 384 1019 
Q 384 1609 779 1909 
Q 1175 2209 1959 2209 
L 2766 2209 
L 2766 2266 
Q 2766 2663 2505 2880 
Q 2244 3097 1772 3097 
Q 1472 3097 1187 3025 
Q 903 2953 641 2809 
L 641 3341 
Q 956 3463 1253 3523 
Q 1550 3584 1831 3584 
Q 2591 3584 2966 3190 
Q 3341 2797 3341 1997 
z
" transform="scale(0.015625)"/>
       <path id="DejaVuSans-6c" d="M 603 4863 
L 1178 4863 
L 1178 0 
L 603 0 
L 603 4863 
z
" transform="scale(0.015625)"/>
      </defs>
      <use xlink:href="#DejaVuSans-43"/>
      <use xlink:href="#DejaVuSans-75" transform="translate(69.824219 0)"/>
      <use xlink:href="#DejaVuSans-73" transform="translate(133.203125 0)"/>
      <use xlink:href="#DejaVuSans-74" transform="translate(185.302734 0)"/>
      <use xlink:href="#DejaVuSans-6f" transform="translate(224.511719 0)"/>
      <use xlink:href="#DejaVuSans-20" transform="translate(285.693359 0)"/>
      <use xlink:href="#DejaVuSans-54" transform="translate(317.480469 0)"/>
      <use xlink:href="#DejaVuSans-6f" transform="translate(361.564453 0)"/>
      <use xlink:href="#DejaVuSans-74" transform="translate(422.746094 0)"/>
      <use xlink:href="#DejaVuSans-61" transform="translate(461.955078 0)"/>
      <use xlink:href="#DejaVuSans-6c" transform="translate(523.234375 0)"/>
     </g>
    </g>
   </g>
   <g id="line2d_25">
    <path d="M 86.447841 40.181449 
L 155.745821 40.181449 
L 225.043801 97.25694 
L 294.34178 127.447527 
L 363.63976 177.21506 
L 432.93774 224.912355 
L 502.23572 271.144827 
L 571.533699 291.846723 
L 640.831679 314.08104 
L 710.129659 332.466161 
" clip-path="url(#p6f3aff7dff)" style="fill: none; stroke: #ff8c00; stroke-opacity: 0.8; stroke-width: 2; stroke-linecap: square"/>
    <defs>
     <path id="m50231a496d" d="M -0 4 
L 4 -4 
L -4 -4 
z
" style="stroke: #ff8c00; stroke-opacity: 0.8; stroke-linejoin: miter"/>
    </defs>
    <g clip-path="url(#p6f3aff7dff)">
     <use xlink:href="#m50231a496d" x="86.447841" y="40.181449" style="fill: #ff8c00; fill-opacity: 0.8; stroke: #ff8c00; stroke-opacity: 0.8; stroke-linejoin: miter"/>
     <use xlink:href="#m50231a496d" x="155.745821" y="40.181449" style="fill: #ff8c00; fill-opacity: 0.8; stroke: #ff8c00; stroke-opacity: 0.8; stroke-linejoin: miter"/>
     <use xlink:href="#m50231a496d" x="225.043801" y="97.25694" style="fill: #ff8c00; fill-opacity: 0.8; stroke: #ff8c00; stroke-opacity: 0.8; stroke-linejoin: miter"/>
     <use xlink:href="#m50231a496d" x="294.34178" y="127.447527" style="fill: #ff8c00; fill-opacity: 0.8; stroke: #ff8c00; stroke-opacity: 0.8; stroke-linejoin: miter"/>
     <use xlink:href="#m50231a496d" x="363.63976" y="177.21506" style="fill: #ff8c00; fill-opacity: 0.8; stroke: #ff8c00; stroke-opacity: 0.8; stroke-linejoin: miter"/>
     <use xlink:href="#m50231a496d" x="432.93774" y="224.912355" style="fill: #ff8c00; fill-opacity: 0.8; stroke: #ff8c00; stroke-opacity: 0.8; stroke-linejoin: miter"/>
     <use xlink:href="#m50231a496d" x="502.23572" y="271.144827" style="fill: #ff8c00; fill-opacity: 0.8; stroke: #ff8c00; stroke-opacity: 0.8; stroke-linejoin: miter"/>
     <use xlink:href="#m50231a496d" x="571.533699" y="291.846723" style="fill: #ff8c00; fill-opacity: 0.8; stroke: #ff8c00; stroke-opacity: 0.8; stroke-linejoin: miter"/>
     <use xlink:href="#m50231a496d" x="640.831679" y="314.08104" style="fill: #ff8c00; fill-opacity: 0.8; stroke: #ff8c00; stroke-opacity: 0.8; stroke-linejoin: miter"/>
     <use xlink:href="#m50231a496d" x="710.129659" y="332.466161" style="fill: #ff8c00; fill-opacity: 0.8; stroke: #ff8c00; stroke-opacity: 0.8; stroke-linejoin: miter"/>
    </g>
   </g>
   <g id="line2d_26">
    <path d="M 86.447841 40.181449 
L 155.745821 40.181449 
L 225.043801 64.535202 
L 294.34178 115.095706 
L 363.63976 152.113717 
L 432.93774 207.8154 
L 502.23572 312.41672 
L 571.533699 357.127105 
L 640.831679 365.686287 
L 710.129659 367.054176 
" clip-path="url(#p6f3aff7dff)" style="fill: none; stroke: #00ffff; stroke-opacity: 0.8; stroke-width: 2; stroke-linecap: square"/>
    <defs>
     <path id="m0a63b7fd76" d="M 0 -4 
L -3.464102 -2 
L -3.464102 2 
L -0 4 
L 3.464102 2 
L 3.464102 -2 
z
" style="stroke: #00ffff; stroke-opacity: 0.8; stroke-linejoin: miter"/>
    </defs>
    <g clip-path="url(#p6f3aff7dff)">
     <use xlink:href="#m0a63b7fd76" x="86.447841" y="40.181449" style="fill: #00ffff; fill-opacity: 0.8; stroke: #00ffff; stroke-opacity: 0.8; stroke-linejoin: miter"/>
     <use xlink:href="#m0a63b7fd76" x="155.745821" y="40.181449" style="fill: #00ffff; fill-opacity: 0.8; stroke: #00ffff; stroke-opacity: 0.8; stroke-linejoin: miter"/>
     <use xlink:href="#m0a63b7fd76" x="225.043801" y="64.535202" style="fill: #00ffff; fill-opacity: 0.8; stroke: #00ffff; stroke-opacity: 0.8; stroke-linejoin: miter"/>
     <use xlink:href="#m0a63b7fd76" x="294.34178" y="115.095706" style="fill: #00ffff; fill-opacity: 0.8; stroke: #00ffff; stroke-opacity: 0.8; stroke-linejoin: miter"/>
     <use xlink:href="#m0a63b7fd76" x="363.63976" y="152.113717" style="fill: #00ffff; fill-opacity: 0.8; stroke: #00ffff; stroke-opacity: 0.8; stroke-linejoin: miter"/>
     <use xlink:href="#m0a63b7fd76" x="432.93774" y="207.8154" style="fill: #00ffff; fill-opacity: 0.8; stroke: #00ffff; stroke-opacity: 0.8; stroke-linejoin: miter"/>
     <use xlink:href="#m0a63b7fd76" x="502.23572" y="312.41672" style="fill: #00ffff; fill-opacity: 0.8; stroke: #00ffff; stroke-opacity: 0.8; stroke-linejoin: miter"/>
     <use xlink:href="#m0a63b7fd76" x="571.533699" y="357.127105" style="fill: #00ffff; fill-opacity: 0.8; stroke: #00ffff; stroke-opacity: 0.8; stroke-linejoin: miter"/>
     <use xlink:href="#m0a63b7fd76" x="640.831679" y="365.686287" style="fill: #00ffff; fill-opacity: 0.8; stroke: #00ffff; stroke-opacity: 0.8; stroke-linejoin: miter"/>
     <use xlink:href="#m0a63b7fd76" x="710.129659" y="367.054176" style="fill: #00ffff; fill-opacity: 0.8; stroke: #00ffff; stroke-opacity: 0.8; stroke-linejoin: miter"/>
    </g>
   </g>
   <g id="line2d_27">
    <path d="M 86.447841 40.181449 
L 155.745821 40.181449 
L 225.043801 58.386615 
L 294.34178 134.828155 
L 363.63976 148.363869 
L 432.93774 188.021457 
L 502.23572 267.671324 
L 571.533699 327.807085 
L 640.831679 350.41173 
L 710.129659 356.739404 
" clip-path="url(#p6f3aff7dff)" style="fill: none; stroke: #0000ff; stroke-opacity: 0.8; stroke-width: 2; stroke-linecap: square"/>
    <defs>
     <path id="mdb608976bf" d="M 0 -4 
L -4 4 
L 4 4 
z
" style="stroke: #0000ff; stroke-opacity: 0.8; stroke-linejoin: miter"/>
    </defs>
    <g clip-path="url(#p6f3aff7dff)">
     <use xlink:href="#mdb608976bf" x="86.447841" y="40.181449" style="fill: #0000ff; fill-opacity: 0.8; stroke: #0000ff; stroke-opacity: 0.8; stroke-linejoin: miter"/>
     <use xlink:href="#mdb608976bf" x="155.745821" y="40.181449" style="fill: #0000ff; fill-opacity: 0.8; stroke: #0000ff; stroke-opacity: 0.8; stroke-linejoin: miter"/>
     <use xlink:href="#mdb608976bf" x="225.043801" y="58.386615" style="fill: #0000ff; fill-opacity: 0.8; stroke: #0000ff; stroke-opacity: 0.8; stroke-linejoin: miter"/>
     <use xlink:href="#mdb608976bf" x="294.34178" y="134.828155" style="fill: #0000ff; fill-opacity: 0.8; stroke: #0000ff; stroke-opacity: 0.8; stroke-linejoin: miter"/>
     <use xlink:href="#mdb608976bf" x="363.63976" y="148.363869" style="fill: #0000ff; fill-opacity: 0.8; stroke: #0000ff; stroke-opacity: 0.8; stroke-linejoin: miter"/>
     <use xlink:href="#mdb608976bf" x="432.93774" y="188.021457" style="fill: #0000ff; fill-opacity: 0.8; stroke: #0000ff; stroke-opacity: 0.8; stroke-linejoin: miter"/>
     <use xlink:href="#mdb608976bf" x="502.23572" y="267.671324" style="fill: #0000ff; fill-opacity: 0.8; stroke: #0000ff; stroke-opacity: 0.8; stroke-linejoin: miter"/>
     <use xlink:href="#mdb608976bf" x="571.533699" y="327.807085" style="fill: #0000ff; fill-opacity: 0.8; stroke: #0000ff; stroke-opacity: 0.8; stroke-linejoin: miter"/>
     <use xlink:href="#mdb608976bf" x="640.831679" y="350.41173" style="fill: #0000ff; fill-opacity: 0.8; stroke: #0000ff; stroke-opacity: 0.8; stroke-linejoin: miter"/>
     <use xlink:href="#mdb608976bf" x="710.129659" y="356.739404" style="fill: #0000ff; fill-opacity: 0.8; stroke: #0000ff; stroke-opacity: 0.8; stroke-linejoin: miter"/>
    </g>
   </g>
   <g id="line2d_28">
    <path d="M 86.447841 51.088584 
L 155.745821 80.688667 
L 225.043801 138.990078 
L 294.34178 174.1729 
L 363.63976 252.863529 
L 432.93774 283.150163 
L 502.23572 307.734776 
L 571.533699 322.042606 
L 640.831679 327.311085 
L 710.129659 335.813923 
" clip-path="url(#p6f3aff7dff)" style="fill: none; stroke: #ff1493; stroke-opacity: 0.8; stroke-width: 2; stroke-linecap: square"/>
    <defs>
     <path id="mfcf884d7a8" d="M -1.530734 -3.695518 
L -3.695518 -1.530734 
L -3.695518 1.530734 
L -1.530734 3.695518 
L 1.530734 3.695518 
L 3.695518 1.530734 
L 3.695518 -1.530734 
L 1.530734 -3.695518 
z
" style="stroke: #ff1493; stroke-opacity: 0.8; stroke-linejoin: miter"/>
    </defs>
    <g clip-path="url(#p6f3aff7dff)">
     <use xlink:href="#mfcf884d7a8" x="86.447841" y="51.088584" style="fill: #ff1493; fill-opacity: 0.8; stroke: #ff1493; stroke-opacity: 0.8; stroke-linejoin: miter"/>
     <use xlink:href="#mfcf884d7a8" x="155.745821" y="80.688667" style="fill: #ff1493; fill-opacity: 0.8; stroke: #ff1493; stroke-opacity: 0.8; stroke-linejoin: miter"/>
     <use xlink:href="#mfcf884d7a8" x="225.043801" y="138.990078" style="fill: #ff1493; fill-opacity: 0.8; stroke: #ff1493; stroke-opacity: 0.8; stroke-linejoin: miter"/>
     <use xlink:href="#mfcf884d7a8" x="294.34178" y="174.1729" style="fill: #ff1493; fill-opacity: 0.8; stroke: #ff1493; stroke-opacity: 0.8; stroke-linejoin: miter"/>
     <use xlink:href="#mfcf884d7a8" x="363.63976" y="252.863529" style="fill: #ff1493; fill-opacity: 0.8; stroke: #ff1493; stroke-opacity: 0.8; stroke-linejoin: miter"/>
     <use xlink:href="#mfcf884d7a8" x="432.93774" y="283.150163" style="fill: #ff1493; fill-opacity: 0.8; stroke: #ff1493; stroke-opacity: 0.8; stroke-linejoin: miter"/>
     <use xlink:href="#mfcf884d7a8" x="502.23572" y="307.734776" style="fill: #ff1493; fill-opacity: 0.8; stroke: #ff1493; stroke-opacity: 0.8; stroke-linejoin: miter"/>
     <use xlink:href="#mfcf884d7a8" x="571.533699" y="322.042606" style="fill: #ff1493; fill-opacity: 0.8; stroke: #ff1493; stroke-opacity: 0.8; stroke-linejoin: miter"/>
     <use xlink:href="#mfcf884d7a8" x="640.831679" y="327.311085" style="fill: #ff1493; fill-opacity: 0.8; stroke: #ff1493; stroke-opacity: 0.8; stroke-linejoin: miter"/>
     <use xlink:href="#mfcf884d7a8" x="710.129659" y="335.813923" style="fill: #ff1493; fill-opacity: 0.8; stroke: #ff1493; stroke-opacity: 0.8; stroke-linejoin: miter"/>
    </g>
   </g>
   <g id="line2d_29">
    <path d="M 86.447841 57.145689 
L 155.745821 84.216792 
L 225.043801 141.169497 
L 294.34178 177.55365 
L 363.63976 251.074613 
L 432.93774 278.234389 
L 502.23572 302.210375 
L 571.533699 308.11606 
L 640.831679 312.346613 
L 710.129659 315.674305 
" clip-path="url(#p6f3aff7dff)" style="fill: none; stroke: #32cd32; stroke-opacity: 0.8; stroke-width: 2; stroke-linecap: square"/>
    <defs>
     <path id="m5adb933f00" d="M -4 -0 
L 4 4 
L 4 -4 
z
" style="stroke: #32cd32; stroke-opacity: 0.8; stroke-linejoin: miter"/>
    </defs>
    <g clip-path="url(#p6f3aff7dff)">
     <use xlink:href="#m5adb933f00" x="86.447841" y="57.145689" style="fill: #32cd32; fill-opacity: 0.8; stroke: #32cd32; stroke-opacity: 0.8; stroke-linejoin: miter"/>
     <use xlink:href="#m5adb933f00" x="155.745821" y="84.216792" style="fill: #32cd32; fill-opacity: 0.8; stroke: #32cd32; stroke-opacity: 0.8; stroke-linejoin: miter"/>
     <use xlink:href="#m5adb933f00" x="225.043801" y="141.169497" style="fill: #32cd32; fill-opacity: 0.8; stroke: #32cd32; stroke-opacity: 0.8; stroke-linejoin: miter"/>
     <use xlink:href="#m5adb933f00" x="294.34178" y="177.55365" style="fill: #32cd32; fill-opacity: 0.8; stroke: #32cd32; stroke-opacity: 0.8; stroke-linejoin: miter"/>
     <use xlink:href="#m5adb933f00" x="363.63976" y="251.074613" style="fill: #32cd32; fill-opacity: 0.8; stroke: #32cd32; stroke-opacity: 0.8; stroke-linejoin: miter"/>
     <use xlink:href="#m5adb933f00" x="432.93774" y="278.234389" style="fill: #32cd32; fill-opacity: 0.8; stroke: #32cd32; stroke-opacity: 0.8; stroke-linejoin: miter"/>
     <use xlink:href="#m5adb933f00" x="502.23572" y="302.210375" style="fill: #32cd32; fill-opacity: 0.8; stroke: #32cd32; stroke-opacity: 0.8; stroke-linejoin: miter"/>
     <use xlink:href="#m5adb933f00" x="571.533699" y="308.11606" style="fill: #32cd32; fill-opacity: 0.8; stroke: #32cd32; stroke-opacity: 0.8; stroke-linejoin: miter"/>
     <use xlink:href="#m5adb933f00" x="640.831679" y="312.346613" style="fill: #32cd32; fill-opacity: 0.8; stroke: #32cd32; stroke-opacity: 0.8; stroke-linejoin: miter"/>
     <use xlink:href="#m5adb933f00" x="710.129659" y="315.674305" style="fill: #32cd32; fill-opacity: 0.8; stroke: #32cd32; stroke-opacity: 0.8; stroke-linejoin: miter"/>
    </g>
   </g>
   <g id="line2d_30">
    <path d="M 86.447841 165.293676 
L 155.745821 165.293676 
L 225.043801 165.293676 
L 294.34178 305.321138 
L 363.63976 305.321138 
L 432.93774 305.321138 
L 502.23572 319.649255 
L 571.533699 319.649255 
L 640.831679 319.649255 
L 710.129659 337.133662 
" clip-path="url(#p6f3aff7dff)" style="fill: none; stroke: #4b0082; stroke-opacity: 0.8; stroke-width: 2; stroke-linecap: square"/>
    <defs>
     <path id="m12433451ce" d="M 4 0 
L -4 -4 
L -4 4 
z
" style="stroke: #4b0082; stroke-opacity: 0.8; stroke-linejoin: miter"/>
    </defs>
    <g clip-path="url(#p6f3aff7dff)">
     <use xlink:href="#m12433451ce" x="86.447841" y="165.293676" style="fill: #4b0082; fill-opacity: 0.8; stroke: #4b0082; stroke-opacity: 0.8; stroke-linejoin: miter"/>
     <use xlink:href="#m12433451ce" x="155.745821" y="165.293676" style="fill: #4b0082; fill-opacity: 0.8; stroke: #4b0082; stroke-opacity: 0.8; stroke-linejoin: miter"/>
     <use xlink:href="#m12433451ce" x="225.043801" y="165.293676" style="fill: #4b0082; fill-opacity: 0.8; stroke: #4b0082; stroke-opacity: 0.8; stroke-linejoin: miter"/>
     <use xlink:href="#m12433451ce" x="294.34178" y="305.321138" style="fill: #4b0082; fill-opacity: 0.8; stroke: #4b0082; stroke-opacity: 0.8; stroke-linejoin: miter"/>
     <use xlink:href="#m12433451ce" x="363.63976" y="305.321138" style="fill: #4b0082; fill-opacity: 0.8; stroke: #4b0082; stroke-opacity: 0.8; stroke-linejoin: miter"/>
     <use xlink:href="#m12433451ce" x="432.93774" y="305.321138" style="fill: #4b0082; fill-opacity: 0.8; stroke: #4b0082; stroke-opacity: 0.8; stroke-linejoin: miter"/>
     <use xlink:href="#m12433451ce" x="502.23572" y="319.649255" style="fill: #4b0082; fill-opacity: 0.8; stroke: #4b0082; stroke-opacity: 0.8; stroke-linejoin: miter"/>
     <use xlink:href="#m12433451ce" x="571.533699" y="319.649255" style="fill: #4b0082; fill-opacity: 0.8; stroke: #4b0082; stroke-opacity: 0.8; stroke-linejoin: miter"/>
     <use xlink:href="#m12433451ce" x="640.831679" y="319.649255" style="fill: #4b0082; fill-opacity: 0.8; stroke: #4b0082; stroke-opacity: 0.8; stroke-linejoin: miter"/>
     <use xlink:href="#m12433451ce" x="710.129659" y="337.133662" style="fill: #4b0082; fill-opacity: 0.8; stroke: #4b0082; stroke-opacity: 0.8; stroke-linejoin: miter"/>
    </g>
   </g>
   <g id="line2d_31">
    <path d="M 86.447841 40.181449 
L 155.745821 40.181449 
L 225.043801 94.477068 
L 294.34178 114.131329 
L 363.63976 140.521964 
L 432.93774 191.474543 
L 502.23572 244.249103 
L 571.533699 274.098928 
L 640.831679 319.990743 
L 710.129659 333.865263 
" clip-path="url(#p6f3aff7dff)" style="fill: none; stroke: #ff00ff; stroke-opacity: 0.8; stroke-width: 2; stroke-linecap: square"/>
    <defs>
     <path id="me89c096bf9" d="M 0 5.656854 
L 5.656854 0 
L 0 -5.656854 
L -5.656854 0 
z
" style="stroke: #ff00ff; stroke-opacity: 0.8; stroke-linejoin: miter"/>
    </defs>
    <g clip-path="url(#p6f3aff7dff)">
     <use xlink:href="#me89c096bf9" x="86.447841" y="40.181449" style="fill: #ff00ff; fill-opacity: 0.8; stroke: #ff00ff; stroke-opacity: 0.8; stroke-linejoin: miter"/>
     <use xlink:href="#me89c096bf9" x="155.745821" y="40.181449" style="fill: #ff00ff; fill-opacity: 0.8; stroke: #ff00ff; stroke-opacity: 0.8; stroke-linejoin: miter"/>
     <use xlink:href="#me89c096bf9" x="225.043801" y="94.477068" style="fill: #ff00ff; fill-opacity: 0.8; stroke: #ff00ff; stroke-opacity: 0.8; stroke-linejoin: miter"/>
     <use xlink:href="#me89c096bf9" x="294.34178" y="114.131329" style="fill: #ff00ff; fill-opacity: 0.8; stroke: #ff00ff; stroke-opacity: 0.8; stroke-linejoin: miter"/>
     <use xlink:href="#me89c096bf9" x="363.63976" y="140.521964" style="fill: #ff00ff; fill-opacity: 0.8; stroke: #ff00ff; stroke-opacity: 0.8; stroke-linejoin: miter"/>
     <use xlink:href="#me89c096bf9" x="432.93774" y="191.474543" style="fill: #ff00ff; fill-opacity: 0.8; stroke: #ff00ff; stroke-opacity: 0.8; stroke-linejoin: miter"/>
     <use xlink:href="#me89c096bf9" x="502.23572" y="244.249103" style="fill: #ff00ff; fill-opacity: 0.8; stroke: #ff00ff; stroke-opacity: 0.8; stroke-linejoin: miter"/>
     <use xlink:href="#me89c096bf9" x="571.533699" y="274.098928" style="fill: #ff00ff; fill-opacity: 0.8; stroke: #ff00ff; stroke-opacity: 0.8; stroke-linejoin: miter"/>
     <use xlink:href="#me89c096bf9" x="640.831679" y="319.990743" style="fill: #ff00ff; fill-opacity: 0.8; stroke: #ff00ff; stroke-opacity: 0.8; stroke-linejoin: miter"/>
     <use xlink:href="#me89c096bf9" x="710.129659" y="333.865263" style="fill: #ff00ff; fill-opacity: 0.8; stroke: #ff00ff; stroke-opacity: 0.8; stroke-linejoin: miter"/>
    </g>
   </g>
   <g id="line2d_32">
    <path d="M 86.447841 301.682952 
L 155.745821 301.682952 
L 225.043801 301.682952 
L 294.34178 301.682952 
L 363.63976 301.682952 
L 432.93774 301.682952 
L 502.23572 301.682952 
L 571.533699 301.682952 
L 640.831679 301.682952 
L 710.129659 301.682952 
" clip-path="url(#p6f3aff7dff)" style="fill: none; stroke: #ff4500; stroke-opacity: 0.8; stroke-width: 2; stroke-linecap: square"/>
    <defs>
     <path id="ma851334656" d="M -4 0 
L 4 0 
M 0 4 
L 0 -4 
" style="stroke: #ff4500; stroke-opacity: 0.8"/>
    </defs>
    <g clip-path="url(#p6f3aff7dff)">
     <use xlink:href="#ma851334656" x="86.447841" y="301.682952" style="fill: #ff4500; fill-opacity: 0.8; stroke: #ff4500; stroke-opacity: 0.8"/>
     <use xlink:href="#ma851334656" x="155.745821" y="301.682952" style="fill: #ff4500; fill-opacity: 0.8; stroke: #ff4500; stroke-opacity: 0.8"/>
     <use xlink:href="#ma851334656" x="225.043801" y="301.682952" style="fill: #ff4500; fill-opacity: 0.8; stroke: #ff4500; stroke-opacity: 0.8"/>
     <use xlink:href="#ma851334656" x="294.34178" y="301.682952" style="fill: #ff4500; fill-opacity: 0.8; stroke: #ff4500; stroke-opacity: 0.8"/>
     <use xlink:href="#ma851334656" x="363.63976" y="301.682952" style="fill: #ff4500; fill-opacity: 0.8; stroke: #ff4500; stroke-opacity: 0.8"/>
     <use xlink:href="#ma851334656" x="432.93774" y="301.682952" style="fill: #ff4500; fill-opacity: 0.8; stroke: #ff4500; stroke-opacity: 0.8"/>
     <use xlink:href="#ma851334656" x="502.23572" y="301.682952" style="fill: #ff4500; fill-opacity: 0.8; stroke: #ff4500; stroke-opacity: 0.8"/>
     <use xlink:href="#ma851334656" x="571.533699" y="301.682952" style="fill: #ff4500; fill-opacity: 0.8; stroke: #ff4500; stroke-opacity: 0.8"/>
     <use xlink:href="#ma851334656" x="640.831679" y="301.682952" style="fill: #ff4500; fill-opacity: 0.8; stroke: #ff4500; stroke-opacity: 0.8"/>
     <use xlink:href="#ma851334656" x="710.129659" y="301.682952" style="fill: #ff4500; fill-opacity: 0.8; stroke: #ff4500; stroke-opacity: 0.8"/>
    </g>
   </g>
   <g id="line2d_33">
    <path d="M 86.447841 40.181449 
L 155.745821 44.962963 
L 225.043801 119.343815 
L 294.34178 158.28425 
L 363.63976 255.993173 
L 432.93774 295.490583 
L 502.23572 323.442235 
L 571.533699 341.508696 
L 640.831679 356.694198 
L 710.129659 365.550153 
" clip-path="url(#p6f3aff7dff)" style="fill: none; stroke: #ffd700; stroke-opacity: 0.8; stroke-width: 2; stroke-linecap: square"/>
    <defs>
     <path id="mc128f91020" d="M 0 -4 
L -0.898056 -1.236068 
L -3.804226 -1.236068 
L -1.453085 0.472136 
L -2.351141 3.236068 
L -0 1.527864 
L 2.351141 3.236068 
L 1.453085 0.472136 
L 3.804226 -1.236068 
L 0.898056 -1.236068 
z
" style="stroke: #ffd700; stroke-opacity: 0.8; stroke-linejoin: bevel"/>
    </defs>
    <g clip-path="url(#p6f3aff7dff)">
     <use xlink:href="#mc128f91020" x="86.447841" y="40.181449" style="fill: #ffd700; fill-opacity: 0.8; stroke: #ffd700; stroke-opacity: 0.8; stroke-linejoin: bevel"/>
     <use xlink:href="#mc128f91020" x="155.745821" y="44.962963" style="fill: #ffd700; fill-opacity: 0.8; stroke: #ffd700; stroke-opacity: 0.8; stroke-linejoin: bevel"/>
     <use xlink:href="#mc128f91020" x="225.043801" y="119.343815" style="fill: #ffd700; fill-opacity: 0.8; stroke: #ffd700; stroke-opacity: 0.8; stroke-linejoin: bevel"/>
     <use xlink:href="#mc128f91020" x="294.34178" y="158.28425" style="fill: #ffd700; fill-opacity: 0.8; stroke: #ffd700; stroke-opacity: 0.8; stroke-linejoin: bevel"/>
     <use xlink:href="#mc128f91020" x="363.63976" y="255.993173" style="fill: #ffd700; fill-opacity: 0.8; stroke: #ffd700; stroke-opacity: 0.8; stroke-linejoin: bevel"/>
     <use xlink:href="#mc128f91020" x="432.93774" y="295.490583" style="fill: #ffd700; fill-opacity: 0.8; stroke: #ffd700; stroke-opacity: 0.8; stroke-linejoin: bevel"/>
     <use xlink:href="#mc128f91020" x="502.23572" y="323.442235" style="fill: #ffd700; fill-opacity: 0.8; stroke: #ffd700; stroke-opacity: 0.8; stroke-linejoin: bevel"/>
     <use xlink:href="#mc128f91020" x="571.533699" y="341.508696" style="fill: #ffd700; fill-opacity: 0.8; stroke: #ffd700; stroke-opacity: 0.8; stroke-linejoin: bevel"/>
     <use xlink:href="#mc128f91020" x="640.831679" y="356.694198" style="fill: #ffd700; fill-opacity: 0.8; stroke: #ffd700; stroke-opacity: 0.8; stroke-linejoin: bevel"/>
     <use xlink:href="#mc128f91020" x="710.129659" y="365.550153" style="fill: #ffd700; fill-opacity: 0.8; stroke: #ffd700; stroke-opacity: 0.8; stroke-linejoin: bevel"/>
    </g>
   </g>
   <g id="patch_3">
    <path d="M 55.26375 383.397812 
L 55.26375 23.837813 
" style="fill: none; stroke: #000000; stroke-width: 0.8; stroke-linejoin: miter; stroke-linecap: square"/>
   </g>
   <g id="patch_4">
    <path d="M 741.31375 383.397812 
L 741.31375 23.837813 
" style="fill: none; stroke: #000000; stroke-width: 0.8; stroke-linejoin: miter; stroke-linecap: square"/>
   </g>
   <g id="patch_5">
    <path d="M 55.26375 383.397812 
L 741.31375 383.397812 
" style="fill: none; stroke: #000000; stroke-width: 0.8; stroke-linejoin: miter; stroke-linecap: square"/>
   </g>
   <g id="patch_6">
    <path d="M 55.26375 23.837812 
L 741.31375 23.837812 
" style="fill: none; stroke: #000000; stroke-width: 0.8; stroke-linejoin: miter; stroke-linecap: square"/>
   </g>
   <g id="text_15">
    <!-- Custo Total vs Peso do Custo -->
    <g transform="translate(284.691875 17.837812) scale(0.14 -0.14)">
     <defs>
      <path id="DejaVuSans-Bold-43" d="M 4288 256 
Q 3956 84 3597 -3 
Q 3238 -91 2847 -91 
Q 1681 -91 1000 561 
Q 319 1213 319 2328 
Q 319 3447 1000 4098 
Q 1681 4750 2847 4750 
Q 3238 4750 3597 4662 
Q 3956 4575 4288 4403 
L 4288 3438 
Q 3953 3666 3628 3772 
Q 3303 3878 2944 3878 
Q 2300 3878 1931 3465 
Q 1563 3053 1563 2328 
Q 1563 1606 1931 1193 
Q 2300 781 2944 781 
Q 3303 781 3628 887 
Q 3953 994 4288 1222 
L 4288 256 
z
" transform="scale(0.015625)"/>
      <path id="DejaVuSans-Bold-75" d="M 500 1363 
L 500 3500 
L 1625 3500 
L 1625 3150 
Q 1625 2866 1622 2436 
Q 1619 2006 1619 1863 
Q 1619 1441 1641 1255 
Q 1663 1069 1716 984 
Q 1784 875 1895 815 
Q 2006 756 2150 756 
Q 2500 756 2700 1025 
Q 2900 1294 2900 1772 
L 2900 3500 
L 4019 3500 
L 4019 0 
L 2900 0 
L 2900 506 
Q 2647 200 2364 54 
Q 2081 -91 1741 -91 
Q 1134 -91 817 281 
Q 500 653 500 1363 
z
" transform="scale(0.015625)"/>
      <path id="DejaVuSans-Bold-73" d="M 3272 3391 
L 3272 2541 
Q 2913 2691 2578 2766 
Q 2244 2841 1947 2841 
Q 1628 2841 1473 2761 
Q 1319 2681 1319 2516 
Q 1319 2381 1436 2309 
Q 1553 2238 1856 2203 
L 2053 2175 
Q 2913 2066 3209 1816 
Q 3506 1566 3506 1031 
Q 3506 472 3093 190 
Q 2681 -91 1863 -91 
Q 1516 -91 1145 -36 
Q 775 19 384 128 
L 384 978 
Q 719 816 1070 734 
Q 1422 653 1784 653 
Q 2113 653 2278 743 
Q 2444 834 2444 1013 
Q 2444 1163 2330 1236 
Q 2216 1309 1875 1350 
L 1678 1375 
Q 931 1469 631 1722 
Q 331 1975 331 2491 
Q 331 3047 712 3315 
Q 1094 3584 1881 3584 
Q 2191 3584 2531 3537 
Q 2872 3491 3272 3391 
z
" transform="scale(0.015625)"/>
      <path id="DejaVuSans-Bold-74" d="M 1759 4494 
L 1759 3500 
L 2913 3500 
L 2913 2700 
L 1759 2700 
L 1759 1216 
Q 1759 972 1856 886 
Q 1953 800 2241 800 
L 2816 800 
L 2816 0 
L 1856 0 
Q 1194 0 917 276 
Q 641 553 641 1216 
L 641 2700 
L 84 2700 
L 84 3500 
L 641 3500 
L 641 4494 
L 1759 4494 
z
" transform="scale(0.015625)"/>
      <path id="DejaVuSans-Bold-6f" d="M 2203 2784 
Q 1831 2784 1636 2517 
Q 1441 2250 1441 1747 
Q 1441 1244 1636 976 
Q 1831 709 2203 709 
Q 2569 709 2762 976 
Q 2956 1244 2956 1747 
Q 2956 2250 2762 2517 
Q 2569 2784 2203 2784 
z
M 2203 3584 
Q 3106 3584 3614 3096 
Q 4122 2609 4122 1747 
Q 4122 884 3614 396 
Q 3106 -91 2203 -91 
Q 1297 -91 786 396 
Q 275 884 275 1747 
Q 275 2609 786 3096 
Q 1297 3584 2203 3584 
z
" transform="scale(0.015625)"/>
      <path id="DejaVuSans-Bold-20" transform="scale(0.015625)"/>
      <path id="DejaVuSans-Bold-54" d="M 31 4666 
L 4331 4666 
L 4331 3756 
L 2784 3756 
L 2784 0 
L 1581 0 
L 1581 3756 
L 31 3756 
L 31 4666 
z
" transform="scale(0.015625)"/>
      <path id="DejaVuSans-Bold-61" d="M 2106 1575 
Q 1756 1575 1579 1456 
Q 1403 1338 1403 1106 
Q 1403 894 1545 773 
Q 1688 653 1941 653 
Q 2256 653 2472 879 
Q 2688 1106 2688 1447 
L 2688 1575 
L 2106 1575 
z
M 3816 1997 
L 3816 0 
L 2688 0 
L 2688 519 
Q 2463 200 2181 54 
Q 1900 -91 1497 -91 
Q 953 -91 614 226 
Q 275 544 275 1050 
Q 275 1666 698 1953 
Q 1122 2241 2028 2241 
L 2688 2241 
L 2688 2328 
Q 2688 2594 2478 2717 
Q 2269 2841 1825 2841 
Q 1466 2841 1156 2769 
Q 847 2697 581 2553 
L 581 3406 
Q 941 3494 1303 3539 
Q 1666 3584 2028 3584 
Q 2975 3584 3395 3211 
Q 3816 2838 3816 1997 
z
" transform="scale(0.015625)"/>
      <path id="DejaVuSans-Bold-6c" d="M 538 4863 
L 1656 4863 
L 1656 0 
L 538 0 
L 538 4863 
z
" transform="scale(0.015625)"/>
      <path id="DejaVuSans-Bold-76" d="M 97 3500 
L 1216 3500 
L 2088 1081 
L 2956 3500 
L 4078 3500 
L 2700 0 
L 1472 0 
L 97 3500 
z
" transform="scale(0.015625)"/>
      <path id="DejaVuSans-Bold-50" d="M 588 4666 
L 2584 4666 
Q 3475 4666 3951 4270 
Q 4428 3875 4428 3144 
Q 4428 2409 3951 2014 
Q 3475 1619 2584 1619 
L 1791 1619 
L 1791 0 
L 588 0 
L 588 4666 
z
M 1791 3794 
L 1791 2491 
L 2456 2491 
Q 2806 2491 2997 2661 
Q 3188 2831 3188 3144 
Q 3188 3456 2997 3625 
Q 2806 3794 2456 3794 
L 1791 3794 
z
" transform="scale(0.015625)"/>
      <path id="DejaVuSans-Bold-65" d="M 4031 1759 
L 4031 1441 
L 1416 1441 
Q 1456 1047 1700 850 
Q 1944 653 2381 653 
Q 2734 653 3104 758 
Q 3475 863 3866 1075 
L 3866 213 
Q 3469 63 3072 -14 
Q 2675 -91 2278 -91 
Q 1328 -91 801 392 
Q 275 875 275 1747 
Q 275 2603 792 3093 
Q 1309 3584 2216 3584 
Q 3041 3584 3536 3087 
Q 4031 2591 4031 1759 
z
M 2881 2131 
Q 2881 2450 2695 2645 
Q 2509 2841 2209 2841 
Q 1884 2841 1681 2658 
Q 1478 2475 1428 2131 
L 2881 2131 
z
" transform="scale(0.015625)"/>
      <path id="DejaVuSans-Bold-64" d="M 2919 2988 
L 2919 4863 
L 4044 4863 
L 4044 0 
L 2919 0 
L 2919 506 
Q 2688 197 2409 53 
Q 2131 -91 1766 -91 
Q 1119 -91 703 423 
Q 288 938 288 1747 
Q 288 2556 703 3070 
Q 1119 3584 1766 3584 
Q 2128 3584 2408 3439 
Q 2688 3294 2919 2988 
z
M 2181 722 
Q 2541 722 2730 984 
Q 2919 1247 2919 1747 
Q 2919 2247 2730 2509 
Q 2541 2772 2181 2772 
Q 1825 2772 1636 2509 
Q 1447 2247 1447 1747 
Q 1447 1247 1636 984 
Q 1825 722 2181 722 
z
" transform="scale(0.015625)"/>
     </defs>
     <use xlink:href="#DejaVuSans-Bold-43"/>
     <use xlink:href="#DejaVuSans-Bold-75" transform="translate(73.388672 0)"/>
     <use xlink:href="#DejaVuSans-Bold-73" transform="translate(144.580078 0)"/>
     <use xlink:href="#DejaVuSans-Bold-74" transform="translate(204.101562 0)"/>
     <use xlink:href="#DejaVuSans-Bold-6f" transform="translate(251.904297 0)"/>
     <use xlink:href="#DejaVuSans-Bold-20" transform="translate(320.605469 0)"/>
     <use xlink:href="#DejaVuSans-Bold-54" transform="translate(355.419922 0)"/>
     <use xlink:href="#DejaVuSans-Bold-6f" transform="translate(410.382812 0)"/>
     <use xlink:href="#DejaVuSans-Bold-74" transform="translate(479.083984 0)"/>
     <use xlink:href="#DejaVuSans-Bold-61" transform="translate(526.886719 0)"/>
     <use xlink:href="#DejaVuSans-Bold-6c" transform="translate(594.367188 0)"/>
     <use xlink:href="#DejaVuSans-Bold-20" transform="translate(628.644531 0)"/>
     <use xlink:href="#DejaVuSans-Bold-76" transform="translate(663.458984 0)"/>
     <use xlink:href="#DejaVuSans-Bold-73" transform="translate(728.644531 0)"/>
     <use xlink:href="#DejaVuSans-Bold-20" transform="translate(788.166016 0)"/>
     <use xlink:href="#DejaVuSans-Bold-50" transform="translate(822.980469 0)"/>
     <use xlink:href="#DejaVuSans-Bold-65" transform="translate(896.271484 0)"/>
     <use xlink:href="#DejaVuSans-Bold-73" transform="translate(964.09375 0)"/>
     <use xlink:href="#DejaVuSans-Bold-6f" transform="translate(1023.615234 0)"/>
     <use xlink:href="#DejaVuSans-Bold-20" transform="translate(1092.316406 0)"/>
     <use xlink:href="#DejaVuSans-Bold-64" transform="translate(1127.130859 0)"/>
     <use xlink:href="#DejaVuSans-Bold-6f" transform="translate(1198.712891 0)"/>
     <use xlink:href="#DejaVuSans-Bold-20" transform="translate(1267.414062 0)"/>
     <use xlink:href="#DejaVuSans-Bold-43" transform="translate(1302.228516 0)"/>
     <use xlink:href="#DejaVuSans-Bold-75" transform="translate(1375.617188 0)"/>
     <use xlink:href="#DejaVuSans-Bold-73" transform="translate(1446.808594 0)"/>
     <use xlink:href="#DejaVuSans-Bold-74" transform="translate(1506.330078 0)"/>
     <use xlink:href="#DejaVuSans-Bold-6f" transform="translate(1554.132812 0)"/>
    </g>
   </g>
   <g id="legend_1">
    <g id="patch_7">
     <path d="M 779.61625 160.940937 
L 849.174062 160.940937 
Q 851.174062 160.940937 851.174062 158.940937 
L 851.174062 27.837812 
Q 851.174062 25.837812 849.174062 25.837812 
L 779.61625 25.837812 
Q 777.61625 25.837812 777.61625 27.837812 
L 777.61625 158.940937 
Q 777.61625 160.940937 779.61625 160.940937 
z
" style="fill: #4d4d4d; opacity: 0.5; stroke: #4d4d4d; stroke-linejoin: miter"/>
    </g>
    <g id="patch_8">
     <path d="M 777.61625 158.940937 
L 847.174062 158.940937 
Q 849.174062 158.940937 849.174062 156.940937 
L 849.174062 25.837812 
Q 849.174062 23.837812 847.174062 23.837812 
L 777.61625 23.837812 
Q 775.61625 23.837812 775.61625 25.837812 
L 775.61625 156.940937 
Q 775.61625 158.940937 777.61625 158.940937 
z
" style="fill: #ffffff; stroke: #cccccc; stroke-linejoin: miter"/>
    </g>
    <g id="line2d_34">
     <path d="M 779.61625 31.93625 
L 789.61625 31.93625 
L 799.61625 31.93625 
" style="fill: none; stroke: #ff8c00; stroke-opacity: 0.8; stroke-width: 2; stroke-linecap: square"/>
     <g>
      <use xlink:href="#m50231a496d" x="789.61625" y="31.93625" style="fill: #ff8c00; fill-opacity: 0.8; stroke: #ff8c00; stroke-opacity: 0.8; stroke-linejoin: miter"/>
     </g>
    </g>
    <g id="text_16">
     <!-- SVMR -->
     <g transform="translate(807.61625 35.43625) scale(0.1 -0.1)">
      <defs>
       <path id="DejaVuSans-53" d="M 3425 4513 
L 3425 3897 
Q 3066 4069 2747 4153 
Q 2428 4238 2131 4238 
Q 1616 4238 1336 4038 
Q 1056 3838 1056 3469 
Q 1056 3159 1242 3001 
Q 1428 2844 1947 2747 
L 2328 2669 
Q 3034 2534 3370 2195 
Q 3706 1856 3706 1288 
Q 3706 609 3251 259 
Q 2797 -91 1919 -91 
Q 1588 -91 1214 -16 
Q 841 59 441 206 
L 441 856 
Q 825 641 1194 531 
Q 1563 422 1919 422 
Q 2459 422 2753 634 
Q 3047 847 3047 1241 
Q 3047 1584 2836 1778 
Q 2625 1972 2144 2069 
L 1759 2144 
Q 1053 2284 737 2584 
Q 422 2884 422 3419 
Q 422 4038 858 4394 
Q 1294 4750 2059 4750 
Q 2388 4750 2728 4690 
Q 3069 4631 3425 4513 
z
" transform="scale(0.015625)"/>
       <path id="DejaVuSans-56" d="M 1831 0 
L 50 4666 
L 709 4666 
L 2188 738 
L 3669 4666 
L 4325 4666 
L 2547 0 
L 1831 0 
z
" transform="scale(0.015625)"/>
       <path id="DejaVuSans-4d" d="M 628 4666 
L 1569 4666 
L 2759 1491 
L 3956 4666 
L 4897 4666 
L 4897 0 
L 4281 0 
L 4281 4097 
L 3078 897 
L 2444 897 
L 1241 4097 
L 1241 0 
L 628 0 
L 628 4666 
z
" transform="scale(0.015625)"/>
       <path id="DejaVuSans-52" d="M 2841 2188 
Q 3044 2119 3236 1894 
Q 3428 1669 3622 1275 
L 4263 0 
L 3584 0 
L 2988 1197 
Q 2756 1666 2539 1819 
Q 2322 1972 1947 1972 
L 1259 1972 
L 1259 0 
L 628 0 
L 628 4666 
L 2053 4666 
Q 2853 4666 3247 4331 
Q 3641 3997 3641 3322 
Q 3641 2881 3436 2590 
Q 3231 2300 2841 2188 
z
M 1259 4147 
L 1259 2491 
L 2053 2491 
Q 2509 2491 2742 2702 
Q 2975 2913 2975 3322 
Q 2975 3731 2742 3939 
Q 2509 4147 2053 4147 
L 1259 4147 
z
" transform="scale(0.015625)"/>
      </defs>
      <use xlink:href="#DejaVuSans-53"/>
      <use xlink:href="#DejaVuSans-56" transform="translate(63.476562 0)"/>
      <use xlink:href="#DejaVuSans-4d" transform="translate(131.884766 0)"/>
      <use xlink:href="#DejaVuSans-52" transform="translate(218.164062 0)"/>
     </g>
    </g>
    <g id="line2d_35">
     <path d="M 779.61625 46.614375 
L 789.61625 46.614375 
L 799.61625 46.614375 
" style="fill: none; stroke: #00ffff; stroke-opacity: 0.8; stroke-width: 2; stroke-linecap: square"/>
     <g>
      <use xlink:href="#m0a63b7fd76" x="789.61625" y="46.614375" style="fill: #00ffff; fill-opacity: 0.8; stroke: #00ffff; stroke-opacity: 0.8; stroke-linejoin: miter"/>
     </g>
    </g>
    <g id="text_17">
     <!-- LR -->
     <g transform="translate(807.61625 50.114375) scale(0.1 -0.1)">
      <defs>
       <path id="DejaVuSans-4c" d="M 628 4666 
L 1259 4666 
L 1259 531 
L 3531 531 
L 3531 0 
L 628 0 
L 628 4666 
z
" transform="scale(0.015625)"/>
      </defs>
      <use xlink:href="#DejaVuSans-4c"/>
      <use xlink:href="#DejaVuSans-52" transform="translate(55.712891 0)"/>
     </g>
    </g>
    <g id="line2d_36">
     <path d="M 779.61625 61.2925 
L 789.61625 61.2925 
L 799.61625 61.2925 
" style="fill: none; stroke: #0000ff; stroke-opacity: 0.8; stroke-width: 2; stroke-linecap: square"/>
     <g>
      <use xlink:href="#mdb608976bf" x="789.61625" y="61.2925" style="fill: #0000ff; fill-opacity: 0.8; stroke: #0000ff; stroke-opacity: 0.8; stroke-linejoin: miter"/>
     </g>
    </g>
    <g id="text_18">
     <!-- SVML -->
     <g transform="translate(807.61625 64.7925) scale(0.1 -0.1)">
      <use xlink:href="#DejaVuSans-53"/>
      <use xlink:href="#DejaVuSans-56" transform="translate(63.476562 0)"/>
      <use xlink:href="#DejaVuSans-4d" transform="translate(131.884766 0)"/>
      <use xlink:href="#DejaVuSans-4c" transform="translate(218.164062 0)"/>
     </g>
    </g>
    <g id="line2d_37">
     <path d="M 779.61625 75.970625 
L 789.61625 75.970625 
L 799.61625 75.970625 
" style="fill: none; stroke: #ff1493; stroke-opacity: 0.8; stroke-width: 2; stroke-linecap: square"/>
     <g>
      <use xlink:href="#mfcf884d7a8" x="789.61625" y="75.970625" style="fill: #ff1493; fill-opacity: 0.8; stroke: #ff1493; stroke-opacity: 0.8; stroke-linejoin: miter"/>
     </g>
    </g>
    <g id="text_19">
     <!-- RF -->
     <g transform="translate(807.61625 79.470625) scale(0.1 -0.1)">
      <defs>
       <path id="DejaVuSans-46" d="M 628 4666 
L 3309 4666 
L 3309 4134 
L 1259 4134 
L 1259 2759 
L 3109 2759 
L 3109 2228 
L 1259 2228 
L 1259 0 
L 628 0 
L 628 4666 
z
" transform="scale(0.015625)"/>
      </defs>
      <use xlink:href="#DejaVuSans-52"/>
      <use xlink:href="#DejaVuSans-46" transform="translate(69.482422 0)"/>
     </g>
    </g>
    <g id="line2d_38">
     <path d="M 779.61625 90.64875 
L 789.61625 90.64875 
L 799.61625 90.64875 
" style="fill: none; stroke: #32cd32; stroke-opacity: 0.8; stroke-width: 2; stroke-linecap: square"/>
     <g>
      <use xlink:href="#m5adb933f00" x="789.61625" y="90.64875" style="fill: #32cd32; fill-opacity: 0.8; stroke: #32cd32; stroke-opacity: 0.8; stroke-linejoin: miter"/>
     </g>
    </g>
    <g id="text_20">
     <!-- DCT -->
     <g transform="translate(807.61625 94.14875) scale(0.1 -0.1)">
      <defs>
       <path id="DejaVuSans-44" d="M 1259 4147 
L 1259 519 
L 2022 519 
Q 2988 519 3436 956 
Q 3884 1394 3884 2338 
Q 3884 3275 3436 3711 
Q 2988 4147 2022 4147 
L 1259 4147 
z
M 628 4666 
L 1925 4666 
Q 3281 4666 3915 4102 
Q 4550 3538 4550 2338 
Q 4550 1131 3912 565 
Q 3275 0 1925 0 
L 628 0 
L 628 4666 
z
" transform="scale(0.015625)"/>
      </defs>
      <use xlink:href="#DejaVuSans-44"/>
      <use xlink:href="#DejaVuSans-43" transform="translate(77.001953 0)"/>
      <use xlink:href="#DejaVuSans-54" transform="translate(146.826172 0)"/>
     </g>
    </g>
    <g id="line2d_39">
     <path d="M 779.61625 105.326875 
L 789.61625 105.326875 
L 799.61625 105.326875 
" style="fill: none; stroke: #4b0082; stroke-opacity: 0.8; stroke-width: 2; stroke-linecap: square"/>
     <g>
      <use xlink:href="#m12433451ce" x="789.61625" y="105.326875" style="fill: #4b0082; fill-opacity: 0.8; stroke: #4b0082; stroke-opacity: 0.8; stroke-linejoin: miter"/>
     </g>
    </g>
    <g id="text_21">
     <!-- KNN -->
     <g transform="translate(807.61625 108.826875) scale(0.1 -0.1)">
      <defs>
       <path id="DejaVuSans-4b" d="M 628 4666 
L 1259 4666 
L 1259 2694 
L 3353 4666 
L 4166 4666 
L 1850 2491 
L 4331 0 
L 3500 0 
L 1259 2247 
L 1259 0 
L 628 0 
L 628 4666 
z
" transform="scale(0.015625)"/>
       <path id="DejaVuSans-4e" d="M 628 4666 
L 1478 4666 
L 3547 763 
L 3547 4666 
L 4159 4666 
L 4159 0 
L 3309 0 
L 1241 3903 
L 1241 0 
L 628 0 
L 628 4666 
z
" transform="scale(0.015625)"/>
      </defs>
      <use xlink:href="#DejaVuSans-4b"/>
      <use xlink:href="#DejaVuSans-4e" transform="translate(65.576172 0)"/>
      <use xlink:href="#DejaVuSans-4e" transform="translate(140.380859 0)"/>
     </g>
    </g>
    <g id="line2d_40">
     <path d="M 779.61625 120.005 
L 789.61625 120.005 
L 799.61625 120.005 
" style="fill: none; stroke: #ff00ff; stroke-opacity: 0.8; stroke-width: 2; stroke-linecap: square"/>
     <g>
      <use xlink:href="#me89c096bf9" x="789.61625" y="120.005" style="fill: #ff00ff; fill-opacity: 0.8; stroke: #ff00ff; stroke-opacity: 0.8; stroke-linejoin: miter"/>
     </g>
    </g>
    <g id="text_22">
     <!-- SV-Grid -->
     <g transform="translate(807.61625 123.505) scale(0.1 -0.1)">
      <defs>
       <path id="DejaVuSans-2d" d="M 313 2009 
L 1997 2009 
L 1997 1497 
L 313 1497 
L 313 2009 
z
" transform="scale(0.015625)"/>
       <path id="DejaVuSans-47" d="M 3809 666 
L 3809 1919 
L 2778 1919 
L 2778 2438 
L 4434 2438 
L 4434 434 
Q 4069 175 3628 42 
Q 3188 -91 2688 -91 
Q 1594 -91 976 548 
Q 359 1188 359 2328 
Q 359 3472 976 4111 
Q 1594 4750 2688 4750 
Q 3144 4750 3555 4637 
Q 3966 4525 4313 4306 
L 4313 3634 
Q 3963 3931 3569 4081 
Q 3175 4231 2741 4231 
Q 1884 4231 1454 3753 
Q 1025 3275 1025 2328 
Q 1025 1384 1454 906 
Q 1884 428 2741 428 
Q 3075 428 3337 486 
Q 3600 544 3809 666 
z
" transform="scale(0.015625)"/>
       <path id="DejaVuSans-72" d="M 2631 2963 
Q 2534 3019 2420 3045 
Q 2306 3072 2169 3072 
Q 1681 3072 1420 2755 
Q 1159 2438 1159 1844 
L 1159 0 
L 581 0 
L 581 3500 
L 1159 3500 
L 1159 2956 
Q 1341 3275 1631 3429 
Q 1922 3584 2338 3584 
Q 2397 3584 2469 3576 
Q 2541 3569 2628 3553 
L 2631 2963 
z
" transform="scale(0.015625)"/>
       <path id="DejaVuSans-69" d="M 603 3500 
L 1178 3500 
L 1178 0 
L 603 0 
L 603 3500 
z
M 603 4863 
L 1178 4863 
L 1178 4134 
L 603 4134 
L 603 4863 
z
" transform="scale(0.015625)"/>
      </defs>
      <use xlink:href="#DejaVuSans-53"/>
      <use xlink:href="#DejaVuSans-56" transform="translate(63.476562 0)"/>
      <use xlink:href="#DejaVuSans-2d" transform="translate(126.009766 0)"/>
      <use xlink:href="#DejaVuSans-47" transform="translate(165.71875 0)"/>
      <use xlink:href="#DejaVuSans-72" transform="translate(243.208984 0)"/>
      <use xlink:href="#DejaVuSans-69" transform="translate(284.322266 0)"/>
      <use xlink:href="#DejaVuSans-64" transform="translate(312.105469 0)"/>
     </g>
    </g>
    <g id="line2d_41">
     <path d="M 779.61625 134.683125 
L 789.61625 134.683125 
L 799.61625 134.683125 
" style="fill: none; stroke: #ff4500; stroke-opacity: 0.8; stroke-width: 2; stroke-linecap: square"/>
     <g>
      <use xlink:href="#ma851334656" x="789.61625" y="134.683125" style="fill: #ff4500; fill-opacity: 0.8; stroke: #ff4500; stroke-opacity: 0.8"/>
     </g>
    </g>
    <g id="text_23">
     <!-- HV -->
     <g transform="translate(807.61625 138.183125) scale(0.1 -0.1)">
      <defs>
       <path id="DejaVuSans-48" d="M 628 4666 
L 1259 4666 
L 1259 2753 
L 3553 2753 
L 3553 4666 
L 4184 4666 
L 4184 0 
L 3553 0 
L 3553 2222 
L 1259 2222 
L 1259 0 
L 628 0 
L 628 4666 
z
" transform="scale(0.015625)"/>
      </defs>
      <use xlink:href="#DejaVuSans-48"/>
      <use xlink:href="#DejaVuSans-56" transform="translate(75.195312 0)"/>
     </g>
    </g>
    <g id="line2d_42">
     <path d="M 779.61625 149.36125 
L 789.61625 149.36125 
L 799.61625 149.36125 
" style="fill: none; stroke: #ffd700; stroke-opacity: 0.8; stroke-width: 2; stroke-linecap: square"/>
     <g>
      <use xlink:href="#mc128f91020" x="789.61625" y="149.36125" style="fill: #ffd700; fill-opacity: 0.8; stroke: #ffd700; stroke-opacity: 0.8; stroke-linejoin: bevel"/>
     </g>
    </g>
    <g id="text_24">
     <!-- SV -->
     <g transform="translate(807.61625 152.86125) scale(0.1 -0.1)">
      <use xlink:href="#DejaVuSans-53"/>
      <use xlink:href="#DejaVuSans-56" transform="translate(63.476562 0)"/>
     </g>
    </g>
   </g>
  </g>
 </g>
 <defs>
  <clipPath id="p6f3aff7dff">
   <rect x="55.26375" y="23.837812" width="686.05" height="359.56"/>
  </clipPath>
 </defs>
</svg>
