<?xml version="1.0" encoding="utf-8" standalone="no"?>
<!DOCTYPE svg PUBLIC "-//W3C//DTD SVG 1.1//EN"
  "http://www.w3.org/Graphics/SVG/1.1/DTD/svg11.dtd">
<svg xmlns:xlink="http://www.w3.org/1999/xlink" width="856.844187pt" height="422.889687pt" viewBox="0 0 856.844187 422.889687" xmlns="http://www.w3.org/2000/svg" version="1.1">
 <metadata>
  <rdf:RDF xmlns:dc="http://purl.org/dc/elements/1.1/" xmlns:cc="http://creativecommons.org/ns#" xmlns:rdf="http://www.w3.org/1999/02/22-rdf-syntax-ns#">
   <cc:Work>
    <dc:type rdf:resource="http://purl.org/dc/dcmitype/StillImage"/>
    <dc:date>2025-12-13T14:12:55.236486</dc:date>
    <dc:format>image/svg+xml</dc:format>
    <dc:creator>
     <cc:Agent>
      <dc:title>Matplotlib v3.10.0, https://matplotlib.org/</dc:title>
     </cc:Agent>
    </dc:creator>
   </cc:Work>
  </rdf:RDF>
 </metadata>
 <defs>
  <style type="text/css">*{stroke-linejoin: round; stroke-linecap: butt}</style>
 </defs>
 <g id="figure_1">
  <g id="patch_1">
   <path d="M 0 422.889687 
L 856.844187 422.889687 
L 856.844187 0 
L 0 0 
z
" style="fill: #ffffff"/>
  </g>
  <g id="axes_1">
   <g id="patch_2">
    <path d="M 45.716875 383.397812 
L 741.306875 383.397812 
L 741.306875 23.837812 
L 45.716875 23.837812 
z
" style="fill: #ffffff"/>
   </g>
   <g id="matplotlib.axis_1">
    <g id="xtick_1">
     <g id="line2d_1">
      <path d="M 147.596218 383.397812 
L 147.596218 23.837812 
" clip-path="url(#pa6d09fa8a7)" style="fill: none; stroke-dasharray: 2.96,1.28; stroke-dashoffset: 0; stroke: #b0b0b0; stroke-opacity: 0.3; stroke-width: 0.8"/>
     </g>
     <g id="line2d_2">
      <defs>
       <path id="mbf695f89f4" d="M 0 0 
L 0 3.5 
" style="stroke: #000000; stroke-width: 0.8"/>
      </defs>
      <g>
       <use xlink:href="#mbf695f89f4" x="147.596218" y="383.397812" style="stroke: #000000; stroke-width: 0.8"/>
      </g>
     </g>
     <g id="text_1">
      <!-- 0.2 -->
      <g transform="translate(139.644656 397.99625) scale(0.1 -0.1)">
       <defs>
        <path id="DejaVuSans-30" d="M 2034 4250 
Q 1547 4250 1301 3770 
Q 1056 3291 1056 2328 
Q 1056 1369 1301 889 
Q 1547 409 2034 409 
Q 2525 409 2770 889 
Q 3016 1369 3016 2328 
Q 3016 3291 2770 3770 
Q 2525 4250 2034 4250 
z
M 2034 4750 
Q 2819 4750 3233 4129 
Q 3647 3509 3647 2328 
Q 3647 1150 3233 529 
Q 2819 -91 2034 -91 
Q 1250 -91 836 529 
Q 422 1150 422 2328 
Q 422 3509 836 4129 
Q 1250 4750 2034 4750 
z
" transform="scale(0.015625)"/>
        <path id="DejaVuSans-2e" d="M 684 794 
L 1344 794 
L 1344 0 
L 684 0 
L 684 794 
z
" transform="scale(0.015625)"/>
        <path id="DejaVuSans-32" d="M 1228 531 
L 3431 531 
L 3431 0 
L 469 0 
L 469 531 
Q 828 903 1448 1529 
Q 2069 2156 2228 2338 
Q 2531 2678 2651 2914 
Q 2772 3150 2772 3378 
Q 2772 3750 2511 3984 
Q 2250 4219 1831 4219 
Q 1534 4219 1204 4116 
Q 875 4013 500 3803 
L 500 4441 
Q 881 4594 1212 4672 
Q 1544 4750 1819 4750 
Q 2544 4750 2975 4387 
Q 3406 4025 3406 3419 
Q 3406 3131 3298 2873 
Q 3191 2616 2906 2266 
Q 2828 2175 2409 1742 
Q 1991 1309 1228 531 
z
" transform="scale(0.015625)"/>
       </defs>
       <use xlink:href="#DejaVuSans-30"/>
       <use xlink:href="#DejaVuSans-2e" transform="translate(63.623047 0)"/>
       <use xlink:href="#DejaVuSans-32" transform="translate(95.410156 0)"/>
      </g>
     </g>
    </g>
    <g id="xtick_2">
     <g id="line2d_3">
      <path d="M 288.119451 383.397812 
L 288.119451 23.837812 
" clip-path="url(#pa6d09fa8a7)" style="fill: none; stroke-dasharray: 2.96,1.28; stroke-dashoffset: 0; stroke: #b0b0b0; stroke-opacity: 0.3; stroke-width: 0.8"/>
     </g>
     <g id="line2d_4">
      <g>
       <use xlink:href="#mbf695f89f4" x="288.119451" y="383.397812" style="stroke: #000000; stroke-width: 0.8"/>
      </g>
     </g>
     <g id="text_2">
      <!-- 0.4 -->
      <g transform="translate(280.167888 397.99625) scale(0.1 -0.1)">
       <defs>
        <path id="DejaVuSans-34" d="M 2419 4116 
L 825 1625 
L 2419 1625 
L 2419 4116 
z
M 2253 4666 
L 3047 4666 
L 3047 1625 
L 3713 1625 
L 3713 1100 
L 3047 1100 
L 3047 0 
L 2419 0 
L 2419 1100 
L 313 1100 
L 313 1709 
L 2253 4666 
z
" transform="scale(0.015625)"/>
       </defs>
       <use xlink:href="#DejaVuSans-30"/>
       <use xlink:href="#DejaVuSans-2e" transform="translate(63.623047 0)"/>
       <use xlink:href="#DejaVuSans-34" transform="translate(95.410156 0)"/>
      </g>
     </g>
    </g>
    <g id="xtick_3">
     <g id="line2d_5">
      <path d="M 428.642683 383.397812 
L 428.642683 23.837812 
" clip-path="url(#pa6d09fa8a7)" style="fill: none; stroke-dasharray: 2.96,1.28; stroke-dashoffset: 0; stroke: #b0b0b0; stroke-opacity: 0.3; stroke-width: 0.8"/>
     </g>
     <g id="line2d_6">
      <g>
       <use xlink:href="#mbf695f89f4" x="428.642683" y="383.397812" style="stroke: #000000; stroke-width: 0.8"/>
      </g>
     </g>
     <g id="text_3">
      <!-- 0.6 -->
      <g transform="translate(420.691121 397.99625) scale(0.1 -0.1)">
       <defs>
        <path id="DejaVuSans-36" d="M 2113 2584 
Q 1688 2584 1439 2293 
Q 1191 2003 1191 1497 
Q 1191 994 1439 701 
Q 1688 409 2113 409 
Q 2538 409 2786 701 
Q 3034 994 3034 1497 
Q 3034 2003 2786 2293 
Q 2538 2584 2113 2584 
z
M 3366 4563 
L 3366 3988 
Q 3128 4100 2886 4159 
Q 2644 4219 2406 4219 
Q 1781 4219 1451 3797 
Q 1122 3375 1075 2522 
Q 1259 2794 1537 2939 
Q 1816 3084 2150 3084 
Q 2853 3084 3261 2657 
Q 3669 2231 3669 1497 
Q 3669 778 3244 343 
Q 2819 -91 2113 -91 
Q 1303 -91 875 529 
Q 447 1150 447 2328 
Q 447 3434 972 4092 
Q 1497 4750 2381 4750 
Q 2619 4750 2861 4703 
Q 3103 4656 3366 4563 
z
" transform="scale(0.015625)"/>
       </defs>
       <use xlink:href="#DejaVuSans-30"/>
       <use xlink:href="#DejaVuSans-2e" transform="translate(63.623047 0)"/>
       <use xlink:href="#DejaVuSans-36" transform="translate(95.410156 0)"/>
      </g>
     </g>
    </g>
    <g id="xtick_4">
     <g id="line2d_7">
      <path d="M 569.165915 383.397812 
L 569.165915 23.837812 
" clip-path="url(#pa6d09fa8a7)" style="fill: none; stroke-dasharray: 2.96,1.28; stroke-dashoffset: 0; stroke: #b0b0b0; stroke-opacity: 0.3; stroke-width: 0.8"/>
     </g>
     <g id="line2d_8">
      <g>
       <use xlink:href="#mbf695f89f4" x="569.165915" y="383.397812" style="stroke: #000000; stroke-width: 0.8"/>
      </g>
     </g>
     <g id="text_4">
      <!-- 0.8 -->
      <g transform="translate(561.214353 397.99625) scale(0.1 -0.1)">
       <defs>
        <path id="DejaVuSans-38" d="M 2034 2216 
Q 1584 2216 1326 1975 
Q 1069 1734 1069 1313 
Q 1069 891 1326 650 
Q 1584 409 2034 409 
Q 2484 409 2743 651 
Q 3003 894 3003 1313 
Q 3003 1734 2745 1975 
Q 2488 2216 2034 2216 
z
M 1403 2484 
Q 997 2584 770 2862 
Q 544 3141 544 3541 
Q 544 4100 942 4425 
Q 1341 4750 2034 4750 
Q 2731 4750 3128 4425 
Q 3525 4100 3525 3541 
Q 3525 3141 3298 2862 
Q 3072 2584 2669 2484 
Q 3125 2378 3379 2068 
Q 3634 1759 3634 1313 
Q 3634 634 3220 271 
Q 2806 -91 2034 -91 
Q 1263 -91 848 271 
Q 434 634 434 1313 
Q 434 1759 690 2068 
Q 947 2378 1403 2484 
z
M 1172 3481 
Q 1172 3119 1398 2916 
Q 1625 2713 2034 2713 
Q 2441 2713 2670 2916 
Q 2900 3119 2900 3481 
Q 2900 3844 2670 4047 
Q 2441 4250 2034 4250 
Q 1625 4250 1398 4047 
Q 1172 3844 1172 3481 
z
" transform="scale(0.015625)"/>
       </defs>
       <use xlink:href="#DejaVuSans-30"/>
       <use xlink:href="#DejaVuSans-2e" transform="translate(63.623047 0)"/>
       <use xlink:href="#DejaVuSans-38" transform="translate(95.410156 0)"/>
      </g>
     </g>
    </g>
    <g id="xtick_5">
     <g id="line2d_9">
      <path d="M 709.689148 383.397812 
L 709.689148 23.837812 
" clip-path="url(#pa6d09fa8a7)" style="fill: none; stroke-dasharray: 2.96,1.28; stroke-dashoffset: 0; stroke: #b0b0b0; stroke-opacity: 0.3; stroke-width: 0.8"/>
     </g>
     <g id="line2d_10">
      <g>
       <use xlink:href="#mbf695f89f4" x="709.689148" y="383.397812" style="stroke: #000000; stroke-width: 0.8"/>
      </g>
     </g>
     <g id="text_5">
      <!-- 1.0 -->
      <g transform="translate(701.737585 397.99625) scale(0.1 -0.1)">
       <defs>
        <path id="DejaVuSans-31" d="M 794 531 
L 1825 531 
L 1825 4091 
L 703 3866 
L 703 4441 
L 1819 4666 
L 2450 4666 
L 2450 531 
L 3481 531 
L 3481 0 
L 794 0 
L 794 531 
z
" transform="scale(0.015625)"/>
       </defs>
       <use xlink:href="#DejaVuSans-31"/>
       <use xlink:href="#DejaVuSans-2e" transform="translate(63.623047 0)"/>
       <use xlink:href="#DejaVuSans-30" transform="translate(95.410156 0)"/>
      </g>
     </g>
    </g>
    <g id="text_6">
     <!-- Peso do Custo -->
     <g transform="translate(351.1875 413.194062) scale(0.12 -0.12)">
      <defs>
       <path id="DejaVuSans-50" d="M 1259 4147 
L 1259 2394 
L 2053 2394 
Q 2494 2394 2734 2622 
Q 2975 2850 2975 3272 
Q 2975 3691 2734 3919 
Q 2494 4147 2053 4147 
L 1259 4147 
z
M 628 4666 
L 2053 4666 
Q 2838 4666 3239 4311 
Q 3641 3956 3641 3272 
Q 3641 2581 3239 2228 
Q 2838 1875 2053 1875 
L 1259 1875 
L 1259 0 
L 628 0 
L 628 4666 
z
" transform="scale(0.015625)"/>
       <path id="DejaVuSans-65" d="M 3597 1894 
L 3597 1613 
L 953 1613 
Q 991 1019 1311 708 
Q 1631 397 2203 397 
Q 2534 397 2845 478 
Q 3156 559 3463 722 
L 3463 178 
Q 3153 47 2828 -22 
Q 2503 -91 2169 -91 
Q 1331 -91 842 396 
Q 353 884 353 1716 
Q 353 2575 817 3079 
Q 1281 3584 2069 3584 
Q 2775 3584 3186 3129 
Q 3597 2675 3597 1894 
z
M 3022 2063 
Q 3016 2534 2758 2815 
Q 2500 3097 2075 3097 
Q 1594 3097 1305 2825 
Q 1016 2553 972 2059 
L 3022 2063 
z
" transform="scale(0.015625)"/>
       <path id="DejaVuSans-73" d="M 2834 3397 
L 2834 2853 
Q 2591 2978 2328 3040 
Q 2066 3103 1784 3103 
Q 1356 3103 1142 2972 
Q 928 2841 928 2578 
Q 928 2378 1081 2264 
Q 1234 2150 1697 2047 
L 1894 2003 
Q 2506 1872 2764 1633 
Q 3022 1394 3022 966 
Q 3022 478 2636 193 
Q 2250 -91 1575 -91 
Q 1294 -91 989 -36 
Q 684 19 347 128 
L 347 722 
Q 666 556 975 473 
Q 1284 391 1588 391 
Q 1994 391 2212 530 
Q 2431 669 2431 922 
Q 2431 1156 2273 1281 
Q 2116 1406 1581 1522 
L 1381 1569 
Q 847 1681 609 1914 
Q 372 2147 372 2553 
Q 372 3047 722 3315 
Q 1072 3584 1716 3584 
Q 2034 3584 2315 3537 
Q 2597 3491 2834 3397 
z
" transform="scale(0.015625)"/>
       <path id="DejaVuSans-6f" d="M 1959 3097 
Q 1497 3097 1228 2736 
Q 959 2375 959 1747 
Q 959 1119 1226 758 
Q 1494 397 1959 397 
Q 2419 397 2687 759 
Q 2956 1122 2956 1747 
Q 2956 2369 2687 2733 
Q 2419 3097 1959 3097 
z
M 1959 3584 
Q 2709 3584 3137 3096 
Q 3566 2609 3566 1747 
Q 3566 888 3137 398 
Q 2709 -91 1959 -91 
Q 1206 -91 779 398 
Q 353 888 353 1747 
Q 353 2609 779 3096 
Q 1206 3584 1959 3584 
z
" transform="scale(0.015625)"/>
       <path id="DejaVuSans-20" transform="scale(0.015625)"/>
       <path id="DejaVuSans-64" d="M 2906 2969 
L 2906 4863 
L 3481 4863 
L 3481 0 
L 2906 0 
L 2906 525 
Q 2725 213 2448 61 
Q 2172 -91 1784 -91 
Q 1150 -91 751 415 
Q 353 922 353 1747 
Q 353 2572 751 3078 
Q 1150 3584 1784 3584 
Q 2172 3584 2448 3432 
Q 2725 3281 2906 2969 
z
M 947 1747 
Q 947 1113 1208 752 
Q 1469 391 1925 391 
Q 2381 391 2643 752 
Q 2906 1113 2906 1747 
Q 2906 2381 2643 2742 
Q 2381 3103 1925 3103 
Q 1469 3103 1208 2742 
Q 947 2381 947 1747 
z
" transform="scale(0.015625)"/>
       <path id="DejaVuSans-43" d="M 4122 4306 
L 4122 3641 
Q 3803 3938 3442 4084 
Q 3081 4231 2675 4231 
Q 1875 4231 1450 3742 
Q 1025 3253 1025 2328 
Q 1025 1406 1450 917 
Q 1875 428 2675 428 
Q 3081 428 3442 575 
Q 3803 722 4122 1019 
L 4122 359 
Q 3791 134 3420 21 
Q 3050 -91 2638 -91 
Q 1578 -91 968 557 
Q 359 1206 359 2328 
Q 359 3453 968 4101 
Q 1578 4750 2638 4750 
Q 3056 4750 3426 4639 
Q 3797 4528 4122 4306 
z
" transform="scale(0.015625)"/>
       <path id="DejaVuSans-75" d="M 544 1381 
L 544 3500 
L 1119 3500 
L 1119 1403 
Q 1119 906 1312 657 
Q 1506 409 1894 409 
Q 2359 409 2629 706 
Q 2900 1003 2900 1516 
L 2900 3500 
L 3475 3500 
L 3475 0 
L 2900 0 
L 2900 538 
Q 2691 219 2414 64 
Q 2138 -91 1772 -91 
Q 1169 -91 856 284 
Q 544 659 544 1381 
z
M 1991 3584 
L 1991 3584 
z
" transform="scale(0.015625)"/>
       <path id="DejaVuSans-74" d="M 1172 4494 
L 1172 3500 
L 2356 3500 
L 2356 3053 
L 1172 3053 
L 1172 1153 
Q 1172 725 1289 603 
Q 1406 481 1766 481 
L 2356 481 
L 2356 0 
L 1766 0 
Q 1100 0 847 248 
Q 594 497 594 1153 
L 594 3053 
L 172 3053 
L 172 3500 
L 594 3500 
L 594 4494 
L 1172 4494 
z
" transform="scale(0.015625)"/>
      </defs>
      <use xlink:href="#DejaVuSans-50"/>
      <use xlink:href="#DejaVuSans-65" transform="translate(56.677734 0)"/>
      <use xlink:href="#DejaVuSans-73" transform="translate(118.201172 0)"/>
      <use xlink:href="#DejaVuSans-6f" transform="translate(170.300781 0)"/>
      <use xlink:href="#DejaVuSans-20" transform="translate(231.482422 0)"/>
      <use xlink:href="#DejaVuSans-64" transform="translate(263.269531 0)"/>
      <use xlink:href="#DejaVuSans-6f" transform="translate(326.746094 0)"/>
      <use xlink:href="#DejaVuSans-20" transform="translate(387.927734 0)"/>
      <use xlink:href="#DejaVuSans-43" transform="translate(419.714844 0)"/>
      <use xlink:href="#DejaVuSans-75" transform="translate(489.539062 0)"/>
      <use xlink:href="#DejaVuSans-73" transform="translate(552.917969 0)"/>
      <use xlink:href="#DejaVuSans-74" transform="translate(605.017578 0)"/>
      <use xlink:href="#DejaVuSans-6f" transform="translate(644.226562 0)"/>
     </g>
    </g>
   </g>
   <g id="matplotlib.axis_2">
    <g id="ytick_1">
     <g id="line2d_11">
      <path d="M 45.716875 349.643825 
L 741.306875 349.643825 
" clip-path="url(#pa6d09fa8a7)" style="fill: none; stroke-dasharray: 2.96,1.28; stroke-dashoffset: 0; stroke: #b0b0b0; stroke-opacity: 0.3; stroke-width: 0.8"/>
     </g>
     <g id="line2d_12">
      <defs>
       <path id="m2ca6143b48" d="M 0 0 
L -3.5 0 
" style="stroke: #000000; stroke-width: 0.8"/>
      </defs>
      <g>
       <use xlink:href="#m2ca6143b48" x="45.716875" y="349.643825" style="stroke: #000000; stroke-width: 0.8"/>
      </g>
     </g>
     <g id="text_7">
      <!-- 0.1 -->
      <g transform="translate(22.81375 353.443044) scale(0.1 -0.1)">
       <use xlink:href="#DejaVuSans-30"/>
       <use xlink:href="#DejaVuSans-2e" transform="translate(63.623047 0)"/>
       <use xlink:href="#DejaVuSans-31" transform="translate(95.410156 0)"/>
      </g>
     </g>
    </g>
    <g id="ytick_2">
     <g id="line2d_13">
      <path d="M 45.716875 301.797998 
L 741.306875 301.797998 
" clip-path="url(#pa6d09fa8a7)" style="fill: none; stroke-dasharray: 2.96,1.28; stroke-dashoffset: 0; stroke: #b0b0b0; stroke-opacity: 0.3; stroke-width: 0.8"/>
     </g>
     <g id="line2d_14">
      <g>
       <use xlink:href="#m2ca6143b48" x="45.716875" y="301.797998" style="stroke: #000000; stroke-width: 0.8"/>
      </g>
     </g>
     <g id="text_8">
      <!-- 0.2 -->
      <g transform="translate(22.81375 305.597217) scale(0.1 -0.1)">
       <use xlink:href="#DejaVuSans-30"/>
       <use xlink:href="#DejaVuSans-2e" transform="translate(63.623047 0)"/>
       <use xlink:href="#DejaVuSans-32" transform="translate(95.410156 0)"/>
      </g>
     </g>
    </g>
    <g id="ytick_3">
     <g id="line2d_15">
      <path d="M 45.716875 253.952172 
L 741.306875 253.952172 
" clip-path="url(#pa6d09fa8a7)" style="fill: none; stroke-dasharray: 2.96,1.28; stroke-dashoffset: 0; stroke: #b0b0b0; stroke-opacity: 0.3; stroke-width: 0.8"/>
     </g>
     <g id="line2d_16">
      <g>
       <use xlink:href="#m2ca6143b48" x="45.716875" y="253.952172" style="stroke: #000000; stroke-width: 0.8"/>
      </g>
     </g>
     <g id="text_9">
      <!-- 0.3 -->
      <g transform="translate(22.81375 257.751391) scale(0.1 -0.1)">
       <defs>
        <path id="DejaVuSans-33" d="M 2597 2516 
Q 3050 2419 3304 2112 
Q 3559 1806 3559 1356 
Q 3559 666 3084 287 
Q 2609 -91 1734 -91 
Q 1441 -91 1130 -33 
Q 819 25 488 141 
L 488 750 
Q 750 597 1062 519 
Q 1375 441 1716 441 
Q 2309 441 2620 675 
Q 2931 909 2931 1356 
Q 2931 1769 2642 2001 
Q 2353 2234 1838 2234 
L 1294 2234 
L 1294 2753 
L 1863 2753 
Q 2328 2753 2575 2939 
Q 2822 3125 2822 3475 
Q 2822 3834 2567 4026 
Q 2313 4219 1838 4219 
Q 1578 4219 1281 4162 
Q 984 4106 628 3988 
L 628 4550 
Q 988 4650 1302 4700 
Q 1616 4750 1894 4750 
Q 2613 4750 3031 4423 
Q 3450 4097 3450 3541 
Q 3450 3153 3228 2886 
Q 3006 2619 2597 2516 
z
" transform="scale(0.015625)"/>
       </defs>
       <use xlink:href="#DejaVuSans-30"/>
       <use xlink:href="#DejaVuSans-2e" transform="translate(63.623047 0)"/>
       <use xlink:href="#DejaVuSans-33" transform="translate(95.410156 0)"/>
      </g>
     </g>
    </g>
    <g id="ytick_4">
     <g id="line2d_17">
      <path d="M 45.716875 206.106345 
L 741.306875 206.106345 
" clip-path="url(#pa6d09fa8a7)" style="fill: none; stroke-dasharray: 2.96,1.28; stroke-dashoffset: 0; stroke: #b0b0b0; stroke-opacity: 0.3; stroke-width: 0.8"/>
     </g>
     <g id="line2d_18">
      <g>
       <use xlink:href="#m2ca6143b48" x="45.716875" y="206.106345" style="stroke: #000000; stroke-width: 0.8"/>
      </g>
     </g>
     <g id="text_10">
      <!-- 0.4 -->
      <g transform="translate(22.81375 209.905564) scale(0.1 -0.1)">
       <use xlink:href="#DejaVuSans-30"/>
       <use xlink:href="#DejaVuSans-2e" transform="translate(63.623047 0)"/>
       <use xlink:href="#DejaVuSans-34" transform="translate(95.410156 0)"/>
      </g>
     </g>
    </g>
    <g id="ytick_5">
     <g id="line2d_19">
      <path d="M 45.716875 158.260519 
L 741.306875 158.260519 
" clip-path="url(#pa6d09fa8a7)" style="fill: none; stroke-dasharray: 2.96,1.28; stroke-dashoffset: 0; stroke: #b0b0b0; stroke-opacity: 0.3; stroke-width: 0.8"/>
     </g>
     <g id="line2d_20">
      <g>
       <use xlink:href="#m2ca6143b48" x="45.716875" y="158.260519" style="stroke: #000000; stroke-width: 0.8"/>
      </g>
     </g>
     <g id="text_11">
      <!-- 0.5 -->
      <g transform="translate(22.81375 162.059737) scale(0.1 -0.1)">
       <defs>
        <path id="DejaVuSans-35" d="M 691 4666 
L 3169 4666 
L 3169 4134 
L 1269 4134 
L 1269 2991 
Q 1406 3038 1543 3061 
Q 1681 3084 1819 3084 
Q 2600 3084 3056 2656 
Q 3513 2228 3513 1497 
Q 3513 744 3044 326 
Q 2575 -91 1722 -91 
Q 1428 -91 1123 -41 
Q 819 9 494 109 
L 494 744 
Q 775 591 1075 516 
Q 1375 441 1709 441 
Q 2250 441 2565 725 
Q 2881 1009 2881 1497 
Q 2881 1984 2565 2268 
Q 2250 2553 1709 2553 
Q 1456 2553 1204 2497 
Q 953 2441 691 2322 
L 691 4666 
z
" transform="scale(0.015625)"/>
       </defs>
       <use xlink:href="#DejaVuSans-30"/>
       <use xlink:href="#DejaVuSans-2e" transform="translate(63.623047 0)"/>
       <use xlink:href="#DejaVuSans-35" transform="translate(95.410156 0)"/>
      </g>
     </g>
    </g>
    <g id="ytick_6">
     <g id="line2d_21">
      <path d="M 45.716875 110.414692 
L 741.306875 110.414692 
" clip-path="url(#pa6d09fa8a7)" style="fill: none; stroke-dasharray: 2.96,1.28; stroke-dashoffset: 0; stroke: #b0b0b0; stroke-opacity: 0.3; stroke-width: 0.8"/>
     </g>
     <g id="line2d_22">
      <g>
       <use xlink:href="#m2ca6143b48" x="45.716875" y="110.414692" style="stroke: #000000; stroke-width: 0.8"/>
      </g>
     </g>
     <g id="text_12">
      <!-- 0.6 -->
      <g transform="translate(22.81375 114.213911) scale(0.1 -0.1)">
       <use xlink:href="#DejaVuSans-30"/>
       <use xlink:href="#DejaVuSans-2e" transform="translate(63.623047 0)"/>
       <use xlink:href="#DejaVuSans-36" transform="translate(95.410156 0)"/>
      </g>
     </g>
    </g>
    <g id="ytick_7">
     <g id="line2d_23">
      <path d="M 45.716875 62.568865 
L 741.306875 62.568865 
" clip-path="url(#pa6d09fa8a7)" style="fill: none; stroke-dasharray: 2.96,1.28; stroke-dashoffset: 0; stroke: #b0b0b0; stroke-opacity: 0.3; stroke-width: 0.8"/>
     </g>
     <g id="line2d_24">
      <g>
       <use xlink:href="#m2ca6143b48" x="45.716875" y="62.568865" style="stroke: #000000; stroke-width: 0.8"/>
      </g>
     </g>
     <g id="text_13">
      <!-- 0.7 -->
      <g transform="translate(22.81375 66.368084) scale(0.1 -0.1)">
       <defs>
        <path id="DejaVuSans-37" d="M 525 4666 
L 3525 4666 
L 3525 4397 
L 1831 0 
L 1172 0 
L 2766 4134 
L 525 4134 
L 525 4666 
z
" transform="scale(0.015625)"/>
       </defs>
       <use xlink:href="#DejaVuSans-30"/>
       <use xlink:href="#DejaVuSans-2e" transform="translate(63.623047 0)"/>
       <use xlink:href="#DejaVuSans-37" transform="translate(95.410156 0)"/>
      </g>
     </g>
    </g>
    <g id="text_14">
     <!-- F1-Score -->
     <g transform="translate(16.318125 229.85375) rotate(-90) scale(0.12 -0.12)">
      <defs>
       <path id="DejaVuSans-46" d="M 628 4666 
L 3309 4666 
L 3309 4134 
L 1259 4134 
L 1259 2759 
L 3109 2759 
L 3109 2228 
L 1259 2228 
L 1259 0 
L 628 0 
L 628 4666 
z
" transform="scale(0.015625)"/>
       <path id="DejaVuSans-2d" d="M 313 2009 
L 1997 2009 
L 1997 1497 
L 313 1497 
L 313 2009 
z
" transform="scale(0.015625)"/>
       <path id="DejaVuSans-53" d="M 3425 4513 
L 3425 3897 
Q 3066 4069 2747 4153 
Q 2428 4238 2131 4238 
Q 1616 4238 1336 4038 
Q 1056 3838 1056 3469 
Q 1056 3159 1242 3001 
Q 1428 2844 1947 2747 
L 2328 2669 
Q 3034 2534 3370 2195 
Q 3706 1856 3706 1288 
Q 3706 609 3251 259 
Q 2797 -91 1919 -91 
Q 1588 -91 1214 -16 
Q 841 59 441 206 
L 441 856 
Q 825 641 1194 531 
Q 1563 422 1919 422 
Q 2459 422 2753 634 
Q 3047 847 3047 1241 
Q 3047 1584 2836 1778 
Q 2625 1972 2144 2069 
L 1759 2144 
Q 1053 2284 737 2584 
Q 422 2884 422 3419 
Q 422 4038 858 4394 
Q 1294 4750 2059 4750 
Q 2388 4750 2728 4690 
Q 3069 4631 3425 4513 
z
" transform="scale(0.015625)"/>
       <path id="DejaVuSans-63" d="M 3122 3366 
L 3122 2828 
Q 2878 2963 2633 3030 
Q 2388 3097 2138 3097 
Q 1578 3097 1268 2742 
Q 959 2388 959 1747 
Q 959 1106 1268 751 
Q 1578 397 2138 397 
Q 2388 397 2633 464 
Q 2878 531 3122 666 
L 3122 134 
Q 2881 22 2623 -34 
Q 2366 -91 2075 -91 
Q 1284 -91 818 406 
Q 353 903 353 1747 
Q 353 2603 823 3093 
Q 1294 3584 2113 3584 
Q 2378 3584 2631 3529 
Q 2884 3475 3122 3366 
z
" transform="scale(0.015625)"/>
       <path id="DejaVuSans-72" d="M 2631 2963 
Q 2534 3019 2420 3045 
Q 2306 3072 2169 3072 
Q 1681 3072 1420 2755 
Q 1159 2438 1159 1844 
L 1159 0 
L 581 0 
L 581 3500 
L 1159 3500 
L 1159 2956 
Q 1341 3275 1631 3429 
Q 1922 3584 2338 3584 
Q 2397 3584 2469 3576 
Q 2541 3569 2628 3553 
L 2631 2963 
z
" transform="scale(0.015625)"/>
      </defs>
      <use xlink:href="#DejaVuSans-46"/>
      <use xlink:href="#DejaVuSans-31" transform="translate(57.519531 0)"/>
      <use xlink:href="#DejaVuSans-2d" transform="translate(121.142578 0)"/>
      <use xlink:href="#DejaVuSans-53" transform="translate(157.226562 0)"/>
      <use xlink:href="#DejaVuSans-63" transform="translate(220.703125 0)"/>
      <use xlink:href="#DejaVuSans-6f" transform="translate(275.683594 0)"/>
      <use xlink:href="#DejaVuSans-72" transform="translate(336.865234 0)"/>
      <use xlink:href="#DejaVuSans-65" transform="translate(375.728516 0)"/>
     </g>
    </g>
   </g>
   <g id="line2d_25">
    <path d="M 77.334602 367.054176 
L 147.596218 365.283112 
L 217.857835 346.029105 
L 288.119451 321.390656 
L 358.381067 306.718563 
L 428.642683 235.809127 
L 498.904299 97.414389 
L 569.165915 90.692582 
L 639.427532 82.425731 
L 709.689148 70.844087 
" clip-path="url(#pa6d09fa8a7)" style="fill: none; stroke: #ff8c00; stroke-opacity: 0.8; stroke-width: 2; stroke-linecap: square"/>
    <defs>
     <path id="mcf6774875c" d="M -0 4 
L 4 -4 
L -4 -4 
z
" style="stroke: #ff8c00; stroke-opacity: 0.8; stroke-linejoin: miter"/>
    </defs>
    <g clip-path="url(#pa6d09fa8a7)">
     <use xlink:href="#mcf6774875c" x="77.334602" y="367.054176" style="fill: #ff8c00; fill-opacity: 0.8; stroke: #ff8c00; stroke-opacity: 0.8; stroke-linejoin: miter"/>
     <use xlink:href="#mcf6774875c" x="147.596218" y="365.283112" style="fill: #ff8c00; fill-opacity: 0.8; stroke: #ff8c00; stroke-opacity: 0.8; stroke-linejoin: miter"/>
     <use xlink:href="#mcf6774875c" x="217.857835" y="346.029105" style="fill: #ff8c00; fill-opacity: 0.8; stroke: #ff8c00; stroke-opacity: 0.8; stroke-linejoin: miter"/>
     <use xlink:href="#mcf6774875c" x="288.119451" y="321.390656" style="fill: #ff8c00; fill-opacity: 0.8; stroke: #ff8c00; stroke-opacity: 0.8; stroke-linejoin: miter"/>
     <use xlink:href="#mcf6774875c" x="358.381067" y="306.718563" style="fill: #ff8c00; fill-opacity: 0.8; stroke: #ff8c00; stroke-opacity: 0.8; stroke-linejoin: miter"/>
     <use xlink:href="#mcf6774875c" x="428.642683" y="235.809127" style="fill: #ff8c00; fill-opacity: 0.8; stroke: #ff8c00; stroke-opacity: 0.8; stroke-linejoin: miter"/>
     <use xlink:href="#mcf6774875c" x="498.904299" y="97.414389" style="fill: #ff8c00; fill-opacity: 0.8; stroke: #ff8c00; stroke-opacity: 0.8; stroke-linejoin: miter"/>
     <use xlink:href="#mcf6774875c" x="569.165915" y="90.692582" style="fill: #ff8c00; fill-opacity: 0.8; stroke: #ff8c00; stroke-opacity: 0.8; stroke-linejoin: miter"/>
     <use xlink:href="#mcf6774875c" x="639.427532" y="82.425731" style="fill: #ff8c00; fill-opacity: 0.8; stroke: #ff8c00; stroke-opacity: 0.8; stroke-linejoin: miter"/>
     <use xlink:href="#mcf6774875c" x="709.689148" y="70.844087" style="fill: #ff8c00; fill-opacity: 0.8; stroke: #ff8c00; stroke-opacity: 0.8; stroke-linejoin: miter"/>
    </g>
   </g>
   <g id="line2d_26">
    <path d="M 77.334602 367.026347 
L 147.596218 365.769913 
L 217.857835 352.164236 
L 288.119451 341.402503 
L 358.381067 316.670399 
L 428.642683 199.767927 
L 498.904299 69.414802 
L 569.165915 57.481379 
L 639.427532 58.595188 
L 709.689148 59.132288 
" clip-path="url(#pa6d09fa8a7)" style="fill: none; stroke: #00ffff; stroke-opacity: 0.8; stroke-width: 2; stroke-linecap: square"/>
    <defs>
     <path id="mde672a5a9c" d="M 0 -4 
L -3.464102 -2 
L -3.464102 2 
L -0 4 
L 3.464102 2 
L 3.464102 -2 
z
" style="stroke: #00ffff; stroke-opacity: 0.8; stroke-linejoin: miter"/>
    </defs>
    <g clip-path="url(#pa6d09fa8a7)">
     <use xlink:href="#mde672a5a9c" x="77.334602" y="367.026347" style="fill: #00ffff; fill-opacity: 0.8; stroke: #00ffff; stroke-opacity: 0.8; stroke-linejoin: miter"/>
     <use xlink:href="#mde672a5a9c" x="147.596218" y="365.769913" style="fill: #00ffff; fill-opacity: 0.8; stroke: #00ffff; stroke-opacity: 0.8; stroke-linejoin: miter"/>
     <use xlink:href="#mde672a5a9c" x="217.857835" y="352.164236" style="fill: #00ffff; fill-opacity: 0.8; stroke: #00ffff; stroke-opacity: 0.8; stroke-linejoin: miter"/>
     <use xlink:href="#mde672a5a9c" x="288.119451" y="341.402503" style="fill: #00ffff; fill-opacity: 0.8; stroke: #00ffff; stroke-opacity: 0.8; stroke-linejoin: miter"/>
     <use xlink:href="#mde672a5a9c" x="358.381067" y="316.670399" style="fill: #00ffff; fill-opacity: 0.8; stroke: #00ffff; stroke-opacity: 0.8; stroke-linejoin: miter"/>
     <use xlink:href="#mde672a5a9c" x="428.642683" y="199.767927" style="fill: #00ffff; fill-opacity: 0.8; stroke: #00ffff; stroke-opacity: 0.8; stroke-linejoin: miter"/>
     <use xlink:href="#mde672a5a9c" x="498.904299" y="69.414802" style="fill: #00ffff; fill-opacity: 0.8; stroke: #00ffff; stroke-opacity: 0.8; stroke-linejoin: miter"/>
     <use xlink:href="#mde672a5a9c" x="569.165915" y="57.481379" style="fill: #00ffff; fill-opacity: 0.8; stroke: #00ffff; stroke-opacity: 0.8; stroke-linejoin: miter"/>
     <use xlink:href="#mde672a5a9c" x="639.427532" y="58.595188" style="fill: #00ffff; fill-opacity: 0.8; stroke: #00ffff; stroke-opacity: 0.8; stroke-linejoin: miter"/>
     <use xlink:href="#mde672a5a9c" x="709.689148" y="59.132288" style="fill: #00ffff; fill-opacity: 0.8; stroke: #00ffff; stroke-opacity: 0.8; stroke-linejoin: miter"/>
    </g>
   </g>
   <g id="line2d_27">
    <path d="M 77.334602 367.054176 
L 147.596218 367.054176 
L 217.857835 344.840727 
L 288.119451 338.998903 
L 358.381067 318.509435 
L 428.642683 253.942518 
L 498.904299 101.973538 
L 569.165915 72.832858 
L 639.427532 66.340232 
L 709.689148 65.751602 
" clip-path="url(#pa6d09fa8a7)" style="fill: none; stroke: #0000ff; stroke-opacity: 0.8; stroke-width: 2; stroke-linecap: square"/>
    <defs>
     <path id="mffefa40afa" d="M 0 -4 
L -4 4 
L 4 4 
z
" style="stroke: #0000ff; stroke-opacity: 0.8; stroke-linejoin: miter"/>
    </defs>
    <g clip-path="url(#pa6d09fa8a7)">
     <use xlink:href="#mffefa40afa" x="77.334602" y="367.054176" style="fill: #0000ff; fill-opacity: 0.8; stroke: #0000ff; stroke-opacity: 0.8; stroke-linejoin: miter"/>
     <use xlink:href="#mffefa40afa" x="147.596218" y="367.054176" style="fill: #0000ff; fill-opacity: 0.8; stroke: #0000ff; stroke-opacity: 0.8; stroke-linejoin: miter"/>
     <use xlink:href="#mffefa40afa" x="217.857835" y="344.840727" style="fill: #0000ff; fill-opacity: 0.8; stroke: #0000ff; stroke-opacity: 0.8; stroke-linejoin: miter"/>
     <use xlink:href="#mffefa40afa" x="288.119451" y="338.998903" style="fill: #0000ff; fill-opacity: 0.8; stroke: #0000ff; stroke-opacity: 0.8; stroke-linejoin: miter"/>
     <use xlink:href="#mffefa40afa" x="358.381067" y="318.509435" style="fill: #0000ff; fill-opacity: 0.8; stroke: #0000ff; stroke-opacity: 0.8; stroke-linejoin: miter"/>
     <use xlink:href="#mffefa40afa" x="428.642683" y="253.942518" style="fill: #0000ff; fill-opacity: 0.8; stroke: #0000ff; stroke-opacity: 0.8; stroke-linejoin: miter"/>
     <use xlink:href="#mffefa40afa" x="498.904299" y="101.973538" style="fill: #0000ff; fill-opacity: 0.8; stroke: #0000ff; stroke-opacity: 0.8; stroke-linejoin: miter"/>
     <use xlink:href="#mffefa40afa" x="569.165915" y="72.832858" style="fill: #0000ff; fill-opacity: 0.8; stroke: #0000ff; stroke-opacity: 0.8; stroke-linejoin: miter"/>
     <use xlink:href="#mffefa40afa" x="639.427532" y="66.340232" style="fill: #0000ff; fill-opacity: 0.8; stroke: #0000ff; stroke-opacity: 0.8; stroke-linejoin: miter"/>
     <use xlink:href="#mffefa40afa" x="709.689148" y="65.751602" style="fill: #0000ff; fill-opacity: 0.8; stroke: #0000ff; stroke-opacity: 0.8; stroke-linejoin: miter"/>
    </g>
   </g>
   <g id="line2d_28">
    <path d="M 77.334602 342.17017 
L 147.596218 317.51512 
L 217.857835 270.630412 
L 288.119451 223.787626 
L 358.381067 151.699649 
L 428.642683 88.481711 
L 498.904299 64.597816 
L 569.165915 50.779427 
L 639.427532 51.240109 
L 709.689148 53.189422 
" clip-path="url(#pa6d09fa8a7)" style="fill: none; stroke: #ff1493; stroke-opacity: 0.8; stroke-width: 2; stroke-linecap: square"/>
    <defs>
     <path id="m078efcbc1a" d="M -1.530734 -3.695518 
L -3.695518 -1.530734 
L -3.695518 1.530734 
L -1.530734 3.695518 
L 1.530734 3.695518 
L 3.695518 1.530734 
L 3.695518 -1.530734 
L 1.530734 -3.695518 
z
" style="stroke: #ff1493; stroke-opacity: 0.8; stroke-linejoin: miter"/>
    </defs>
    <g clip-path="url(#pa6d09fa8a7)">
     <use xlink:href="#m078efcbc1a" x="77.334602" y="342.17017" style="fill: #ff1493; fill-opacity: 0.8; stroke: #ff1493; stroke-opacity: 0.8; stroke-linejoin: miter"/>
     <use xlink:href="#m078efcbc1a" x="147.596218" y="317.51512" style="fill: #ff1493; fill-opacity: 0.8; stroke: #ff1493; stroke-opacity: 0.8; stroke-linejoin: miter"/>
     <use xlink:href="#m078efcbc1a" x="217.857835" y="270.630412" style="fill: #ff1493; fill-opacity: 0.8; stroke: #ff1493; stroke-opacity: 0.8; stroke-linejoin: miter"/>
     <use xlink:href="#m078efcbc1a" x="288.119451" y="223.787626" style="fill: #ff1493; fill-opacity: 0.8; stroke: #ff1493; stroke-opacity: 0.8; stroke-linejoin: miter"/>
     <use xlink:href="#m078efcbc1a" x="358.381067" y="151.699649" style="fill: #ff1493; fill-opacity: 0.8; stroke: #ff1493; stroke-opacity: 0.8; stroke-linejoin: miter"/>
     <use xlink:href="#m078efcbc1a" x="428.642683" y="88.481711" style="fill: #ff1493; fill-opacity: 0.8; stroke: #ff1493; stroke-opacity: 0.8; stroke-linejoin: miter"/>
     <use xlink:href="#m078efcbc1a" x="498.904299" y="64.597816" style="fill: #ff1493; fill-opacity: 0.8; stroke: #ff1493; stroke-opacity: 0.8; stroke-linejoin: miter"/>
     <use xlink:href="#m078efcbc1a" x="569.165915" y="50.779427" style="fill: #ff1493; fill-opacity: 0.8; stroke: #ff1493; stroke-opacity: 0.8; stroke-linejoin: miter"/>
     <use xlink:href="#m078efcbc1a" x="639.427532" y="51.240109" style="fill: #ff1493; fill-opacity: 0.8; stroke: #ff1493; stroke-opacity: 0.8; stroke-linejoin: miter"/>
     <use xlink:href="#m078efcbc1a" x="709.689148" y="53.189422" style="fill: #ff1493; fill-opacity: 0.8; stroke: #ff1493; stroke-opacity: 0.8; stroke-linejoin: miter"/>
    </g>
   </g>
   <g id="line2d_29">
    <path d="M 77.334602 328.068699 
L 147.596218 310.607615 
L 217.857835 266.644285 
L 288.119451 224.529804 
L 358.381067 155.36074 
L 428.642683 91.671517 
L 498.904299 67.995261 
L 569.165915 52.757371 
L 639.427532 48.899033 
L 709.689148 47.334134 
" clip-path="url(#pa6d09fa8a7)" style="fill: none; stroke: #32cd32; stroke-opacity: 0.8; stroke-width: 2; stroke-linecap: square"/>
    <defs>
     <path id="mf195dde178" d="M -4 -0 
L 4 4 
L 4 -4 
z
" style="stroke: #32cd32; stroke-opacity: 0.8; stroke-linejoin: miter"/>
    </defs>
    <g clip-path="url(#pa6d09fa8a7)">
     <use xlink:href="#mf195dde178" x="77.334602" y="328.068699" style="fill: #32cd32; fill-opacity: 0.8; stroke: #32cd32; stroke-opacity: 0.8; stroke-linejoin: miter"/>
     <use xlink:href="#mf195dde178" x="147.596218" y="310.607615" style="fill: #32cd32; fill-opacity: 0.8; stroke: #32cd32; stroke-opacity: 0.8; stroke-linejoin: miter"/>
     <use xlink:href="#mf195dde178" x="217.857835" y="266.644285" style="fill: #32cd32; fill-opacity: 0.8; stroke: #32cd32; stroke-opacity: 0.8; stroke-linejoin: miter"/>
     <use xlink:href="#mf195dde178" x="288.119451" y="224.529804" style="fill: #32cd32; fill-opacity: 0.8; stroke: #32cd32; stroke-opacity: 0.8; stroke-linejoin: miter"/>
     <use xlink:href="#mf195dde178" x="358.381067" y="155.36074" style="fill: #32cd32; fill-opacity: 0.8; stroke: #32cd32; stroke-opacity: 0.8; stroke-linejoin: miter"/>
     <use xlink:href="#mf195dde178" x="428.642683" y="91.671517" style="fill: #32cd32; fill-opacity: 0.8; stroke: #32cd32; stroke-opacity: 0.8; stroke-linejoin: miter"/>
     <use xlink:href="#mf195dde178" x="498.904299" y="67.995261" style="fill: #32cd32; fill-opacity: 0.8; stroke: #32cd32; stroke-opacity: 0.8; stroke-linejoin: miter"/>
     <use xlink:href="#mf195dde178" x="569.165915" y="52.757371" style="fill: #32cd32; fill-opacity: 0.8; stroke: #32cd32; stroke-opacity: 0.8; stroke-linejoin: miter"/>
     <use xlink:href="#mf195dde178" x="639.427532" y="48.899033" style="fill: #32cd32; fill-opacity: 0.8; stroke: #32cd32; stroke-opacity: 0.8; stroke-linejoin: miter"/>
     <use xlink:href="#mf195dde178" x="709.689148" y="47.334134" style="fill: #32cd32; fill-opacity: 0.8; stroke: #32cd32; stroke-opacity: 0.8; stroke-linejoin: miter"/>
    </g>
   </g>
   <g id="line2d_30">
    <path d="M 77.334602 142.508871 
L 147.596218 142.508871 
L 217.857835 142.508871 
L 288.119451 83.838902 
L 358.381067 83.838902 
L 428.642683 83.838902 
L 498.904299 40.181449 
L 569.165915 40.181449 
L 639.427532 40.181449 
L 709.689148 48.378687 
" clip-path="url(#pa6d09fa8a7)" style="fill: none; stroke: #4b0082; stroke-opacity: 0.8; stroke-width: 2; stroke-linecap: square"/>
    <defs>
     <path id="mee1ff47a41" d="M 4 0 
L -4 -4 
L -4 4 
z
" style="stroke: #4b0082; stroke-opacity: 0.8; stroke-linejoin: miter"/>
    </defs>
    <g clip-path="url(#pa6d09fa8a7)">
     <use xlink:href="#mee1ff47a41" x="77.334602" y="142.508871" style="fill: #4b0082; fill-opacity: 0.8; stroke: #4b0082; stroke-opacity: 0.8; stroke-linejoin: miter"/>
     <use xlink:href="#mee1ff47a41" x="147.596218" y="142.508871" style="fill: #4b0082; fill-opacity: 0.8; stroke: #4b0082; stroke-opacity: 0.8; stroke-linejoin: miter"/>
     <use xlink:href="#mee1ff47a41" x="217.857835" y="142.508871" style="fill: #4b0082; fill-opacity: 0.8; stroke: #4b0082; stroke-opacity: 0.8; stroke-linejoin: miter"/>
     <use xlink:href="#mee1ff47a41" x="288.119451" y="83.838902" style="fill: #4b0082; fill-opacity: 0.8; stroke: #4b0082; stroke-opacity: 0.8; stroke-linejoin: miter"/>
     <use xlink:href="#mee1ff47a41" x="358.381067" y="83.838902" style="fill: #4b0082; fill-opacity: 0.8; stroke: #4b0082; stroke-opacity: 0.8; stroke-linejoin: miter"/>
     <use xlink:href="#mee1ff47a41" x="428.642683" y="83.838902" style="fill: #4b0082; fill-opacity: 0.8; stroke: #4b0082; stroke-opacity: 0.8; stroke-linejoin: miter"/>
     <use xlink:href="#mee1ff47a41" x="498.904299" y="40.181449" style="fill: #4b0082; fill-opacity: 0.8; stroke: #4b0082; stroke-opacity: 0.8; stroke-linejoin: miter"/>
     <use xlink:href="#mee1ff47a41" x="569.165915" y="40.181449" style="fill: #4b0082; fill-opacity: 0.8; stroke: #4b0082; stroke-opacity: 0.8; stroke-linejoin: miter"/>
     <use xlink:href="#mee1ff47a41" x="639.427532" y="40.181449" style="fill: #4b0082; fill-opacity: 0.8; stroke: #4b0082; stroke-opacity: 0.8; stroke-linejoin: miter"/>
     <use xlink:href="#mee1ff47a41" x="709.689148" y="48.378687" style="fill: #4b0082; fill-opacity: 0.8; stroke: #4b0082; stroke-opacity: 0.8; stroke-linejoin: miter"/>
    </g>
   </g>
   <g id="line2d_31">
    <path d="M 77.334602 367.054176 
L 147.596218 363.926921 
L 217.857835 345.139437 
L 288.119451 300.554659 
L 358.381067 292.247849 
L 428.642683 145.177117 
L 498.904299 83.795114 
L 569.165915 74.901162 
L 639.427532 82.138529 
L 709.689148 83.069982 
" clip-path="url(#pa6d09fa8a7)" style="fill: none; stroke: #ff00ff; stroke-opacity: 0.8; stroke-width: 2; stroke-linecap: square"/>
    <defs>
     <path id="m4649832bfd" d="M 0 5.656854 
L 5.656854 0 
L 0 -5.656854 
L -5.656854 0 
z
" style="stroke: #ff00ff; stroke-opacity: 0.8; stroke-linejoin: miter"/>
    </defs>
    <g clip-path="url(#pa6d09fa8a7)">
     <use xlink:href="#m4649832bfd" x="77.334602" y="367.054176" style="fill: #ff00ff; fill-opacity: 0.8; stroke: #ff00ff; stroke-opacity: 0.8; stroke-linejoin: miter"/>
     <use xlink:href="#m4649832bfd" x="147.596218" y="363.926921" style="fill: #ff00ff; fill-opacity: 0.8; stroke: #ff00ff; stroke-opacity: 0.8; stroke-linejoin: miter"/>
     <use xlink:href="#m4649832bfd" x="217.857835" y="345.139437" style="fill: #ff00ff; fill-opacity: 0.8; stroke: #ff00ff; stroke-opacity: 0.8; stroke-linejoin: miter"/>
     <use xlink:href="#m4649832bfd" x="288.119451" y="300.554659" style="fill: #ff00ff; fill-opacity: 0.8; stroke: #ff00ff; stroke-opacity: 0.8; stroke-linejoin: miter"/>
     <use xlink:href="#m4649832bfd" x="358.381067" y="292.247849" style="fill: #ff00ff; fill-opacity: 0.8; stroke: #ff00ff; stroke-opacity: 0.8; stroke-linejoin: miter"/>
     <use xlink:href="#m4649832bfd" x="428.642683" y="145.177117" style="fill: #ff00ff; fill-opacity: 0.8; stroke: #ff00ff; stroke-opacity: 0.8; stroke-linejoin: miter"/>
     <use xlink:href="#m4649832bfd" x="498.904299" y="83.795114" style="fill: #ff00ff; fill-opacity: 0.8; stroke: #ff00ff; stroke-opacity: 0.8; stroke-linejoin: miter"/>
     <use xlink:href="#m4649832bfd" x="569.165915" y="74.901162" style="fill: #ff00ff; fill-opacity: 0.8; stroke: #ff00ff; stroke-opacity: 0.8; stroke-linejoin: miter"/>
     <use xlink:href="#m4649832bfd" x="639.427532" y="82.138529" style="fill: #ff00ff; fill-opacity: 0.8; stroke: #ff00ff; stroke-opacity: 0.8; stroke-linejoin: miter"/>
     <use xlink:href="#m4649832bfd" x="709.689148" y="83.069982" style="fill: #ff00ff; fill-opacity: 0.8; stroke: #ff00ff; stroke-opacity: 0.8; stroke-linejoin: miter"/>
    </g>
   </g>
   <g id="line2d_32">
    <path d="M 77.334602 49.149093 
L 147.596218 49.149093 
L 217.857835 49.149093 
L 288.119451 49.149093 
L 358.381067 49.149093 
L 428.642683 49.149093 
L 498.904299 49.149093 
L 569.165915 49.149093 
L 639.427532 49.149093 
L 709.689148 49.149093 
" clip-path="url(#pa6d09fa8a7)" style="fill: none; stroke: #ff4500; stroke-opacity: 0.8; stroke-width: 2; stroke-linecap: square"/>
    <defs>
     <path id="mab40fa8126" d="M -4 0 
L 4 0 
M 0 4 
L 0 -4 
" style="stroke: #ff4500; stroke-opacity: 0.8"/>
    </defs>
    <g clip-path="url(#pa6d09fa8a7)">
     <use xlink:href="#mab40fa8126" x="77.334602" y="49.149093" style="fill: #ff4500; fill-opacity: 0.8; stroke: #ff4500; stroke-opacity: 0.8"/>
     <use xlink:href="#mab40fa8126" x="147.596218" y="49.149093" style="fill: #ff4500; fill-opacity: 0.8; stroke: #ff4500; stroke-opacity: 0.8"/>
     <use xlink:href="#mab40fa8126" x="217.857835" y="49.149093" style="fill: #ff4500; fill-opacity: 0.8; stroke: #ff4500; stroke-opacity: 0.8"/>
     <use xlink:href="#mab40fa8126" x="288.119451" y="49.149093" style="fill: #ff4500; fill-opacity: 0.8; stroke: #ff4500; stroke-opacity: 0.8"/>
     <use xlink:href="#mab40fa8126" x="358.381067" y="49.149093" style="fill: #ff4500; fill-opacity: 0.8; stroke: #ff4500; stroke-opacity: 0.8"/>
     <use xlink:href="#mab40fa8126" x="428.642683" y="49.149093" style="fill: #ff4500; fill-opacity: 0.8; stroke: #ff4500; stroke-opacity: 0.8"/>
     <use xlink:href="#mab40fa8126" x="498.904299" y="49.149093" style="fill: #ff4500; fill-opacity: 0.8; stroke: #ff4500; stroke-opacity: 0.8"/>
     <use xlink:href="#mab40fa8126" x="569.165915" y="49.149093" style="fill: #ff4500; fill-opacity: 0.8; stroke: #ff4500; stroke-opacity: 0.8"/>
     <use xlink:href="#mab40fa8126" x="639.427532" y="49.149093" style="fill: #ff4500; fill-opacity: 0.8; stroke: #ff4500; stroke-opacity: 0.8"/>
     <use xlink:href="#mab40fa8126" x="709.689148" y="49.149093" style="fill: #ff4500; fill-opacity: 0.8; stroke: #ff4500; stroke-opacity: 0.8"/>
    </g>
   </g>
   <g id="line2d_33">
    <path d="M 77.334602 367.054176 
L 147.596218 356.721616 
L 217.857835 324.881229 
L 288.119451 268.928687 
L 358.381067 130.031077 
L 428.642683 64.841636 
L 498.904299 51.103275 
L 569.165915 45.331368 
L 639.427532 45.634965 
L 709.689148 52.626972 
" clip-path="url(#pa6d09fa8a7)" style="fill: none; stroke: #ffd700; stroke-opacity: 0.8; stroke-width: 2; stroke-linecap: square"/>
    <defs>
     <path id="m8e59dba257" d="M 0 -4 
L -0.898056 -1.236068 
L -3.804226 -1.236068 
L -1.453085 0.472136 
L -2.351141 3.236068 
L -0 1.527864 
L 2.351141 3.236068 
L 1.453085 0.472136 
L 3.804226 -1.236068 
L 0.898056 -1.236068 
z
" style="stroke: #ffd700; stroke-opacity: 0.8; stroke-linejoin: bevel"/>
    </defs>
    <g clip-path="url(#pa6d09fa8a7)">
     <use xlink:href="#m8e59dba257" x="77.334602" y="367.054176" style="fill: #ffd700; fill-opacity: 0.8; stroke: #ffd700; stroke-opacity: 0.8; stroke-linejoin: bevel"/>
     <use xlink:href="#m8e59dba257" x="147.596218" y="356.721616" style="fill: #ffd700; fill-opacity: 0.8; stroke: #ffd700; stroke-opacity: 0.8; stroke-linejoin: bevel"/>
     <use xlink:href="#m8e59dba257" x="217.857835" y="324.881229" style="fill: #ffd700; fill-opacity: 0.8; stroke: #ffd700; stroke-opacity: 0.8; stroke-linejoin: bevel"/>
     <use xlink:href="#m8e59dba257" x="288.119451" y="268.928687" style="fill: #ffd700; fill-opacity: 0.8; stroke: #ffd700; stroke-opacity: 0.8; stroke-linejoin: bevel"/>
     <use xlink:href="#m8e59dba257" x="358.381067" y="130.031077" style="fill: #ffd700; fill-opacity: 0.8; stroke: #ffd700; stroke-opacity: 0.8; stroke-linejoin: bevel"/>
     <use xlink:href="#m8e59dba257" x="428.642683" y="64.841636" style="fill: #ffd700; fill-opacity: 0.8; stroke: #ffd700; stroke-opacity: 0.8; stroke-linejoin: bevel"/>
     <use xlink:href="#m8e59dba257" x="498.904299" y="51.103275" style="fill: #ffd700; fill-opacity: 0.8; stroke: #ffd700; stroke-opacity: 0.8; stroke-linejoin: bevel"/>
     <use xlink:href="#m8e59dba257" x="569.165915" y="45.331368" style="fill: #ffd700; fill-opacity: 0.8; stroke: #ffd700; stroke-opacity: 0.8; stroke-linejoin: bevel"/>
     <use xlink:href="#m8e59dba257" x="639.427532" y="45.634965" style="fill: #ffd700; fill-opacity: 0.8; stroke: #ffd700; stroke-opacity: 0.8; stroke-linejoin: bevel"/>
     <use xlink:href="#m8e59dba257" x="709.689148" y="52.626972" style="fill: #ffd700; fill-opacity: 0.8; stroke: #ffd700; stroke-opacity: 0.8; stroke-linejoin: bevel"/>
    </g>
   </g>
   <g id="patch_3">
    <path d="M 45.716875 383.397812 
L 45.716875 23.837812 
" style="fill: none; stroke: #000000; stroke-width: 0.8; stroke-linejoin: miter; stroke-linecap: square"/>
   </g>
   <g id="patch_4">
    <path d="M 741.306875 383.397812 
L 741.306875 23.837812 
" style="fill: none; stroke: #000000; stroke-width: 0.8; stroke-linejoin: miter; stroke-linecap: square"/>
   </g>
   <g id="patch_5">
    <path d="M 45.716875 383.397812 
L 741.306875 383.397812 
" style="fill: none; stroke: #000000; stroke-width: 0.8; stroke-linejoin: miter; stroke-linecap: square"/>
   </g>
   <g id="patch_6">
    <path d="M 45.716875 23.837812 
L 741.306875 23.837812 
" style="fill: none; stroke: #000000; stroke-width: 0.8; stroke-linejoin: miter; stroke-linecap: square"/>
   </g>
   <g id="text_15">
    <!-- F1-Score vs Peso do Custo -->
    <g transform="translate(289.162656 17.837812) scale(0.14 -0.14)">
     <defs>
      <path id="DejaVuSans-Bold-46" d="M 588 4666 
L 3834 4666 
L 3834 3756 
L 1791 3756 
L 1791 2888 
L 3713 2888 
L 3713 1978 
L 1791 1978 
L 1791 0 
L 588 0 
L 588 4666 
z
" transform="scale(0.015625)"/>
      <path id="DejaVuSans-Bold-31" d="M 750 831 
L 1813 831 
L 1813 3847 
L 722 3622 
L 722 4441 
L 1806 4666 
L 2950 4666 
L 2950 831 
L 4013 831 
L 4013 0 
L 750 0 
L 750 831 
z
" transform="scale(0.015625)"/>
      <path id="DejaVuSans-Bold-2d" d="M 347 2297 
L 2309 2297 
L 2309 1388 
L 347 1388 
L 347 2297 
z
" transform="scale(0.015625)"/>
      <path id="DejaVuSans-Bold-53" d="M 3834 4519 
L 3834 3531 
Q 3450 3703 3084 3790 
Q 2719 3878 2394 3878 
Q 1963 3878 1756 3759 
Q 1550 3641 1550 3391 
Q 1550 3203 1689 3098 
Q 1828 2994 2194 2919 
L 2706 2816 
Q 3484 2659 3812 2340 
Q 4141 2022 4141 1434 
Q 4141 663 3683 286 
Q 3225 -91 2284 -91 
Q 1841 -91 1394 -6 
Q 947 78 500 244 
L 500 1259 
Q 947 1022 1364 901 
Q 1781 781 2169 781 
Q 2563 781 2772 912 
Q 2981 1044 2981 1288 
Q 2981 1506 2839 1625 
Q 2697 1744 2272 1838 
L 1806 1941 
Q 1106 2091 782 2419 
Q 459 2747 459 3303 
Q 459 4000 909 4375 
Q 1359 4750 2203 4750 
Q 2588 4750 2994 4692 
Q 3400 4634 3834 4519 
z
" transform="scale(0.015625)"/>
      <path id="DejaVuSans-Bold-63" d="M 3366 3391 
L 3366 2478 
Q 3138 2634 2908 2709 
Q 2678 2784 2431 2784 
Q 1963 2784 1702 2511 
Q 1441 2238 1441 1747 
Q 1441 1256 1702 982 
Q 1963 709 2431 709 
Q 2694 709 2930 787 
Q 3166 866 3366 1019 
L 3366 103 
Q 3103 6 2833 -42 
Q 2563 -91 2291 -91 
Q 1344 -91 809 395 
Q 275 881 275 1747 
Q 275 2613 809 3098 
Q 1344 3584 2291 3584 
Q 2566 3584 2833 3536 
Q 3100 3488 3366 3391 
z
" transform="scale(0.015625)"/>
      <path id="DejaVuSans-Bold-6f" d="M 2203 2784 
Q 1831 2784 1636 2517 
Q 1441 2250 1441 1747 
Q 1441 1244 1636 976 
Q 1831 709 2203 709 
Q 2569 709 2762 976 
Q 2956 1244 2956 1747 
Q 2956 2250 2762 2517 
Q 2569 2784 2203 2784 
z
M 2203 3584 
Q 3106 3584 3614 3096 
Q 4122 2609 4122 1747 
Q 4122 884 3614 396 
Q 3106 -91 2203 -91 
Q 1297 -91 786 396 
Q 275 884 275 1747 
Q 275 2609 786 3096 
Q 1297 3584 2203 3584 
z
" transform="scale(0.015625)"/>
      <path id="DejaVuSans-Bold-72" d="M 3138 2547 
Q 2991 2616 2845 2648 
Q 2700 2681 2553 2681 
Q 2122 2681 1889 2404 
Q 1656 2128 1656 1613 
L 1656 0 
L 538 0 
L 538 3500 
L 1656 3500 
L 1656 2925 
Q 1872 3269 2151 3426 
Q 2431 3584 2822 3584 
Q 2878 3584 2943 3579 
Q 3009 3575 3134 3559 
L 3138 2547 
z
" transform="scale(0.015625)"/>
      <path id="DejaVuSans-Bold-65" d="M 4031 1759 
L 4031 1441 
L 1416 1441 
Q 1456 1047 1700 850 
Q 1944 653 2381 653 
Q 2734 653 3104 758 
Q 3475 863 3866 1075 
L 3866 213 
Q 3469 63 3072 -14 
Q 2675 -91 2278 -91 
Q 1328 -91 801 392 
Q 275 875 275 1747 
Q 275 2603 792 3093 
Q 1309 3584 2216 3584 
Q 3041 3584 3536 3087 
Q 4031 2591 4031 1759 
z
M 2881 2131 
Q 2881 2450 2695 2645 
Q 2509 2841 2209 2841 
Q 1884 2841 1681 2658 
Q 1478 2475 1428 2131 
L 2881 2131 
z
" transform="scale(0.015625)"/>
      <path id="DejaVuSans-Bold-20" transform="scale(0.015625)"/>
      <path id="DejaVuSans-Bold-76" d="M 97 3500 
L 1216 3500 
L 2088 1081 
L 2956 3500 
L 4078 3500 
L 2700 0 
L 1472 0 
L 97 3500 
z
" transform="scale(0.015625)"/>
      <path id="DejaVuSans-Bold-73" d="M 3272 3391 
L 3272 2541 
Q 2913 2691 2578 2766 
Q 2244 2841 1947 2841 
Q 1628 2841 1473 2761 
Q 1319 2681 1319 2516 
Q 1319 2381 1436 2309 
Q 1553 2238 1856 2203 
L 2053 2175 
Q 2913 2066 3209 1816 
Q 3506 1566 3506 1031 
Q 3506 472 3093 190 
Q 2681 -91 1863 -91 
Q 1516 -91 1145 -36 
Q 775 19 384 128 
L 384 978 
Q 719 816 1070 734 
Q 1422 653 1784 653 
Q 2113 653 2278 743 
Q 2444 834 2444 1013 
Q 2444 1163 2330 1236 
Q 2216 1309 1875 1350 
L 1678 1375 
Q 931 1469 631 1722 
Q 331 1975 331 2491 
Q 331 3047 712 3315 
Q 1094 3584 1881 3584 
Q 2191 3584 2531 3537 
Q 2872 3491 3272 3391 
z
" transform="scale(0.015625)"/>
      <path id="DejaVuSans-Bold-50" d="M 588 4666 
L 2584 4666 
Q 3475 4666 3951 4270 
Q 4428 3875 4428 3144 
Q 4428 2409 3951 2014 
Q 3475 1619 2584 1619 
L 1791 1619 
L 1791 0 
L 588 0 
L 588 4666 
z
M 1791 3794 
L 1791 2491 
L 2456 2491 
Q 2806 2491 2997 2661 
Q 3188 2831 3188 3144 
Q 3188 3456 2997 3625 
Q 2806 3794 2456 3794 
L 1791 3794 
z
" transform="scale(0.015625)"/>
      <path id="DejaVuSans-Bold-64" d="M 2919 2988 
L 2919 4863 
L 4044 4863 
L 4044 0 
L 2919 0 
L 2919 506 
Q 2688 197 2409 53 
Q 2131 -91 1766 -91 
Q 1119 -91 703 423 
Q 288 938 288 1747 
Q 288 2556 703 3070 
Q 1119 3584 1766 3584 
Q 2128 3584 2408 3439 
Q 2688 3294 2919 2988 
z
M 2181 722 
Q 2541 722 2730 984 
Q 2919 1247 2919 1747 
Q 2919 2247 2730 2509 
Q 2541 2772 2181 2772 
Q 1825 2772 1636 2509 
Q 1447 2247 1447 1747 
Q 1447 1247 1636 984 
Q 1825 722 2181 722 
z
" transform="scale(0.015625)"/>
      <path id="DejaVuSans-Bold-43" d="M 4288 256 
Q 3956 84 3597 -3 
Q 3238 -91 2847 -91 
Q 1681 -91 1000 561 
Q 319 1213 319 2328 
Q 319 3447 1000 4098 
Q 1681 4750 2847 4750 
Q 3238 4750 3597 4662 
Q 3956 4575 4288 4403 
L 4288 3438 
Q 3953 3666 3628 3772 
Q 3303 3878 2944 3878 
Q 2300 3878 1931 3465 
Q 1563 3053 1563 2328 
Q 1563 1606 1931 1193 
Q 2300 781 2944 781 
Q 3303 781 3628 887 
Q 3953 994 4288 1222 
L 4288 256 
z
" transform="scale(0.015625)"/>
      <path id="DejaVuSans-Bold-75" d="M 500 1363 
L 500 3500 
L 1625 3500 
L 1625 3150 
Q 1625 2866 1622 2436 
Q 1619 2006 1619 1863 
Q 1619 1441 1641 1255 
Q 1663 1069 1716 984 
Q 1784 875 1895 815 
Q 2006 756 2150 756 
Q 2500 756 2700 1025 
Q 2900 1294 2900 1772 
L 2900 3500 
L 4019 3500 
L 4019 0 
L 2900 0 
L 2900 506 
Q 2647 200 2364 54 
Q 2081 -91 1741 -91 
Q 1134 -91 817 281 
Q 500 653 500 1363 
z
" transform="scale(0.015625)"/>
      <path id="DejaVuSans-Bold-74" d="M 1759 4494 
L 1759 3500 
L 2913 3500 
L 2913 2700 
L 1759 2700 
L 1759 1216 
Q 1759 972 1856 886 
Q 1953 800 2241 800 
L 2816 800 
L 2816 0 
L 1856 0 
Q 1194 0 917 276 
Q 641 553 641 1216 
L 641 2700 
L 84 2700 
L 84 3500 
L 641 3500 
L 641 4494 
L 1759 4494 
z
" transform="scale(0.015625)"/>
     </defs>
     <use xlink:href="#DejaVuSans-Bold-46"/>
     <use xlink:href="#DejaVuSans-Bold-31" transform="translate(68.310547 0)"/>
     <use xlink:href="#DejaVuSans-Bold-2d" transform="translate(137.890625 0)"/>
     <use xlink:href="#DejaVuSans-Bold-53" transform="translate(179.394531 0)"/>
     <use xlink:href="#DejaVuSans-Bold-63" transform="translate(251.416016 0)"/>
     <use xlink:href="#DejaVuSans-Bold-6f" transform="translate(310.693359 0)"/>
     <use xlink:href="#DejaVuSans-Bold-72" transform="translate(379.394531 0)"/>
     <use xlink:href="#DejaVuSans-Bold-65" transform="translate(428.710938 0)"/>
     <use xlink:href="#DejaVuSans-Bold-20" transform="translate(496.533203 0)"/>
     <use xlink:href="#DejaVuSans-Bold-76" transform="translate(531.347656 0)"/>
     <use xlink:href="#DejaVuSans-Bold-73" transform="translate(596.533203 0)"/>
     <use xlink:href="#DejaVuSans-Bold-20" transform="translate(656.054688 0)"/>
     <use xlink:href="#DejaVuSans-Bold-50" transform="translate(690.869141 0)"/>
     <use xlink:href="#DejaVuSans-Bold-65" transform="translate(764.160156 0)"/>
     <use xlink:href="#DejaVuSans-Bold-73" transform="translate(831.982422 0)"/>
     <use xlink:href="#DejaVuSans-Bold-6f" transform="translate(891.503906 0)"/>
     <use xlink:href="#DejaVuSans-Bold-20" transform="translate(960.205078 0)"/>
     <use xlink:href="#DejaVuSans-Bold-64" transform="translate(995.019531 0)"/>
     <use xlink:href="#DejaVuSans-Bold-6f" transform="translate(1066.601562 0)"/>
     <use xlink:href="#DejaVuSans-Bold-20" transform="translate(1135.302734 0)"/>
     <use xlink:href="#DejaVuSans-Bold-43" transform="translate(1170.117188 0)"/>
     <use xlink:href="#DejaVuSans-Bold-75" transform="translate(1243.505859 0)"/>
     <use xlink:href="#DejaVuSans-Bold-73" transform="translate(1314.697266 0)"/>
     <use xlink:href="#DejaVuSans-Bold-74" transform="translate(1374.21875 0)"/>
     <use xlink:href="#DejaVuSans-Bold-6f" transform="translate(1422.021484 0)"/>
    </g>
   </g>
   <g id="legend_1">
    <g id="patch_7">
     <path d="M 780.086375 160.940937 
L 849.644188 160.940937 
Q 851.644188 160.940937 851.644188 158.940937 
L 851.644188 27.837812 
Q 851.644188 25.837812 849.644188 25.837812 
L 780.086375 25.837812 
Q 778.086375 25.837812 778.086375 27.837812 
L 778.086375 158.940937 
Q 778.086375 160.940937 780.086375 160.940937 
z
" style="fill: #4d4d4d; opacity: 0.5; stroke: #4d4d4d; stroke-linejoin: miter"/>
    </g>
    <g id="patch_8">
     <path d="M 778.086375 158.940937 
L 847.644188 158.940937 
Q 849.644188 158.940937 849.644188 156.940937 
L 849.644188 25.837812 
Q 849.644188 23.837812 847.644188 23.837812 
L 778.086375 23.837812 
Q 776.086375 23.837812 776.086375 25.837812 
L 776.086375 156.940937 
Q 776.086375 158.940937 778.086375 158.940937 
z
" style="fill: #ffffff; stroke: #cccccc; stroke-linejoin: miter"/>
    </g>
    <g id="line2d_34">
     <path d="M 780.086375 31.93625 
L 790.086375 31.93625 
L 800.086375 31.93625 
" style="fill: none; stroke: #ff8c00; stroke-opacity: 0.8; stroke-width: 2; stroke-linecap: square"/>
     <g>
      <use xlink:href="#mcf6774875c" x="790.086375" y="31.93625" style="fill: #ff8c00; fill-opacity: 0.8; stroke: #ff8c00; stroke-opacity: 0.8; stroke-linejoin: miter"/>
     </g>
    </g>
    <g id="text_16">
     <!-- SVMR -->
     <g transform="translate(808.086375 35.43625) scale(0.1 -0.1)">
      <defs>
       <path id="DejaVuSans-56" d="M 1831 0 
L 50 4666 
L 709 4666 
L 2188 738 
L 3669 4666 
L 4325 4666 
L 2547 0 
L 1831 0 
z
" transform="scale(0.015625)"/>
       <path id="DejaVuSans-4d" d="M 628 4666 
L 1569 4666 
L 2759 1491 
L 3956 4666 
L 4897 4666 
L 4897 0 
L 4281 0 
L 4281 4097 
L 3078 897 
L 2444 897 
L 1241 4097 
L 1241 0 
L 628 0 
L 628 4666 
z
" transform="scale(0.015625)"/>
       <path id="DejaVuSans-52" d="M 2841 2188 
Q 3044 2119 3236 1894 
Q 3428 1669 3622 1275 
L 4263 0 
L 3584 0 
L 2988 1197 
Q 2756 1666 2539 1819 
Q 2322 1972 1947 1972 
L 1259 1972 
L 1259 0 
L 628 0 
L 628 4666 
L 2053 4666 
Q 2853 4666 3247 4331 
Q 3641 3997 3641 3322 
Q 3641 2881 3436 2590 
Q 3231 2300 2841 2188 
z
M 1259 4147 
L 1259 2491 
L 2053 2491 
Q 2509 2491 2742 2702 
Q 2975 2913 2975 3322 
Q 2975 3731 2742 3939 
Q 2509 4147 2053 4147 
L 1259 4147 
z
" transform="scale(0.015625)"/>
      </defs>
      <use xlink:href="#DejaVuSans-53"/>
      <use xlink:href="#DejaVuSans-56" transform="translate(63.476562 0)"/>
      <use xlink:href="#DejaVuSans-4d" transform="translate(131.884766 0)"/>
      <use xlink:href="#DejaVuSans-52" transform="translate(218.164062 0)"/>
     </g>
    </g>
    <g id="line2d_35">
     <path d="M 780.086375 46.614375 
L 790.086375 46.614375 
L 800.086375 46.614375 
" style="fill: none; stroke: #00ffff; stroke-opacity: 0.8; stroke-width: 2; stroke-linecap: square"/>
     <g>
      <use xlink:href="#mde672a5a9c" x="790.086375" y="46.614375" style="fill: #00ffff; fill-opacity: 0.8; stroke: #00ffff; stroke-opacity: 0.8; stroke-linejoin: miter"/>
     </g>
    </g>
    <g id="text_17">
     <!-- LR -->
     <g transform="translate(808.086375 50.114375) scale(0.1 -0.1)">
      <defs>
       <path id="DejaVuSans-4c" d="M 628 4666 
L 1259 4666 
L 1259 531 
L 3531 531 
L 3531 0 
L 628 0 
L 628 4666 
z
" transform="scale(0.015625)"/>
      </defs>
      <use xlink:href="#DejaVuSans-4c"/>
      <use xlink:href="#DejaVuSans-52" transform="translate(55.712891 0)"/>
     </g>
    </g>
    <g id="line2d_36">
     <path d="M 780.086375 61.2925 
L 790.086375 61.2925 
L 800.086375 61.2925 
" style="fill: none; stroke: #0000ff; stroke-opacity: 0.8; stroke-width: 2; stroke-linecap: square"/>
     <g>
      <use xlink:href="#mffefa40afa" x="790.086375" y="61.2925" style="fill: #0000ff; fill-opacity: 0.8; stroke: #0000ff; stroke-opacity: 0.8; stroke-linejoin: miter"/>
     </g>
    </g>
    <g id="text_18">
     <!-- SVML -->
     <g transform="translate(808.086375 64.7925) scale(0.1 -0.1)">
      <use xlink:href="#DejaVuSans-53"/>
      <use xlink:href="#DejaVuSans-56" transform="translate(63.476562 0)"/>
      <use xlink:href="#DejaVuSans-4d" transform="translate(131.884766 0)"/>
      <use xlink:href="#DejaVuSans-4c" transform="translate(218.164062 0)"/>
     </g>
    </g>
    <g id="line2d_37">
     <path d="M 780.086375 75.970625 
L 790.086375 75.970625 
L 800.086375 75.970625 
" style="fill: none; stroke: #ff1493; stroke-opacity: 0.8; stroke-width: 2; stroke-linecap: square"/>
     <g>
      <use xlink:href="#m078efcbc1a" x="790.086375" y="75.970625" style="fill: #ff1493; fill-opacity: 0.8; stroke: #ff1493; stroke-opacity: 0.8; stroke-linejoin: miter"/>
     </g>
    </g>
    <g id="text_19">
     <!-- RF -->
     <g transform="translate(808.086375 79.470625) scale(0.1 -0.1)">
      <use xlink:href="#DejaVuSans-52"/>
      <use xlink:href="#DejaVuSans-46" transform="translate(69.482422 0)"/>
     </g>
    </g>
    <g id="line2d_38">
     <path d="M 780.086375 90.64875 
L 790.086375 90.64875 
L 800.086375 90.64875 
" style="fill: none; stroke: #32cd32; stroke-opacity: 0.8; stroke-width: 2; stroke-linecap: square"/>
     <g>
      <use xlink:href="#mf195dde178" x="790.086375" y="90.64875" style="fill: #32cd32; fill-opacity: 0.8; stroke: #32cd32; stroke-opacity: 0.8; stroke-linejoin: miter"/>
     </g>
    </g>
    <g id="text_20">
     <!-- DCT -->
     <g transform="translate(808.086375 94.14875) scale(0.1 -0.1)">
      <defs>
       <path id="DejaVuSans-44" d="M 1259 4147 
L 1259 519 
L 2022 519 
Q 2988 519 3436 956 
Q 3884 1394 3884 2338 
Q 3884 3275 3436 3711 
Q 2988 4147 2022 4147 
L 1259 4147 
z
M 628 4666 
L 1925 4666 
Q 3281 4666 3915 4102 
Q 4550 3538 4550 2338 
Q 4550 1131 3912 565 
Q 3275 0 1925 0 
L 628 0 
L 628 4666 
z
" transform="scale(0.015625)"/>
       <path id="DejaVuSans-54" d="M -19 4666 
L 3928 4666 
L 3928 4134 
L 2272 4134 
L 2272 0 
L 1638 0 
L 1638 4134 
L -19 4134 
L -19 4666 
z
" transform="scale(0.015625)"/>
      </defs>
      <use xlink:href="#DejaVuSans-44"/>
      <use xlink:href="#DejaVuSans-43" transform="translate(77.001953 0)"/>
      <use xlink:href="#DejaVuSans-54" transform="translate(146.826172 0)"/>
     </g>
    </g>
    <g id="line2d_39">
     <path d="M 780.086375 105.326875 
L 790.086375 105.326875 
L 800.086375 105.326875 
" style="fill: none; stroke: #4b0082; stroke-opacity: 0.8; stroke-width: 2; stroke-linecap: square"/>
     <g>
      <use xlink:href="#mee1ff47a41" x="790.086375" y="105.326875" style="fill: #4b0082; fill-opacity: 0.8; stroke: #4b0082; stroke-opacity: 0.8; stroke-linejoin: miter"/>
     </g>
    </g>
    <g id="text_21">
     <!-- KNN -->
     <g transform="translate(808.086375 108.826875) scale(0.1 -0.1)">
      <defs>
       <path id="DejaVuSans-4b" d="M 628 4666 
L 1259 4666 
L 1259 2694 
L 3353 4666 
L 4166 4666 
L 1850 2491 
L 4331 0 
L 3500 0 
L 1259 2247 
L 1259 0 
L 628 0 
L 628 4666 
z
" transform="scale(0.015625)"/>
       <path id="DejaVuSans-4e" d="M 628 4666 
L 1478 4666 
L 3547 763 
L 3547 4666 
L 4159 4666 
L 4159 0 
L 3309 0 
L 1241 3903 
L 1241 0 
L 628 0 
L 628 4666 
z
" transform="scale(0.015625)"/>
      </defs>
      <use xlink:href="#DejaVuSans-4b"/>
      <use xlink:href="#DejaVuSans-4e" transform="translate(65.576172 0)"/>
      <use xlink:href="#DejaVuSans-4e" transform="translate(140.380859 0)"/>
     </g>
    </g>
    <g id="line2d_40">
     <path d="M 780.086375 120.005 
L 790.086375 120.005 
L 800.086375 120.005 
" style="fill: none; stroke: #ff00ff; stroke-opacity: 0.8; stroke-width: 2; stroke-linecap: square"/>
     <g>
      <use xlink:href="#m4649832bfd" x="790.086375" y="120.005" style="fill: #ff00ff; fill-opacity: 0.8; stroke: #ff00ff; stroke-opacity: 0.8; stroke-linejoin: miter"/>
     </g>
    </g>
    <g id="text_22">
     <!-- SV-Grid -->
     <g transform="translate(808.086375 123.505) scale(0.1 -0.1)">
      <defs>
       <path id="DejaVuSans-47" d="M 3809 666 
L 3809 1919 
L 2778 1919 
L 2778 2438 
L 4434 2438 
L 4434 434 
Q 4069 175 3628 42 
Q 3188 -91 2688 -91 
Q 1594 -91 976 548 
Q 359 1188 359 2328 
Q 359 3472 976 4111 
Q 1594 4750 2688 4750 
Q 3144 4750 3555 4637 
Q 3966 4525 4313 4306 
L 4313 3634 
Q 3963 3931 3569 4081 
Q 3175 4231 2741 4231 
Q 1884 4231 1454 3753 
Q 1025 3275 1025 2328 
Q 1025 1384 1454 906 
Q 1884 428 2741 428 
Q 3075 428 3337 486 
Q 3600 544 3809 666 
z
" transform="scale(0.015625)"/>
       <path id="DejaVuSans-69" d="M 603 3500 
L 1178 3500 
L 1178 0 
L 603 0 
L 603 3500 
z
M 603 4863 
L 1178 4863 
L 1178 4134 
L 603 4134 
L 603 4863 
z
" transform="scale(0.015625)"/>
      </defs>
      <use xlink:href="#DejaVuSans-53"/>
      <use xlink:href="#DejaVuSans-56" transform="translate(63.476562 0)"/>
      <use xlink:href="#DejaVuSans-2d" transform="translate(126.009766 0)"/>
      <use xlink:href="#DejaVuSans-47" transform="translate(165.71875 0)"/>
      <use xlink:href="#DejaVuSans-72" transform="translate(243.208984 0)"/>
      <use xlink:href="#DejaVuSans-69" transform="translate(284.322266 0)"/>
      <use xlink:href="#DejaVuSans-64" transform="translate(312.105469 0)"/>
     </g>
    </g>
    <g id="line2d_41">
     <path d="M 780.086375 134.683125 
L 790.086375 134.683125 
L 800.086375 134.683125 
" style="fill: none; stroke: #ff4500; stroke-opacity: 0.8; stroke-width: 2; stroke-linecap: square"/>
     <g>
      <use xlink:href="#mab40fa8126" x="790.086375" y="134.683125" style="fill: #ff4500; fill-opacity: 0.8; stroke: #ff4500; stroke-opacity: 0.8"/>
     </g>
    </g>
    <g id="text_23">
     <!-- HV -->
     <g transform="translate(808.086375 138.183125) scale(0.1 -0.1)">
      <defs>
       <path id="DejaVuSans-48" d="M 628 4666 
L 1259 4666 
L 1259 2753 
L 3553 2753 
L 3553 4666 
L 4184 4666 
L 4184 0 
L 3553 0 
L 3553 2222 
L 1259 2222 
L 1259 0 
L 628 0 
L 628 4666 
z
" transform="scale(0.015625)"/>
      </defs>
      <use xlink:href="#DejaVuSans-48"/>
      <use xlink:href="#DejaVuSans-56" transform="translate(75.195312 0)"/>
     </g>
    </g>
    <g id="line2d_42">
     <path d="M 780.086375 149.36125 
L 790.086375 149.36125 
L 800.086375 149.36125 
" style="fill: none; stroke: #ffd700; stroke-opacity: 0.8; stroke-width: 2; stroke-linecap: square"/>
     <g>
      <use xlink:href="#m8e59dba257" x="790.086375" y="149.36125" style="fill: #ffd700; fill-opacity: 0.8; stroke: #ffd700; stroke-opacity: 0.8; stroke-linejoin: bevel"/>
     </g>
    </g>
    <g id="text_24">
     <!-- SV -->
     <g transform="translate(808.086375 152.86125) scale(0.1 -0.1)">
      <use xlink:href="#DejaVuSans-53"/>
      <use xlink:href="#DejaVuSans-56" transform="translate(63.476562 0)"/>
     </g>
    </g>
   </g>
  </g>
 </g>
 <defs>
  <clipPath id="pa6d09fa8a7">
   <rect x="45.716875" y="23.837812" width="695.59" height="359.56"/>
  </clipPath>
 </defs>
</svg>
