<?xml version="1.0" encoding="utf-8" standalone="no"?>
<!DOCTYPE svg PUBLIC "-//W3C//DTD SVG 1.1//EN"
  "http://www.w3.org/Graphics/SVG/1.1/DTD/svg11.dtd">
<svg xmlns:xlink="http://www.w3.org/1999/xlink" width="864pt" height="576pt" viewBox="0 0 864 576" xmlns="http://www.w3.org/2000/svg" version="1.1">
 <metadata>
  <rdf:RDF xmlns:dc="http://purl.org/dc/elements/1.1/" xmlns:cc="http://creativecommons.org/ns#" xmlns:rdf="http://www.w3.org/1999/02/22-rdf-syntax-ns#">
   <cc:Work>
    <dc:type rdf:resource="http://purl.org/dc/dcmitype/StillImage"/>
    <dc:date>2025-12-13T14:30:54.075104</dc:date>
    <dc:format>image/svg+xml</dc:format>
    <dc:creator>
     <cc:Agent>
      <dc:title>Matplotlib v3.10.0, https://matplotlib.org/</dc:title>
     </cc:Agent>
    </dc:creator>
   </cc:Work>
  </rdf:RDF>
 </metadata>
 <defs>
  <style type="text/css">*{stroke-linejoin: round; stroke-linecap: butt}</style>
 </defs>
 <g id="figure_1">
  <g id="patch_1">
   <path d="M 0 576 
L 864 576 
L 864 0 
L 0 0 
z
" style="fill: #ffffff"/>
  </g>
  <g id="axes_1">
   <g id="patch_2">
    <path d="M 70.67 516.76 
L 672.56 516.76 
L 672.56 21.72 
L 70.67 21.72 
z
" style="fill: #ffffff"/>
   </g>
   <g id="PathCollection_1">
    <defs>
     <path id="m0bd7fad45d" d="M 0 -5 
L -4.755283 -1.545085 
L -2.938926 4.045085 
L 2.938926 4.045085 
L 4.755283 -1.545085 
z
" style="stroke: #440154; stroke-opacity: 0.7"/>
    </defs>
    <g clip-path="url(#p9235095789)">
     <use xlink:href="#m0bd7fad45d" x="645.201364" y="494.258182" style="fill: #440154; fill-opacity: 0.7; stroke: #440154; stroke-opacity: 0.7"/>
    </g>
   </g>
   <g id="PathCollection_2">
    <defs>
     <path id="mfe130c999d" d="M 0 -5 
L -4.755283 -1.545085 
L -2.938926 4.045085 
L 2.938926 4.045085 
L 4.755283 -1.545085 
z
" style="stroke: #482878; stroke-opacity: 0.7"/>
    </defs>
    <g clip-path="url(#p9235095789)">
     <use xlink:href="#mfe130c999d" x="645.201364" y="494.258182" style="fill: #482878; fill-opacity: 0.7; stroke: #482878; stroke-opacity: 0.7"/>
    </g>
   </g>
   <g id="PathCollection_3">
    <defs>
     <path id="me26600579c" d="M 0 -5 
L -4.755283 -1.545085 
L -2.938926 4.045085 
L 2.938926 4.045085 
L 4.755283 -1.545085 
z
" style="stroke: #3e4989; stroke-opacity: 0.7"/>
    </defs>
    <g clip-path="url(#p9235095789)">
     <use xlink:href="#me26600579c" x="544.041271" y="459.350975" style="fill: #3e4989; fill-opacity: 0.7; stroke: #3e4989; stroke-opacity: 0.7"/>
    </g>
   </g>
   <g id="PathCollection_4">
    <defs>
     <path id="m6fa6bca509" d="M 0 -5 
L -4.755283 -1.545085 
L -2.938926 4.045085 
L 2.938926 4.045085 
L 4.755283 -1.545085 
z
" style="stroke: #31688e; stroke-opacity: 0.7"/>
    </defs>
    <g clip-path="url(#p9235095789)">
     <use xlink:href="#m6fa6bca509" x="507.42272" y="453.00615" style="fill: #31688e; fill-opacity: 0.7; stroke: #31688e; stroke-opacity: 0.7"/>
    </g>
   </g>
   <g id="PathCollection_5">
    <defs>
     <path id="m62ffc105c1" d="M 0 -5 
L -4.755283 -1.545085 
L -2.938926 4.045085 
L 2.938926 4.045085 
L 4.755283 -1.545085 
z
" style="stroke: #26828e; stroke-opacity: 0.7"/>
    </defs>
    <g clip-path="url(#p9235095789)">
     <use xlink:href="#m62ffc105c1" x="458.253391" y="438.380567" style="fill: #26828e; fill-opacity: 0.7; stroke: #26828e; stroke-opacity: 0.7"/>
    </g>
   </g>
   <g id="PathCollection_6">
    <defs>
     <path id="mdacf8eaae6" d="M 0 -5 
L -4.755283 -1.545085 
L -2.938926 4.045085 
L 2.938926 4.045085 
L 4.755283 -1.545085 
z
" style="stroke: #1f9e89; stroke-opacity: 0.7"/>
    </defs>
    <g clip-path="url(#p9235095789)">
     <use xlink:href="#mdacf8eaae6" x="363.321836" y="414.794813" style="fill: #1f9e89; fill-opacity: 0.7; stroke: #1f9e89; stroke-opacity: 0.7"/>
    </g>
   </g>
   <g id="PathCollection_7">
    <defs>
     <path id="m5b4c94a97b" d="M 0 -5 
L -4.755283 -1.545085 
L -2.938926 4.045085 
L 2.938926 4.045085 
L 4.755283 -1.545085 
z
" style="stroke: #35b779; stroke-opacity: 0.7"/>
    </defs>
    <g clip-path="url(#p9235095789)">
     <use xlink:href="#m5b4c94a97b" x="264.995681" y="380.007609" style="fill: #35b779; fill-opacity: 0.7; stroke: #35b779; stroke-opacity: 0.7"/>
    </g>
   </g>
   <g id="PathCollection_8">
    <defs>
     <path id="m6f039e021c" d="M 0 -5 
L -4.755283 -1.545085 
L -2.938926 4.045085 
L 2.938926 4.045085 
L 4.755283 -1.545085 
z
" style="stroke: #6ece58; stroke-opacity: 0.7"/>
    </defs>
    <g clip-path="url(#p9235095789)">
     <use xlink:href="#m6f039e021c" x="209.381415" y="329.491623" style="fill: #6ece58; fill-opacity: 0.7; stroke: #6ece58; stroke-opacity: 0.7"/>
    </g>
   </g>
   <g id="PathCollection_9">
    <defs>
     <path id="m9147047209" d="M 0 -5 
L -4.755283 -1.545085 
L -2.938926 4.045085 
L 2.938926 4.045085 
L 4.755283 -1.545085 
z
" style="stroke: #b5de2b; stroke-opacity: 0.7"/>
    </defs>
    <g clip-path="url(#p9235095789)">
     <use xlink:href="#m9147047209" x="123.878747" y="73.421443" style="fill: #b5de2b; fill-opacity: 0.7; stroke: #b5de2b; stroke-opacity: 0.7"/>
    </g>
   </g>
   <g id="PathCollection_10">
    <defs>
     <path id="ma70c9e3e43" d="M 0 -5 
L -4.755283 -1.545085 
L -2.938926 4.045085 
L 2.938926 4.045085 
L 4.755283 -1.545085 
z
" style="stroke: #fde725; stroke-opacity: 0.7"/>
    </defs>
    <g clip-path="url(#p9235095789)">
     <use xlink:href="#ma70c9e3e43" x="98.028636" y="44.221818" style="fill: #fde725; fill-opacity: 0.7; stroke: #fde725; stroke-opacity: 0.7"/>
    </g>
   </g>
   <g id="matplotlib.axis_1">
    <g id="xtick_1">
     <g id="line2d_1">
      <path d="M 84.849382 516.76 
L 84.849382 21.72 
" clip-path="url(#p9235095789)" style="fill: none; stroke-dasharray: 2.96,1.28; stroke-dashoffset: 0; stroke: #b0b0b0; stroke-opacity: 0.7; stroke-width: 0.8"/>
     </g>
     <g id="line2d_2">
      <defs>
       <path id="m2b6e66ac29" d="M 0 0 
L 0 3.5 
" style="stroke: #000000; stroke-width: 0.8"/>
      </defs>
      <g>
       <use xlink:href="#m2b6e66ac29" x="84.849382" y="516.76" style="stroke: #000000; stroke-width: 0.8"/>
      </g>
     </g>
     <g id="text_1">
      <!-- 1100 -->
      <g transform="translate(61.944382 537.437188) scale(0.18 -0.18)">
       <defs>
        <path id="DejaVuSans-31" d="M 794 531 
L 1825 531 
L 1825 4091 
L 703 3866 
L 703 4441 
L 1819 4666 
L 2450 4666 
L 2450 531 
L 3481 531 
L 3481 0 
L 794 0 
L 794 531 
z
" transform="scale(0.015625)"/>
        <path id="DejaVuSans-30" d="M 2034 4250 
Q 1547 4250 1301 3770 
Q 1056 3291 1056 2328 
Q 1056 1369 1301 889 
Q 1547 409 2034 409 
Q 2525 409 2770 889 
Q 3016 1369 3016 2328 
Q 3016 3291 2770 3770 
Q 2525 4250 2034 4250 
z
M 2034 4750 
Q 2819 4750 3233 4129 
Q 3647 3509 3647 2328 
Q 3647 1150 3233 529 
Q 2819 -91 2034 -91 
Q 1250 -91 836 529 
Q 422 1150 422 2328 
Q 422 3509 836 4129 
Q 1250 4750 2034 4750 
z
" transform="scale(0.015625)"/>
       </defs>
       <use xlink:href="#DejaVuSans-31"/>
       <use xlink:href="#DejaVuSans-31" transform="translate(63.623047 0)"/>
       <use xlink:href="#DejaVuSans-30" transform="translate(127.246094 0)"/>
       <use xlink:href="#DejaVuSans-30" transform="translate(190.869141 0)"/>
      </g>
     </g>
    </g>
    <g id="xtick_2">
     <g id="line2d_3">
      <path d="M 171.131774 516.76 
L 171.131774 21.72 
" clip-path="url(#p9235095789)" style="fill: none; stroke-dasharray: 2.96,1.28; stroke-dashoffset: 0; stroke: #b0b0b0; stroke-opacity: 0.7; stroke-width: 0.8"/>
     </g>
     <g id="line2d_4">
      <g>
       <use xlink:href="#m2b6e66ac29" x="171.131774" y="516.76" style="stroke: #000000; stroke-width: 0.8"/>
      </g>
     </g>
     <g id="text_2">
      <!-- 1200 -->
      <g transform="translate(148.226774 537.437188) scale(0.18 -0.18)">
       <defs>
        <path id="DejaVuSans-32" d="M 1228 531 
L 3431 531 
L 3431 0 
L 469 0 
L 469 531 
Q 828 903 1448 1529 
Q 2069 2156 2228 2338 
Q 2531 2678 2651 2914 
Q 2772 3150 2772 3378 
Q 2772 3750 2511 3984 
Q 2250 4219 1831 4219 
Q 1534 4219 1204 4116 
Q 875 4013 500 3803 
L 500 4441 
Q 881 4594 1212 4672 
Q 1544 4750 1819 4750 
Q 2544 4750 2975 4387 
Q 3406 4025 3406 3419 
Q 3406 3131 3298 2873 
Q 3191 2616 2906 2266 
Q 2828 2175 2409 1742 
Q 1991 1309 1228 531 
z
" transform="scale(0.015625)"/>
       </defs>
       <use xlink:href="#DejaVuSans-31"/>
       <use xlink:href="#DejaVuSans-32" transform="translate(63.623047 0)"/>
       <use xlink:href="#DejaVuSans-30" transform="translate(127.246094 0)"/>
       <use xlink:href="#DejaVuSans-30" transform="translate(190.869141 0)"/>
      </g>
     </g>
    </g>
    <g id="xtick_3">
     <g id="line2d_5">
      <path d="M 257.414166 516.76 
L 257.414166 21.72 
" clip-path="url(#p9235095789)" style="fill: none; stroke-dasharray: 2.96,1.28; stroke-dashoffset: 0; stroke: #b0b0b0; stroke-opacity: 0.7; stroke-width: 0.8"/>
     </g>
     <g id="line2d_6">
      <g>
       <use xlink:href="#m2b6e66ac29" x="257.414166" y="516.76" style="stroke: #000000; stroke-width: 0.8"/>
      </g>
     </g>
     <g id="text_3">
      <!-- 1300 -->
      <g transform="translate(234.509166 537.437188) scale(0.18 -0.18)">
       <defs>
        <path id="DejaVuSans-33" d="M 2597 2516 
Q 3050 2419 3304 2112 
Q 3559 1806 3559 1356 
Q 3559 666 3084 287 
Q 2609 -91 1734 -91 
Q 1441 -91 1130 -33 
Q 819 25 488 141 
L 488 750 
Q 750 597 1062 519 
Q 1375 441 1716 441 
Q 2309 441 2620 675 
Q 2931 909 2931 1356 
Q 2931 1769 2642 2001 
Q 2353 2234 1838 2234 
L 1294 2234 
L 1294 2753 
L 1863 2753 
Q 2328 2753 2575 2939 
Q 2822 3125 2822 3475 
Q 2822 3834 2567 4026 
Q 2313 4219 1838 4219 
Q 1578 4219 1281 4162 
Q 984 4106 628 3988 
L 628 4550 
Q 988 4650 1302 4700 
Q 1616 4750 1894 4750 
Q 2613 4750 3031 4423 
Q 3450 4097 3450 3541 
Q 3450 3153 3228 2886 
Q 3006 2619 2597 2516 
z
" transform="scale(0.015625)"/>
       </defs>
       <use xlink:href="#DejaVuSans-31"/>
       <use xlink:href="#DejaVuSans-33" transform="translate(63.623047 0)"/>
       <use xlink:href="#DejaVuSans-30" transform="translate(127.246094 0)"/>
       <use xlink:href="#DejaVuSans-30" transform="translate(190.869141 0)"/>
      </g>
     </g>
    </g>
    <g id="xtick_4">
     <g id="line2d_7">
      <path d="M 343.696559 516.76 
L 343.696559 21.72 
" clip-path="url(#p9235095789)" style="fill: none; stroke-dasharray: 2.96,1.28; stroke-dashoffset: 0; stroke: #b0b0b0; stroke-opacity: 0.7; stroke-width: 0.8"/>
     </g>
     <g id="line2d_8">
      <g>
       <use xlink:href="#m2b6e66ac29" x="343.696559" y="516.76" style="stroke: #000000; stroke-width: 0.8"/>
      </g>
     </g>
     <g id="text_4">
      <!-- 1400 -->
      <g transform="translate(320.791559 537.437188) scale(0.18 -0.18)">
       <defs>
        <path id="DejaVuSans-34" d="M 2419 4116 
L 825 1625 
L 2419 1625 
L 2419 4116 
z
M 2253 4666 
L 3047 4666 
L 3047 1625 
L 3713 1625 
L 3713 1100 
L 3047 1100 
L 3047 0 
L 2419 0 
L 2419 1100 
L 313 1100 
L 313 1709 
L 2253 4666 
z
" transform="scale(0.015625)"/>
       </defs>
       <use xlink:href="#DejaVuSans-31"/>
       <use xlink:href="#DejaVuSans-34" transform="translate(63.623047 0)"/>
       <use xlink:href="#DejaVuSans-30" transform="translate(127.246094 0)"/>
       <use xlink:href="#DejaVuSans-30" transform="translate(190.869141 0)"/>
      </g>
     </g>
    </g>
    <g id="xtick_5">
     <g id="line2d_9">
      <path d="M 429.978951 516.76 
L 429.978951 21.72 
" clip-path="url(#p9235095789)" style="fill: none; stroke-dasharray: 2.96,1.28; stroke-dashoffset: 0; stroke: #b0b0b0; stroke-opacity: 0.7; stroke-width: 0.8"/>
     </g>
     <g id="line2d_10">
      <g>
       <use xlink:href="#m2b6e66ac29" x="429.978951" y="516.76" style="stroke: #000000; stroke-width: 0.8"/>
      </g>
     </g>
     <g id="text_5">
      <!-- 1500 -->
      <g transform="translate(407.073951 537.437188) scale(0.18 -0.18)">
       <defs>
        <path id="DejaVuSans-35" d="M 691 4666 
L 3169 4666 
L 3169 4134 
L 1269 4134 
L 1269 2991 
Q 1406 3038 1543 3061 
Q 1681 3084 1819 3084 
Q 2600 3084 3056 2656 
Q 3513 2228 3513 1497 
Q 3513 744 3044 326 
Q 2575 -91 1722 -91 
Q 1428 -91 1123 -41 
Q 819 9 494 109 
L 494 744 
Q 775 591 1075 516 
Q 1375 441 1709 441 
Q 2250 441 2565 725 
Q 2881 1009 2881 1497 
Q 2881 1984 2565 2268 
Q 2250 2553 1709 2553 
Q 1456 2553 1204 2497 
Q 953 2441 691 2322 
L 691 4666 
z
" transform="scale(0.015625)"/>
       </defs>
       <use xlink:href="#DejaVuSans-31"/>
       <use xlink:href="#DejaVuSans-35" transform="translate(63.623047 0)"/>
       <use xlink:href="#DejaVuSans-30" transform="translate(127.246094 0)"/>
       <use xlink:href="#DejaVuSans-30" transform="translate(190.869141 0)"/>
      </g>
     </g>
    </g>
    <g id="xtick_6">
     <g id="line2d_11">
      <path d="M 516.261343 516.76 
L 516.261343 21.72 
" clip-path="url(#p9235095789)" style="fill: none; stroke-dasharray: 2.96,1.28; stroke-dashoffset: 0; stroke: #b0b0b0; stroke-opacity: 0.7; stroke-width: 0.8"/>
     </g>
     <g id="line2d_12">
      <g>
       <use xlink:href="#m2b6e66ac29" x="516.261343" y="516.76" style="stroke: #000000; stroke-width: 0.8"/>
      </g>
     </g>
     <g id="text_6">
      <!-- 1600 -->
      <g transform="translate(493.356343 537.437188) scale(0.18 -0.18)">
       <defs>
        <path id="DejaVuSans-36" d="M 2113 2584 
Q 1688 2584 1439 2293 
Q 1191 2003 1191 1497 
Q 1191 994 1439 701 
Q 1688 409 2113 409 
Q 2538 409 2786 701 
Q 3034 994 3034 1497 
Q 3034 2003 2786 2293 
Q 2538 2584 2113 2584 
z
M 3366 4563 
L 3366 3988 
Q 3128 4100 2886 4159 
Q 2644 4219 2406 4219 
Q 1781 4219 1451 3797 
Q 1122 3375 1075 2522 
Q 1259 2794 1537 2939 
Q 1816 3084 2150 3084 
Q 2853 3084 3261 2657 
Q 3669 2231 3669 1497 
Q 3669 778 3244 343 
Q 2819 -91 2113 -91 
Q 1303 -91 875 529 
Q 447 1150 447 2328 
Q 447 3434 972 4092 
Q 1497 4750 2381 4750 
Q 2619 4750 2861 4703 
Q 3103 4656 3366 4563 
z
" transform="scale(0.015625)"/>
       </defs>
       <use xlink:href="#DejaVuSans-31"/>
       <use xlink:href="#DejaVuSans-36" transform="translate(63.623047 0)"/>
       <use xlink:href="#DejaVuSans-30" transform="translate(127.246094 0)"/>
       <use xlink:href="#DejaVuSans-30" transform="translate(190.869141 0)"/>
      </g>
     </g>
    </g>
    <g id="xtick_7">
     <g id="line2d_13">
      <path d="M 602.543736 516.76 
L 602.543736 21.72 
" clip-path="url(#p9235095789)" style="fill: none; stroke-dasharray: 2.96,1.28; stroke-dashoffset: 0; stroke: #b0b0b0; stroke-opacity: 0.7; stroke-width: 0.8"/>
     </g>
     <g id="line2d_14">
      <g>
       <use xlink:href="#m2b6e66ac29" x="602.543736" y="516.76" style="stroke: #000000; stroke-width: 0.8"/>
      </g>
     </g>
     <g id="text_7">
      <!-- 1700 -->
      <g transform="translate(579.638736 537.437188) scale(0.18 -0.18)">
       <defs>
        <path id="DejaVuSans-37" d="M 525 4666 
L 3525 4666 
L 3525 4397 
L 1831 0 
L 1172 0 
L 2766 4134 
L 525 4134 
L 525 4666 
z
" transform="scale(0.015625)"/>
       </defs>
       <use xlink:href="#DejaVuSans-31"/>
       <use xlink:href="#DejaVuSans-37" transform="translate(63.623047 0)"/>
       <use xlink:href="#DejaVuSans-30" transform="translate(127.246094 0)"/>
       <use xlink:href="#DejaVuSans-30" transform="translate(190.869141 0)"/>
      </g>
     </g>
    </g>
    <g id="text_8">
     <!-- Total Cost -->
     <g transform="translate(322.8525 560.3775) scale(0.2 -0.2)">
      <defs>
       <path id="DejaVuSans-54" d="M -19 4666 
L 3928 4666 
L 3928 4134 
L 2272 4134 
L 2272 0 
L 1638 0 
L 1638 4134 
L -19 4134 
L -19 4666 
z
" transform="scale(0.015625)"/>
       <path id="DejaVuSans-6f" d="M 1959 3097 
Q 1497 3097 1228 2736 
Q 959 2375 959 1747 
Q 959 1119 1226 758 
Q 1494 397 1959 397 
Q 2419 397 2687 759 
Q 2956 1122 2956 1747 
Q 2956 2369 2687 2733 
Q 2419 3097 1959 3097 
z
M 1959 3584 
Q 2709 3584 3137 3096 
Q 3566 2609 3566 1747 
Q 3566 888 3137 398 
Q 2709 -91 1959 -91 
Q 1206 -91 779 398 
Q 353 888 353 1747 
Q 353 2609 779 3096 
Q 1206 3584 1959 3584 
z
" transform="scale(0.015625)"/>
       <path id="DejaVuSans-74" d="M 1172 4494 
L 1172 3500 
L 2356 3500 
L 2356 3053 
L 1172 3053 
L 1172 1153 
Q 1172 725 1289 603 
Q 1406 481 1766 481 
L 2356 481 
L 2356 0 
L 1766 0 
Q 1100 0 847 248 
Q 594 497 594 1153 
L 594 3053 
L 172 3053 
L 172 3500 
L 594 3500 
L 594 4494 
L 1172 4494 
z
" transform="scale(0.015625)"/>
       <path id="DejaVuSans-61" d="M 2194 1759 
Q 1497 1759 1228 1600 
Q 959 1441 959 1056 
Q 959 750 1161 570 
Q 1363 391 1709 391 
Q 2188 391 2477 730 
Q 2766 1069 2766 1631 
L 2766 1759 
L 2194 1759 
z
M 3341 1997 
L 3341 0 
L 2766 0 
L 2766 531 
Q 2569 213 2275 61 
Q 1981 -91 1556 -91 
Q 1019 -91 701 211 
Q 384 513 384 1019 
Q 384 1609 779 1909 
Q 1175 2209 1959 2209 
L 2766 2209 
L 2766 2266 
Q 2766 2663 2505 2880 
Q 2244 3097 1772 3097 
Q 1472 3097 1187 3025 
Q 903 2953 641 2809 
L 641 3341 
Q 956 3463 1253 3523 
Q 1550 3584 1831 3584 
Q 2591 3584 2966 3190 
Q 3341 2797 3341 1997 
z
" transform="scale(0.015625)"/>
       <path id="DejaVuSans-6c" d="M 603 4863 
L 1178 4863 
L 1178 0 
L 603 0 
L 603 4863 
z
" transform="scale(0.015625)"/>
       <path id="DejaVuSans-20" transform="scale(0.015625)"/>
       <path id="DejaVuSans-43" d="M 4122 4306 
L 4122 3641 
Q 3803 3938 3442 4084 
Q 3081 4231 2675 4231 
Q 1875 4231 1450 3742 
Q 1025 3253 1025 2328 
Q 1025 1406 1450 917 
Q 1875 428 2675 428 
Q 3081 428 3442 575 
Q 3803 722 4122 1019 
L 4122 359 
Q 3791 134 3420 21 
Q 3050 -91 2638 -91 
Q 1578 -91 968 557 
Q 359 1206 359 2328 
Q 359 3453 968 4101 
Q 1578 4750 2638 4750 
Q 3056 4750 3426 4639 
Q 3797 4528 4122 4306 
z
" transform="scale(0.015625)"/>
       <path id="DejaVuSans-73" d="M 2834 3397 
L 2834 2853 
Q 2591 2978 2328 3040 
Q 2066 3103 1784 3103 
Q 1356 3103 1142 2972 
Q 928 2841 928 2578 
Q 928 2378 1081 2264 
Q 1234 2150 1697 2047 
L 1894 2003 
Q 2506 1872 2764 1633 
Q 3022 1394 3022 966 
Q 3022 478 2636 193 
Q 2250 -91 1575 -91 
Q 1294 -91 989 -36 
Q 684 19 347 128 
L 347 722 
Q 666 556 975 473 
Q 1284 391 1588 391 
Q 1994 391 2212 530 
Q 2431 669 2431 922 
Q 2431 1156 2273 1281 
Q 2116 1406 1581 1522 
L 1381 1569 
Q 847 1681 609 1914 
Q 372 2147 372 2553 
Q 372 3047 722 3315 
Q 1072 3584 1716 3584 
Q 2034 3584 2315 3537 
Q 2597 3491 2834 3397 
z
" transform="scale(0.015625)"/>
      </defs>
      <use xlink:href="#DejaVuSans-54"/>
      <use xlink:href="#DejaVuSans-6f" transform="translate(44.083984 0)"/>
      <use xlink:href="#DejaVuSans-74" transform="translate(105.265625 0)"/>
      <use xlink:href="#DejaVuSans-61" transform="translate(144.474609 0)"/>
      <use xlink:href="#DejaVuSans-6c" transform="translate(205.753906 0)"/>
      <use xlink:href="#DejaVuSans-20" transform="translate(233.537109 0)"/>
      <use xlink:href="#DejaVuSans-43" transform="translate(265.324219 0)"/>
      <use xlink:href="#DejaVuSans-6f" transform="translate(335.148438 0)"/>
      <use xlink:href="#DejaVuSans-73" transform="translate(396.330078 0)"/>
      <use xlink:href="#DejaVuSans-74" transform="translate(448.429688 0)"/>
     </g>
    </g>
   </g>
   <g id="matplotlib.axis_2">
    <g id="ytick_1">
     <g id="line2d_15">
      <path d="M 70.67 487.822769 
L 672.56 487.822769 
" clip-path="url(#p9235095789)" style="fill: none; stroke-dasharray: 2.96,1.28; stroke-dashoffset: 0; stroke: #b0b0b0; stroke-opacity: 0.7; stroke-width: 0.8"/>
     </g>
     <g id="line2d_16">
      <defs>
       <path id="mb167e08bed" d="M 0 0 
L -3.5 0 
" style="stroke: #000000; stroke-width: 0.8"/>
      </defs>
      <g>
       <use xlink:href="#mb167e08bed" x="70.67" y="487.822769" style="stroke: #000000; stroke-width: 0.8"/>
      </g>
     </g>
     <g id="text_9">
      <!-- 0.4 -->
      <g transform="translate(35.044375 494.661363) scale(0.18 -0.18)">
       <defs>
        <path id="DejaVuSans-2e" d="M 684 794 
L 1344 794 
L 1344 0 
L 684 0 
L 684 794 
z
" transform="scale(0.015625)"/>
       </defs>
       <use xlink:href="#DejaVuSans-30"/>
       <use xlink:href="#DejaVuSans-2e" transform="translate(63.623047 0)"/>
       <use xlink:href="#DejaVuSans-34" transform="translate(95.410156 0)"/>
      </g>
     </g>
    </g>
    <g id="ytick_2">
     <g id="line2d_17">
      <path d="M 70.67 422.744976 
L 672.56 422.744976 
" clip-path="url(#p9235095789)" style="fill: none; stroke-dasharray: 2.96,1.28; stroke-dashoffset: 0; stroke: #b0b0b0; stroke-opacity: 0.7; stroke-width: 0.8"/>
     </g>
     <g id="line2d_18">
      <g>
       <use xlink:href="#mb167e08bed" x="70.67" y="422.744976" style="stroke: #000000; stroke-width: 0.8"/>
      </g>
     </g>
     <g id="text_10">
      <!-- 0.5 -->
      <g transform="translate(35.044375 429.58357) scale(0.18 -0.18)">
       <use xlink:href="#DejaVuSans-30"/>
       <use xlink:href="#DejaVuSans-2e" transform="translate(63.623047 0)"/>
       <use xlink:href="#DejaVuSans-35" transform="translate(95.410156 0)"/>
      </g>
     </g>
    </g>
    <g id="ytick_3">
     <g id="line2d_19">
      <path d="M 70.67 357.667184 
L 672.56 357.667184 
" clip-path="url(#p9235095789)" style="fill: none; stroke-dasharray: 2.96,1.28; stroke-dashoffset: 0; stroke: #b0b0b0; stroke-opacity: 0.7; stroke-width: 0.8"/>
     </g>
     <g id="line2d_20">
      <g>
       <use xlink:href="#mb167e08bed" x="70.67" y="357.667184" style="stroke: #000000; stroke-width: 0.8"/>
      </g>
     </g>
     <g id="text_11">
      <!-- 0.6 -->
      <g transform="translate(35.044375 364.505778) scale(0.18 -0.18)">
       <use xlink:href="#DejaVuSans-30"/>
       <use xlink:href="#DejaVuSans-2e" transform="translate(63.623047 0)"/>
       <use xlink:href="#DejaVuSans-36" transform="translate(95.410156 0)"/>
      </g>
     </g>
    </g>
    <g id="ytick_4">
     <g id="line2d_21">
      <path d="M 70.67 292.589391 
L 672.56 292.589391 
" clip-path="url(#p9235095789)" style="fill: none; stroke-dasharray: 2.96,1.28; stroke-dashoffset: 0; stroke: #b0b0b0; stroke-opacity: 0.7; stroke-width: 0.8"/>
     </g>
     <g id="line2d_22">
      <g>
       <use xlink:href="#mb167e08bed" x="70.67" y="292.589391" style="stroke: #000000; stroke-width: 0.8"/>
      </g>
     </g>
     <g id="text_12">
      <!-- 0.7 -->
      <g transform="translate(35.044375 299.427985) scale(0.18 -0.18)">
       <use xlink:href="#DejaVuSans-30"/>
       <use xlink:href="#DejaVuSans-2e" transform="translate(63.623047 0)"/>
       <use xlink:href="#DejaVuSans-37" transform="translate(95.410156 0)"/>
      </g>
     </g>
    </g>
    <g id="ytick_5">
     <g id="line2d_23">
      <path d="M 70.67 227.511599 
L 672.56 227.511599 
" clip-path="url(#p9235095789)" style="fill: none; stroke-dasharray: 2.96,1.28; stroke-dashoffset: 0; stroke: #b0b0b0; stroke-opacity: 0.7; stroke-width: 0.8"/>
     </g>
     <g id="line2d_24">
      <g>
       <use xlink:href="#mb167e08bed" x="70.67" y="227.511599" style="stroke: #000000; stroke-width: 0.8"/>
      </g>
     </g>
     <g id="text_13">
      <!-- 0.8 -->
      <g transform="translate(35.044375 234.350193) scale(0.18 -0.18)">
       <defs>
        <path id="DejaVuSans-38" d="M 2034 2216 
Q 1584 2216 1326 1975 
Q 1069 1734 1069 1313 
Q 1069 891 1326 650 
Q 1584 409 2034 409 
Q 2484 409 2743 651 
Q 3003 894 3003 1313 
Q 3003 1734 2745 1975 
Q 2488 2216 2034 2216 
z
M 1403 2484 
Q 997 2584 770 2862 
Q 544 3141 544 3541 
Q 544 4100 942 4425 
Q 1341 4750 2034 4750 
Q 2731 4750 3128 4425 
Q 3525 4100 3525 3541 
Q 3525 3141 3298 2862 
Q 3072 2584 2669 2484 
Q 3125 2378 3379 2068 
Q 3634 1759 3634 1313 
Q 3634 634 3220 271 
Q 2806 -91 2034 -91 
Q 1263 -91 848 271 
Q 434 634 434 1313 
Q 434 1759 690 2068 
Q 947 2378 1403 2484 
z
M 1172 3481 
Q 1172 3119 1398 2916 
Q 1625 2713 2034 2713 
Q 2441 2713 2670 2916 
Q 2900 3119 2900 3481 
Q 2900 3844 2670 4047 
Q 2441 4250 2034 4250 
Q 1625 4250 1398 4047 
Q 1172 3844 1172 3481 
z
" transform="scale(0.015625)"/>
       </defs>
       <use xlink:href="#DejaVuSans-30"/>
       <use xlink:href="#DejaVuSans-2e" transform="translate(63.623047 0)"/>
       <use xlink:href="#DejaVuSans-38" transform="translate(95.410156 0)"/>
      </g>
     </g>
    </g>
    <g id="ytick_6">
     <g id="line2d_25">
      <path d="M 70.67 162.433806 
L 672.56 162.433806 
" clip-path="url(#p9235095789)" style="fill: none; stroke-dasharray: 2.96,1.28; stroke-dashoffset: 0; stroke: #b0b0b0; stroke-opacity: 0.7; stroke-width: 0.8"/>
     </g>
     <g id="line2d_26">
      <g>
       <use xlink:href="#mb167e08bed" x="70.67" y="162.433806" style="stroke: #000000; stroke-width: 0.8"/>
      </g>
     </g>
     <g id="text_14">
      <!-- 0.9 -->
      <g transform="translate(35.044375 169.2724) scale(0.18 -0.18)">
       <defs>
        <path id="DejaVuSans-39" d="M 703 97 
L 703 672 
Q 941 559 1184 500 
Q 1428 441 1663 441 
Q 2288 441 2617 861 
Q 2947 1281 2994 2138 
Q 2813 1869 2534 1725 
Q 2256 1581 1919 1581 
Q 1219 1581 811 2004 
Q 403 2428 403 3163 
Q 403 3881 828 4315 
Q 1253 4750 1959 4750 
Q 2769 4750 3195 4129 
Q 3622 3509 3622 2328 
Q 3622 1225 3098 567 
Q 2575 -91 1691 -91 
Q 1453 -91 1209 -44 
Q 966 3 703 97 
z
M 1959 2075 
Q 2384 2075 2632 2365 
Q 2881 2656 2881 3163 
Q 2881 3666 2632 3958 
Q 2384 4250 1959 4250 
Q 1534 4250 1286 3958 
Q 1038 3666 1038 3163 
Q 1038 2656 1286 2365 
Q 1534 2075 1959 2075 
z
" transform="scale(0.015625)"/>
       </defs>
       <use xlink:href="#DejaVuSans-30"/>
       <use xlink:href="#DejaVuSans-2e" transform="translate(63.623047 0)"/>
       <use xlink:href="#DejaVuSans-39" transform="translate(95.410156 0)"/>
      </g>
     </g>
    </g>
    <g id="ytick_7">
     <g id="line2d_27">
      <path d="M 70.67 97.356014 
L 672.56 97.356014 
" clip-path="url(#p9235095789)" style="fill: none; stroke-dasharray: 2.96,1.28; stroke-dashoffset: 0; stroke: #b0b0b0; stroke-opacity: 0.7; stroke-width: 0.8"/>
     </g>
     <g id="line2d_28">
      <g>
       <use xlink:href="#mb167e08bed" x="70.67" y="97.356014" style="stroke: #000000; stroke-width: 0.8"/>
      </g>
     </g>
     <g id="text_15">
      <!-- 1.0 -->
      <g transform="translate(35.044375 104.194607) scale(0.18 -0.18)">
       <use xlink:href="#DejaVuSans-31"/>
       <use xlink:href="#DejaVuSans-2e" transform="translate(63.623047 0)"/>
       <use xlink:href="#DejaVuSans-30" transform="translate(95.410156 0)"/>
      </g>
     </g>
    </g>
    <g id="ytick_8">
     <g id="line2d_29">
      <path d="M 70.67 32.278221 
L 672.56 32.278221 
" clip-path="url(#p9235095789)" style="fill: none; stroke-dasharray: 2.96,1.28; stroke-dashoffset: 0; stroke: #b0b0b0; stroke-opacity: 0.7; stroke-width: 0.8"/>
     </g>
     <g id="line2d_30">
      <g>
       <use xlink:href="#mb167e08bed" x="70.67" y="32.278221" style="stroke: #000000; stroke-width: 0.8"/>
      </g>
     </g>
     <g id="text_16">
      <!-- 1.1 -->
      <g transform="translate(35.044375 39.116815) scale(0.18 -0.18)">
       <use xlink:href="#DejaVuSans-31"/>
       <use xlink:href="#DejaVuSans-2e" transform="translate(63.623047 0)"/>
       <use xlink:href="#DejaVuSans-31" transform="translate(95.410156 0)"/>
      </g>
     </g>
    </g>
    <g id="text_17">
     <!-- Total Latency (s) -->
     <g transform="translate(26.885 351.49) rotate(-90) scale(0.2 -0.2)">
      <defs>
       <path id="DejaVuSans-4c" d="M 628 4666 
L 1259 4666 
L 1259 531 
L 3531 531 
L 3531 0 
L 628 0 
L 628 4666 
z
" transform="scale(0.015625)"/>
       <path id="DejaVuSans-65" d="M 3597 1894 
L 3597 1613 
L 953 1613 
Q 991 1019 1311 708 
Q 1631 397 2203 397 
Q 2534 397 2845 478 
Q 3156 559 3463 722 
L 3463 178 
Q 3153 47 2828 -22 
Q 2503 -91 2169 -91 
Q 1331 -91 842 396 
Q 353 884 353 1716 
Q 353 2575 817 3079 
Q 1281 3584 2069 3584 
Q 2775 3584 3186 3129 
Q 3597 2675 3597 1894 
z
M 3022 2063 
Q 3016 2534 2758 2815 
Q 2500 3097 2075 3097 
Q 1594 3097 1305 2825 
Q 1016 2553 972 2059 
L 3022 2063 
z
" transform="scale(0.015625)"/>
       <path id="DejaVuSans-6e" d="M 3513 2113 
L 3513 0 
L 2938 0 
L 2938 2094 
Q 2938 2591 2744 2837 
Q 2550 3084 2163 3084 
Q 1697 3084 1428 2787 
Q 1159 2491 1159 1978 
L 1159 0 
L 581 0 
L 581 3500 
L 1159 3500 
L 1159 2956 
Q 1366 3272 1645 3428 
Q 1925 3584 2291 3584 
Q 2894 3584 3203 3211 
Q 3513 2838 3513 2113 
z
" transform="scale(0.015625)"/>
       <path id="DejaVuSans-63" d="M 3122 3366 
L 3122 2828 
Q 2878 2963 2633 3030 
Q 2388 3097 2138 3097 
Q 1578 3097 1268 2742 
Q 959 2388 959 1747 
Q 959 1106 1268 751 
Q 1578 397 2138 397 
Q 2388 397 2633 464 
Q 2878 531 3122 666 
L 3122 134 
Q 2881 22 2623 -34 
Q 2366 -91 2075 -91 
Q 1284 -91 818 406 
Q 353 903 353 1747 
Q 353 2603 823 3093 
Q 1294 3584 2113 3584 
Q 2378 3584 2631 3529 
Q 2884 3475 3122 3366 
z
" transform="scale(0.015625)"/>
       <path id="DejaVuSans-79" d="M 2059 -325 
Q 1816 -950 1584 -1140 
Q 1353 -1331 966 -1331 
L 506 -1331 
L 506 -850 
L 844 -850 
Q 1081 -850 1212 -737 
Q 1344 -625 1503 -206 
L 1606 56 
L 191 3500 
L 800 3500 
L 1894 763 
L 2988 3500 
L 3597 3500 
L 2059 -325 
z
" transform="scale(0.015625)"/>
       <path id="DejaVuSans-28" d="M 1984 4856 
Q 1566 4138 1362 3434 
Q 1159 2731 1159 2009 
Q 1159 1288 1364 580 
Q 1569 -128 1984 -844 
L 1484 -844 
Q 1016 -109 783 600 
Q 550 1309 550 2009 
Q 550 2706 781 3412 
Q 1013 4119 1484 4856 
L 1984 4856 
z
" transform="scale(0.015625)"/>
       <path id="DejaVuSans-29" d="M 513 4856 
L 1013 4856 
Q 1481 4119 1714 3412 
Q 1947 2706 1947 2009 
Q 1947 1309 1714 600 
Q 1481 -109 1013 -844 
L 513 -844 
Q 928 -128 1133 580 
Q 1338 1288 1338 2009 
Q 1338 2731 1133 3434 
Q 928 4138 513 4856 
z
" transform="scale(0.015625)"/>
      </defs>
      <use xlink:href="#DejaVuSans-54"/>
      <use xlink:href="#DejaVuSans-6f" transform="translate(44.083984 0)"/>
      <use xlink:href="#DejaVuSans-74" transform="translate(105.265625 0)"/>
      <use xlink:href="#DejaVuSans-61" transform="translate(144.474609 0)"/>
      <use xlink:href="#DejaVuSans-6c" transform="translate(205.753906 0)"/>
      <use xlink:href="#DejaVuSans-20" transform="translate(233.537109 0)"/>
      <use xlink:href="#DejaVuSans-4c" transform="translate(265.324219 0)"/>
      <use xlink:href="#DejaVuSans-61" transform="translate(321.037109 0)"/>
      <use xlink:href="#DejaVuSans-74" transform="translate(382.316406 0)"/>
      <use xlink:href="#DejaVuSans-65" transform="translate(421.525391 0)"/>
      <use xlink:href="#DejaVuSans-6e" transform="translate(483.048828 0)"/>
      <use xlink:href="#DejaVuSans-63" transform="translate(546.427734 0)"/>
      <use xlink:href="#DejaVuSans-79" transform="translate(601.408203 0)"/>
      <use xlink:href="#DejaVuSans-20" transform="translate(660.587891 0)"/>
      <use xlink:href="#DejaVuSans-28" transform="translate(692.375 0)"/>
      <use xlink:href="#DejaVuSans-73" transform="translate(731.388672 0)"/>
      <use xlink:href="#DejaVuSans-29" transform="translate(783.488281 0)"/>
     </g>
    </g>
    <g id="text_18">
     <!-- 1e6 -->
     <g transform="translate(70.67 18.72) scale(0.1 -0.1)">
      <use xlink:href="#DejaVuSans-31"/>
      <use xlink:href="#DejaVuSans-65" transform="translate(63.623047 0)"/>
      <use xlink:href="#DejaVuSans-36" transform="translate(125.146484 0)"/>
     </g>
    </g>
   </g>
   <g id="patch_3">
    <path d="M 70.67 516.76 
L 70.67 21.72 
" style="fill: none; stroke: #000000; stroke-width: 0.8; stroke-linejoin: miter; stroke-linecap: square"/>
   </g>
   <g id="patch_4">
    <path d="M 672.56 516.76 
L 672.56 21.72 
" style="fill: none; stroke: #000000; stroke-width: 0.8; stroke-linejoin: miter; stroke-linecap: square"/>
   </g>
   <g id="patch_5">
    <path d="M 70.67 516.76 
L 672.56 516.76 
" style="fill: none; stroke: #000000; stroke-width: 0.8; stroke-linejoin: miter; stroke-linecap: square"/>
   </g>
   <g id="patch_6">
    <path d="M 70.67 21.72 
L 672.56 21.72 
" style="fill: none; stroke: #000000; stroke-width: 0.8; stroke-linejoin: miter; stroke-linecap: square"/>
   </g>
   <g id="text_19">
    <g id="patch_7">
     <path d="M 646.201364 497.417557 
L 719.123239 497.417557 
L 719.123239 470.061307 
L 646.201364 470.061307 
z
" style="fill: #ffffff; opacity: 0.7"/>
    </g>
    <!-- w=0.1 -->
    <g transform="translate(650.201364 489.258182) scale(0.2 -0.2)">
     <defs>
      <path id="DejaVuSans-77" d="M 269 3500 
L 844 3500 
L 1563 769 
L 2278 3500 
L 2956 3500 
L 3675 769 
L 4391 3500 
L 4966 3500 
L 4050 0 
L 3372 0 
L 2619 2869 
L 1863 0 
L 1184 0 
L 269 3500 
z
" transform="scale(0.015625)"/>
      <path id="DejaVuSans-3d" d="M 678 2906 
L 4684 2906 
L 4684 2381 
L 678 2381 
L 678 2906 
z
M 678 1631 
L 4684 1631 
L 4684 1100 
L 678 1100 
L 678 1631 
z
" transform="scale(0.015625)"/>
     </defs>
     <use xlink:href="#DejaVuSans-77"/>
     <use xlink:href="#DejaVuSans-3d" transform="translate(81.787109 0)"/>
     <use xlink:href="#DejaVuSans-30" transform="translate(165.576172 0)"/>
     <use xlink:href="#DejaVuSans-2e" transform="translate(229.199219 0)"/>
     <use xlink:href="#DejaVuSans-31" transform="translate(260.986328 0)"/>
    </g>
   </g>
   <g id="text_20">
    <g id="patch_8">
     <path d="M 646.201364 497.417557 
L 719.123239 497.417557 
L 719.123239 470.061307 
L 646.201364 470.061307 
z
" style="fill: #ffffff; opacity: 0.7"/>
    </g>
    <!-- w=0.2 -->
    <g transform="translate(650.201364 489.258182) scale(0.2 -0.2)">
     <use xlink:href="#DejaVuSans-77"/>
     <use xlink:href="#DejaVuSans-3d" transform="translate(81.787109 0)"/>
     <use xlink:href="#DejaVuSans-30" transform="translate(165.576172 0)"/>
     <use xlink:href="#DejaVuSans-2e" transform="translate(229.199219 0)"/>
     <use xlink:href="#DejaVuSans-32" transform="translate(260.986328 0)"/>
    </g>
   </g>
   <g id="text_21">
    <g id="patch_9">
     <path d="M 545.041271 462.51035 
L 617.963146 462.51035 
L 617.963146 435.1541 
L 545.041271 435.1541 
z
" style="fill: #ffffff; opacity: 0.7"/>
    </g>
    <!-- w=0.3 -->
    <g transform="translate(549.041271 454.350975) scale(0.2 -0.2)">
     <use xlink:href="#DejaVuSans-77"/>
     <use xlink:href="#DejaVuSans-3d" transform="translate(81.787109 0)"/>
     <use xlink:href="#DejaVuSans-30" transform="translate(165.576172 0)"/>
     <use xlink:href="#DejaVuSans-2e" transform="translate(229.199219 0)"/>
     <use xlink:href="#DejaVuSans-33" transform="translate(260.986328 0)"/>
    </g>
   </g>
   <g id="text_22">
    <g id="patch_10">
     <path d="M 508.42272 456.165525 
L 581.344595 456.165525 
L 581.344595 428.809275 
L 508.42272 428.809275 
z
" style="fill: #ffffff; opacity: 0.7"/>
    </g>
    <!-- w=0.4 -->
    <g transform="translate(512.42272 448.00615) scale(0.2 -0.2)">
     <use xlink:href="#DejaVuSans-77"/>
     <use xlink:href="#DejaVuSans-3d" transform="translate(81.787109 0)"/>
     <use xlink:href="#DejaVuSans-30" transform="translate(165.576172 0)"/>
     <use xlink:href="#DejaVuSans-2e" transform="translate(229.199219 0)"/>
     <use xlink:href="#DejaVuSans-34" transform="translate(260.986328 0)"/>
    </g>
   </g>
   <g id="text_23">
    <g id="patch_11">
     <path d="M 459.253391 441.539942 
L 532.175266 441.539942 
L 532.175266 414.183692 
L 459.253391 414.183692 
z
" style="fill: #ffffff; opacity: 0.7"/>
    </g>
    <!-- w=0.5 -->
    <g transform="translate(463.253391 433.380567) scale(0.2 -0.2)">
     <use xlink:href="#DejaVuSans-77"/>
     <use xlink:href="#DejaVuSans-3d" transform="translate(81.787109 0)"/>
     <use xlink:href="#DejaVuSans-30" transform="translate(165.576172 0)"/>
     <use xlink:href="#DejaVuSans-2e" transform="translate(229.199219 0)"/>
     <use xlink:href="#DejaVuSans-35" transform="translate(260.986328 0)"/>
    </g>
   </g>
   <g id="text_24">
    <g id="patch_12">
     <path d="M 364.321836 417.954188 
L 437.243711 417.954188 
L 437.243711 390.597938 
L 364.321836 390.597938 
z
" style="fill: #ffffff; opacity: 0.7"/>
    </g>
    <!-- w=0.6 -->
    <g transform="translate(368.321836 409.794813) scale(0.2 -0.2)">
     <use xlink:href="#DejaVuSans-77"/>
     <use xlink:href="#DejaVuSans-3d" transform="translate(81.787109 0)"/>
     <use xlink:href="#DejaVuSans-30" transform="translate(165.576172 0)"/>
     <use xlink:href="#DejaVuSans-2e" transform="translate(229.199219 0)"/>
     <use xlink:href="#DejaVuSans-36" transform="translate(260.986328 0)"/>
    </g>
   </g>
   <g id="text_25">
    <g id="patch_13">
     <path d="M 265.995681 383.166984 
L 338.917556 383.166984 
L 338.917556 355.810734 
L 265.995681 355.810734 
z
" style="fill: #ffffff; opacity: 0.7"/>
    </g>
    <!-- w=0.7 -->
    <g transform="translate(269.995681 375.007609) scale(0.2 -0.2)">
     <use xlink:href="#DejaVuSans-77"/>
     <use xlink:href="#DejaVuSans-3d" transform="translate(81.787109 0)"/>
     <use xlink:href="#DejaVuSans-30" transform="translate(165.576172 0)"/>
     <use xlink:href="#DejaVuSans-2e" transform="translate(229.199219 0)"/>
     <use xlink:href="#DejaVuSans-37" transform="translate(260.986328 0)"/>
    </g>
   </g>
   <g id="text_26">
    <g id="patch_14">
     <path d="M 210.381415 332.650998 
L 283.30329 332.650998 
L 283.30329 305.294748 
L 210.381415 305.294748 
z
" style="fill: #ffffff; opacity: 0.7"/>
    </g>
    <!-- w=0.8 -->
    <g transform="translate(214.381415 324.491623) scale(0.2 -0.2)">
     <use xlink:href="#DejaVuSans-77"/>
     <use xlink:href="#DejaVuSans-3d" transform="translate(81.787109 0)"/>
     <use xlink:href="#DejaVuSans-30" transform="translate(165.576172 0)"/>
     <use xlink:href="#DejaVuSans-2e" transform="translate(229.199219 0)"/>
     <use xlink:href="#DejaVuSans-38" transform="translate(260.986328 0)"/>
    </g>
   </g>
   <g id="text_27">
    <g id="patch_15">
     <path d="M 124.878747 76.580818 
L 197.800622 76.580818 
L 197.800622 49.224568 
L 124.878747 49.224568 
z
" style="fill: #ffffff; opacity: 0.7"/>
    </g>
    <!-- w=0.9 -->
    <g transform="translate(128.878747 68.421443) scale(0.2 -0.2)">
     <use xlink:href="#DejaVuSans-77"/>
     <use xlink:href="#DejaVuSans-3d" transform="translate(81.787109 0)"/>
     <use xlink:href="#DejaVuSans-30" transform="translate(165.576172 0)"/>
     <use xlink:href="#DejaVuSans-2e" transform="translate(229.199219 0)"/>
     <use xlink:href="#DejaVuSans-39" transform="translate(260.986328 0)"/>
    </g>
   </g>
   <g id="text_28">
    <g id="patch_16">
     <path d="M 99.028636 47.381193 
L 171.950511 47.381193 
L 171.950511 20.024943 
L 99.028636 20.024943 
z
" style="fill: #ffffff; opacity: 0.7"/>
    </g>
    <!-- w=1.0 -->
    <g transform="translate(103.028636 39.221818) scale(0.2 -0.2)">
     <use xlink:href="#DejaVuSans-77"/>
     <use xlink:href="#DejaVuSans-3d" transform="translate(81.787109 0)"/>
     <use xlink:href="#DejaVuSans-31" transform="translate(165.576172 0)"/>
     <use xlink:href="#DejaVuSans-2e" transform="translate(229.199219 0)"/>
     <use xlink:href="#DejaVuSans-30" transform="translate(260.986328 0)"/>
    </g>
   </g>
   <g id="legend_1">
    <g id="patch_17">
     <path d="M 716.6545 331.2825 
L 845.576375 331.2825 
Q 849.576375 331.2825 849.576375 327.2825 
L 849.576375 35.72 
Q 849.576375 31.72 845.576375 31.72 
L 716.6545 31.72 
Q 712.6545 31.72 712.6545 35.72 
L 712.6545 327.2825 
Q 712.6545 331.2825 716.6545 331.2825 
z
" style="fill: #ffffff; opacity: 0.8; stroke: #cccccc; stroke-linejoin: miter"/>
    </g>
    <g id="PathCollection_11">
     <g>
      <use xlink:href="#m0bd7fad45d" x="740.6545" y="49.666875" style="fill: #440154; fill-opacity: 0.7; stroke: #440154; stroke-opacity: 0.7"/>
     </g>
    </g>
    <g id="text_29">
     <!-- w=0.1 -->
     <g transform="translate(776.6545 54.916875) scale(0.2 -0.2)">
      <use xlink:href="#DejaVuSans-77"/>
      <use xlink:href="#DejaVuSans-3d" transform="translate(81.787109 0)"/>
      <use xlink:href="#DejaVuSans-30" transform="translate(165.576172 0)"/>
      <use xlink:href="#DejaVuSans-2e" transform="translate(229.199219 0)"/>
      <use xlink:href="#DejaVuSans-31" transform="translate(260.986328 0)"/>
     </g>
    </g>
    <g id="PathCollection_12">
     <g>
      <use xlink:href="#mfe130c999d" x="740.6545" y="79.023125" style="fill: #482878; fill-opacity: 0.7; stroke: #482878; stroke-opacity: 0.7"/>
     </g>
    </g>
    <g id="text_30">
     <!-- w=0.2 -->
     <g transform="translate(776.6545 84.273125) scale(0.2 -0.2)">
      <use xlink:href="#DejaVuSans-77"/>
      <use xlink:href="#DejaVuSans-3d" transform="translate(81.787109 0)"/>
      <use xlink:href="#DejaVuSans-30" transform="translate(165.576172 0)"/>
      <use xlink:href="#DejaVuSans-2e" transform="translate(229.199219 0)"/>
      <use xlink:href="#DejaVuSans-32" transform="translate(260.986328 0)"/>
     </g>
    </g>
    <g id="PathCollection_13">
     <g>
      <use xlink:href="#me26600579c" x="740.6545" y="108.379375" style="fill: #3e4989; fill-opacity: 0.7; stroke: #3e4989; stroke-opacity: 0.7"/>
     </g>
    </g>
    <g id="text_31">
     <!-- w=0.3 -->
     <g transform="translate(776.6545 113.629375) scale(0.2 -0.2)">
      <use xlink:href="#DejaVuSans-77"/>
      <use xlink:href="#DejaVuSans-3d" transform="translate(81.787109 0)"/>
      <use xlink:href="#DejaVuSans-30" transform="translate(165.576172 0)"/>
      <use xlink:href="#DejaVuSans-2e" transform="translate(229.199219 0)"/>
      <use xlink:href="#DejaVuSans-33" transform="translate(260.986328 0)"/>
     </g>
    </g>
    <g id="PathCollection_14">
     <g>
      <use xlink:href="#m6fa6bca509" x="740.6545" y="137.735625" style="fill: #31688e; fill-opacity: 0.7; stroke: #31688e; stroke-opacity: 0.7"/>
     </g>
    </g>
    <g id="text_32">
     <!-- w=0.4 -->
     <g transform="translate(776.6545 142.985625) scale(0.2 -0.2)">
      <use xlink:href="#DejaVuSans-77"/>
      <use xlink:href="#DejaVuSans-3d" transform="translate(81.787109 0)"/>
      <use xlink:href="#DejaVuSans-30" transform="translate(165.576172 0)"/>
      <use xlink:href="#DejaVuSans-2e" transform="translate(229.199219 0)"/>
      <use xlink:href="#DejaVuSans-34" transform="translate(260.986328 0)"/>
     </g>
    </g>
    <g id="PathCollection_15">
     <g>
      <use xlink:href="#m62ffc105c1" x="740.6545" y="167.091875" style="fill: #26828e; fill-opacity: 0.7; stroke: #26828e; stroke-opacity: 0.7"/>
     </g>
    </g>
    <g id="text_33">
     <!-- w=0.5 -->
     <g transform="translate(776.6545 172.341875) scale(0.2 -0.2)">
      <use xlink:href="#DejaVuSans-77"/>
      <use xlink:href="#DejaVuSans-3d" transform="translate(81.787109 0)"/>
      <use xlink:href="#DejaVuSans-30" transform="translate(165.576172 0)"/>
      <use xlink:href="#DejaVuSans-2e" transform="translate(229.199219 0)"/>
      <use xlink:href="#DejaVuSans-35" transform="translate(260.986328 0)"/>
     </g>
    </g>
    <g id="PathCollection_16">
     <g>
      <use xlink:href="#mdacf8eaae6" x="740.6545" y="196.448125" style="fill: #1f9e89; fill-opacity: 0.7; stroke: #1f9e89; stroke-opacity: 0.7"/>
     </g>
    </g>
    <g id="text_34">
     <!-- w=0.6 -->
     <g transform="translate(776.6545 201.698125) scale(0.2 -0.2)">
      <use xlink:href="#DejaVuSans-77"/>
      <use xlink:href="#DejaVuSans-3d" transform="translate(81.787109 0)"/>
      <use xlink:href="#DejaVuSans-30" transform="translate(165.576172 0)"/>
      <use xlink:href="#DejaVuSans-2e" transform="translate(229.199219 0)"/>
      <use xlink:href="#DejaVuSans-36" transform="translate(260.986328 0)"/>
     </g>
    </g>
    <g id="PathCollection_17">
     <g>
      <use xlink:href="#m5b4c94a97b" x="740.6545" y="225.804375" style="fill: #35b779; fill-opacity: 0.7; stroke: #35b779; stroke-opacity: 0.7"/>
     </g>
    </g>
    <g id="text_35">
     <!-- w=0.7 -->
     <g transform="translate(776.6545 231.054375) scale(0.2 -0.2)">
      <use xlink:href="#DejaVuSans-77"/>
      <use xlink:href="#DejaVuSans-3d" transform="translate(81.787109 0)"/>
      <use xlink:href="#DejaVuSans-30" transform="translate(165.576172 0)"/>
      <use xlink:href="#DejaVuSans-2e" transform="translate(229.199219 0)"/>
      <use xlink:href="#DejaVuSans-37" transform="translate(260.986328 0)"/>
     </g>
    </g>
    <g id="PathCollection_18">
     <g>
      <use xlink:href="#m6f039e021c" x="740.6545" y="255.160625" style="fill: #6ece58; fill-opacity: 0.7; stroke: #6ece58; stroke-opacity: 0.7"/>
     </g>
    </g>
    <g id="text_36">
     <!-- w=0.8 -->
     <g transform="translate(776.6545 260.410625) scale(0.2 -0.2)">
      <use xlink:href="#DejaVuSans-77"/>
      <use xlink:href="#DejaVuSans-3d" transform="translate(81.787109 0)"/>
      <use xlink:href="#DejaVuSans-30" transform="translate(165.576172 0)"/>
      <use xlink:href="#DejaVuSans-2e" transform="translate(229.199219 0)"/>
      <use xlink:href="#DejaVuSans-38" transform="translate(260.986328 0)"/>
     </g>
    </g>
    <g id="PathCollection_19">
     <g>
      <use xlink:href="#m9147047209" x="740.6545" y="284.516875" style="fill: #b5de2b; fill-opacity: 0.7; stroke: #b5de2b; stroke-opacity: 0.7"/>
     </g>
    </g>
    <g id="text_37">
     <!-- w=0.9 -->
     <g transform="translate(776.6545 289.766875) scale(0.2 -0.2)">
      <use xlink:href="#DejaVuSans-77"/>
      <use xlink:href="#DejaVuSans-3d" transform="translate(81.787109 0)"/>
      <use xlink:href="#DejaVuSans-30" transform="translate(165.576172 0)"/>
      <use xlink:href="#DejaVuSans-2e" transform="translate(229.199219 0)"/>
      <use xlink:href="#DejaVuSans-39" transform="translate(260.986328 0)"/>
     </g>
    </g>
    <g id="PathCollection_20">
     <g>
      <use xlink:href="#ma70c9e3e43" x="740.6545" y="313.873125" style="fill: #fde725; fill-opacity: 0.7; stroke: #fde725; stroke-opacity: 0.7"/>
     </g>
    </g>
    <g id="text_38">
     <!-- w=1.0 -->
     <g transform="translate(776.6545 319.123125) scale(0.2 -0.2)">
      <use xlink:href="#DejaVuSans-77"/>
      <use xlink:href="#DejaVuSans-3d" transform="translate(81.787109 0)"/>
      <use xlink:href="#DejaVuSans-31" transform="translate(165.576172 0)"/>
      <use xlink:href="#DejaVuSans-2e" transform="translate(229.199219 0)"/>
      <use xlink:href="#DejaVuSans-30" transform="translate(260.986328 0)"/>
     </g>
    </g>
   </g>
  </g>
 </g>
 <defs>
  <clipPath id="p9235095789">
   <rect x="70.67" y="21.72" width="601.89" height="495.04"/>
  </clipPath>
 </defs>
</svg>
