<?xml version="1.0" encoding="utf-8" standalone="no"?>
<!DOCTYPE svg PUBLIC "-//W3C//DTD SVG 1.1//EN"
  "http://www.w3.org/Graphics/SVG/1.1/DTD/svg11.dtd">
<svg xmlns:xlink="http://www.w3.org/1999/xlink" width="1008pt" height="576pt" viewBox="0 0 1008 576" xmlns="http://www.w3.org/2000/svg" version="1.1">
 <metadata>
  <rdf:RDF xmlns:dc="http://purl.org/dc/elements/1.1/" xmlns:cc="http://creativecommons.org/ns#" xmlns:rdf="http://www.w3.org/1999/02/22-rdf-syntax-ns#">
   <cc:Work>
    <dc:type rdf:resource="http://purl.org/dc/dcmitype/StillImage"/>
    <dc:date>2025-12-13T14:31:01.304761</dc:date>
    <dc:format>image/svg+xml</dc:format>
    <dc:creator>
     <cc:Agent>
      <dc:title>Matplotlib v3.10.0, https://matplotlib.org/</dc:title>
     </cc:Agent>
    </dc:creator>
   </cc:Work>
  </rdf:RDF>
 </metadata>
 <defs>
  <style type="text/css">*{stroke-linejoin: round; stroke-linecap: butt}</style>
 </defs>
 <g id="figure_1">
  <g id="patch_1">
   <path d="M 0 576 
L 1008 576 
L 1008 0 
L 0 0 
z
" style="fill: #ffffff"/>
  </g>
  <g id="axes_1">
   <g id="patch_2">
    <path d="M 110.63 516.76 
L 801.08 516.76 
L 801.08 11.48 
L 110.63 11.48 
z
" style="fill: #ffffff"/>
   </g>
   <g id="PathCollection_1">
    <defs>
     <path id="m8568a366a1" d="M 0 -5 
L -1.12257 -1.545085 
L -4.755283 -1.545085 
L -1.816356 0.59017 
L -2.938926 4.045085 
L -0 1.90983 
L 2.938926 4.045085 
L 1.816356 0.59017 
L 4.755283 -1.545085 
L 1.12257 -1.545085 
z
" style="stroke: #66c2a5; stroke-opacity: 0.7"/>
    </defs>
    <g clip-path="url(#p2df229ff37)">
     <use xlink:href="#m8568a366a1" x="769.695909" y="493.792727" style="fill: #66c2a5; fill-opacity: 0.7; stroke: #66c2a5; stroke-opacity: 0.7"/>
    </g>
   </g>
   <g id="PathCollection_2">
    <defs>
     <path id="mfd585aa0eb" d="M 0 -5 
L -5 5 
L 5 5 
z
" style="stroke: #fc8d62; stroke-opacity: 0.7"/>
    </defs>
    <g clip-path="url(#p2df229ff37)">
     <use xlink:href="#mfd585aa0eb" x="267.544077" y="283.590353" style="fill: #fc8d62; fill-opacity: 0.7; stroke: #fc8d62; stroke-opacity: 0.7"/>
    </g>
   </g>
   <g id="PathCollection_3">
    <defs>
     <path id="m4e60688cd6" d="M -0 5 
L 5 -5 
L -5 -5 
z
" style="stroke: #8da0cb; stroke-opacity: 0.7"/>
    </defs>
    <g clip-path="url(#p2df229ff37)">
     <use xlink:href="#m4e60688cd6" x="529.447446" y="392.595419" style="fill: #8da0cb; fill-opacity: 0.7; stroke: #8da0cb; stroke-opacity: 0.7"/>
     <use xlink:href="#m4e60688cd6" x="260.557801" y="252.747538" style="fill: #8da0cb; fill-opacity: 0.7; stroke: #8da0cb; stroke-opacity: 0.7"/>
    </g>
   </g>
   <g id="PathCollection_4">
    <defs>
     <path id="mbd0625858e" d="M -5 -0 
L 5 5 
L 5 -5 
z
" style="stroke: #e78ac3; stroke-opacity: 0.7"/>
    </defs>
    <g clip-path="url(#p2df229ff37)">
     <use xlink:href="#mbd0625858e" x="691.911369" y="444.585366" style="fill: #e78ac3; fill-opacity: 0.7; stroke: #e78ac3; stroke-opacity: 0.7"/>
    </g>
   </g>
   <g id="PathCollection_5">
    <defs>
     <path id="mb8f6780bd9" d="M 5 0 
L -5 -5 
L -5 5 
z
" style="stroke: #a6d854; stroke-opacity: 0.7"/>
    </defs>
    <g clip-path="url(#p2df229ff37)">
     <use xlink:href="#mb8f6780bd9" x="617.683294" y="409.810278" style="fill: #a6d854; fill-opacity: 0.7; stroke: #a6d854; stroke-opacity: 0.7"/>
     <use xlink:href="#mb8f6780bd9" x="355.280499" y="301.685933" style="fill: #a6d854; fill-opacity: 0.7; stroke: #a6d854; stroke-opacity: 0.7"/>
     <use xlink:href="#mb8f6780bd9" x="225.760517" y="191.387662" style="fill: #a6d854; fill-opacity: 0.7; stroke: #a6d854; stroke-opacity: 0.7"/>
     <use xlink:href="#mb8f6780bd9" x="191.068149" y="133.234211" style="fill: #a6d854; fill-opacity: 0.7; stroke: #a6d854; stroke-opacity: 0.7"/>
    </g>
   </g>
   <g id="PathCollection_6">
    <defs>
     <path id="m64b05f6c4c" d="M 0 -5 
L -4.755283 -1.545085 
L -2.938926 4.045085 
L 2.938926 4.045085 
L 4.755283 -1.545085 
z
" style="stroke: #ffd92f; stroke-opacity: 0.7"/>
    </defs>
    <g clip-path="url(#p2df229ff37)">
     <use xlink:href="#m64b05f6c4c" x="665.434006" y="424.564691" style="fill: #ffd92f; fill-opacity: 0.7; stroke: #ffd92f; stroke-opacity: 0.7"/>
     <use xlink:href="#m64b05f6c4c" x="479.173279" y="336.200831" style="fill: #ffd92f; fill-opacity: 0.7; stroke: #ffd92f; stroke-opacity: 0.7"/>
    </g>
   </g>
   <g id="PathCollection_7">
    <defs>
     <path id="m440b6df272" d="M 0 -5 
L -4.330127 -2.5 
L -4.330127 2.5 
L -0 5 
L 4.330127 2.5 
L 4.330127 -2.5 
z
" style="stroke: #e5c494; stroke-opacity: 0.7"/>
    </defs>
    <g clip-path="url(#p2df229ff37)">
     <use xlink:href="#m440b6df272" x="734.73719" y="476.372918" style="fill: #e5c494; fill-opacity: 0.7; stroke: #e5c494; stroke-opacity: 0.7"/>
    </g>
   </g>
   <g id="PathCollection_8">
    <defs>
     <path id="m5fab52f0fb" d="M -2.5 -4.330127 
L -5 -0 
L -2.5 4.330127 
L 2.5 4.330127 
L 5 0 
L 2.5 -4.330127 
z
" style="stroke: #b3b3b3; stroke-opacity: 0.7"/>
    </defs>
    <g clip-path="url(#p2df229ff37)">
     <use xlink:href="#m5fab52f0fb" x="506.555247" y="350.162285" style="fill: #b3b3b3; fill-opacity: 0.7; stroke: #b3b3b3; stroke-opacity: 0.7"/>
    </g>
   </g>
   <g id="PathCollection_9">
    <defs>
     <path id="m9274142837" d="M -1.666667 5 
L 1.666667 5 
L 1.666667 1.666667 
L 5 1.666667 
L 5 -1.666667 
L 1.666667 -1.666667 
L 1.666667 -5 
L -1.666667 -5 
L -1.666667 -1.666667 
L -5 -1.666667 
L -5 1.666667 
L -1.666667 1.666667 
z
" style="stroke: #b3b3b3; stroke-opacity: 0.7"/>
    </defs>
    <g clip-path="url(#p2df229ff37)">
     <use xlink:href="#m9274142837" x="144.640798" y="72.077737" style="fill: #b3b3b3; fill-opacity: 0.7; stroke: #b3b3b3; stroke-opacity: 0.7"/>
     <use xlink:href="#m9274142837" x="142.014091" y="34.447273" style="fill: #b3b3b3; fill-opacity: 0.7; stroke: #b3b3b3; stroke-opacity: 0.7"/>
    </g>
   </g>
   <g id="matplotlib.axis_1">
    <g id="xtick_1">
     <g id="line2d_1">
      <path d="M 192.162192 516.76 
L 192.162192 11.48 
" clip-path="url(#p2df229ff37)" style="fill: none; stroke-dasharray: 2.96,1.28; stroke-dashoffset: 0; stroke: #b0b0b0; stroke-opacity: 0.7; stroke-width: 0.8"/>
     </g>
     <g id="line2d_2">
      <defs>
       <path id="m47a65760a8" d="M 0 0 
L 0 3.5 
" style="stroke: #000000; stroke-width: 0.8"/>
      </defs>
      <g>
       <use xlink:href="#m47a65760a8" x="192.162192" y="516.76" style="stroke: #000000; stroke-width: 0.8"/>
      </g>
     </g>
     <g id="text_1">
      <!-- 1100 -->
      <g transform="translate(169.257192 537.437188) scale(0.18 -0.18)">
       <defs>
        <path id="DejaVuSans-31" d="M 794 531 
L 1825 531 
L 1825 4091 
L 703 3866 
L 703 4441 
L 1819 4666 
L 2450 4666 
L 2450 531 
L 3481 531 
L 3481 0 
L 794 0 
L 794 531 
z
" transform="scale(0.015625)"/>
        <path id="DejaVuSans-30" d="M 2034 4250 
Q 1547 4250 1301 3770 
Q 1056 3291 1056 2328 
Q 1056 1369 1301 889 
Q 1547 409 2034 409 
Q 2525 409 2770 889 
Q 3016 1369 3016 2328 
Q 3016 3291 2770 3770 
Q 2525 4250 2034 4250 
z
M 2034 4750 
Q 2819 4750 3233 4129 
Q 3647 3509 3647 2328 
Q 3647 1150 3233 529 
Q 2819 -91 2034 -91 
Q 1250 -91 836 529 
Q 422 1150 422 2328 
Q 422 3509 836 4129 
Q 1250 4750 2034 4750 
z
" transform="scale(0.015625)"/>
       </defs>
       <use xlink:href="#DejaVuSans-31"/>
       <use xlink:href="#DejaVuSans-31" transform="translate(63.623047 0)"/>
       <use xlink:href="#DejaVuSans-30" transform="translate(127.246094 0)"/>
       <use xlink:href="#DejaVuSans-30" transform="translate(190.869141 0)"/>
      </g>
     </g>
    </g>
    <g id="xtick_2">
     <g id="line2d_3">
      <path d="M 281.09021 516.76 
L 281.09021 11.48 
" clip-path="url(#p2df229ff37)" style="fill: none; stroke-dasharray: 2.96,1.28; stroke-dashoffset: 0; stroke: #b0b0b0; stroke-opacity: 0.7; stroke-width: 0.8"/>
     </g>
     <g id="line2d_4">
      <g>
       <use xlink:href="#m47a65760a8" x="281.09021" y="516.76" style="stroke: #000000; stroke-width: 0.8"/>
      </g>
     </g>
     <g id="text_2">
      <!-- 1200 -->
      <g transform="translate(258.18521 537.437188) scale(0.18 -0.18)">
       <defs>
        <path id="DejaVuSans-32" d="M 1228 531 
L 3431 531 
L 3431 0 
L 469 0 
L 469 531 
Q 828 903 1448 1529 
Q 2069 2156 2228 2338 
Q 2531 2678 2651 2914 
Q 2772 3150 2772 3378 
Q 2772 3750 2511 3984 
Q 2250 4219 1831 4219 
Q 1534 4219 1204 4116 
Q 875 4013 500 3803 
L 500 4441 
Q 881 4594 1212 4672 
Q 1544 4750 1819 4750 
Q 2544 4750 2975 4387 
Q 3406 4025 3406 3419 
Q 3406 3131 3298 2873 
Q 3191 2616 2906 2266 
Q 2828 2175 2409 1742 
Q 1991 1309 1228 531 
z
" transform="scale(0.015625)"/>
       </defs>
       <use xlink:href="#DejaVuSans-31"/>
       <use xlink:href="#DejaVuSans-32" transform="translate(63.623047 0)"/>
       <use xlink:href="#DejaVuSans-30" transform="translate(127.246094 0)"/>
       <use xlink:href="#DejaVuSans-30" transform="translate(190.869141 0)"/>
      </g>
     </g>
    </g>
    <g id="xtick_3">
     <g id="line2d_5">
      <path d="M 370.018227 516.76 
L 370.018227 11.48 
" clip-path="url(#p2df229ff37)" style="fill: none; stroke-dasharray: 2.96,1.28; stroke-dashoffset: 0; stroke: #b0b0b0; stroke-opacity: 0.7; stroke-width: 0.8"/>
     </g>
     <g id="line2d_6">
      <g>
       <use xlink:href="#m47a65760a8" x="370.018227" y="516.76" style="stroke: #000000; stroke-width: 0.8"/>
      </g>
     </g>
     <g id="text_3">
      <!-- 1300 -->
      <g transform="translate(347.113227 537.437188) scale(0.18 -0.18)">
       <defs>
        <path id="DejaVuSans-33" d="M 2597 2516 
Q 3050 2419 3304 2112 
Q 3559 1806 3559 1356 
Q 3559 666 3084 287 
Q 2609 -91 1734 -91 
Q 1441 -91 1130 -33 
Q 819 25 488 141 
L 488 750 
Q 750 597 1062 519 
Q 1375 441 1716 441 
Q 2309 441 2620 675 
Q 2931 909 2931 1356 
Q 2931 1769 2642 2001 
Q 2353 2234 1838 2234 
L 1294 2234 
L 1294 2753 
L 1863 2753 
Q 2328 2753 2575 2939 
Q 2822 3125 2822 3475 
Q 2822 3834 2567 4026 
Q 2313 4219 1838 4219 
Q 1578 4219 1281 4162 
Q 984 4106 628 3988 
L 628 4550 
Q 988 4650 1302 4700 
Q 1616 4750 1894 4750 
Q 2613 4750 3031 4423 
Q 3450 4097 3450 3541 
Q 3450 3153 3228 2886 
Q 3006 2619 2597 2516 
z
" transform="scale(0.015625)"/>
       </defs>
       <use xlink:href="#DejaVuSans-31"/>
       <use xlink:href="#DejaVuSans-33" transform="translate(63.623047 0)"/>
       <use xlink:href="#DejaVuSans-30" transform="translate(127.246094 0)"/>
       <use xlink:href="#DejaVuSans-30" transform="translate(190.869141 0)"/>
      </g>
     </g>
    </g>
    <g id="xtick_4">
     <g id="line2d_7">
      <path d="M 458.946244 516.76 
L 458.946244 11.48 
" clip-path="url(#p2df229ff37)" style="fill: none; stroke-dasharray: 2.96,1.28; stroke-dashoffset: 0; stroke: #b0b0b0; stroke-opacity: 0.7; stroke-width: 0.8"/>
     </g>
     <g id="line2d_8">
      <g>
       <use xlink:href="#m47a65760a8" x="458.946244" y="516.76" style="stroke: #000000; stroke-width: 0.8"/>
      </g>
     </g>
     <g id="text_4">
      <!-- 1400 -->
      <g transform="translate(436.041244 537.437188) scale(0.18 -0.18)">
       <defs>
        <path id="DejaVuSans-34" d="M 2419 4116 
L 825 1625 
L 2419 1625 
L 2419 4116 
z
M 2253 4666 
L 3047 4666 
L 3047 1625 
L 3713 1625 
L 3713 1100 
L 3047 1100 
L 3047 0 
L 2419 0 
L 2419 1100 
L 313 1100 
L 313 1709 
L 2253 4666 
z
" transform="scale(0.015625)"/>
       </defs>
       <use xlink:href="#DejaVuSans-31"/>
       <use xlink:href="#DejaVuSans-34" transform="translate(63.623047 0)"/>
       <use xlink:href="#DejaVuSans-30" transform="translate(127.246094 0)"/>
       <use xlink:href="#DejaVuSans-30" transform="translate(190.869141 0)"/>
      </g>
     </g>
    </g>
    <g id="xtick_5">
     <g id="line2d_9">
      <path d="M 547.874262 516.76 
L 547.874262 11.48 
" clip-path="url(#p2df229ff37)" style="fill: none; stroke-dasharray: 2.96,1.28; stroke-dashoffset: 0; stroke: #b0b0b0; stroke-opacity: 0.7; stroke-width: 0.8"/>
     </g>
     <g id="line2d_10">
      <g>
       <use xlink:href="#m47a65760a8" x="547.874262" y="516.76" style="stroke: #000000; stroke-width: 0.8"/>
      </g>
     </g>
     <g id="text_5">
      <!-- 1500 -->
      <g transform="translate(524.969262 537.437188) scale(0.18 -0.18)">
       <defs>
        <path id="DejaVuSans-35" d="M 691 4666 
L 3169 4666 
L 3169 4134 
L 1269 4134 
L 1269 2991 
Q 1406 3038 1543 3061 
Q 1681 3084 1819 3084 
Q 2600 3084 3056 2656 
Q 3513 2228 3513 1497 
Q 3513 744 3044 326 
Q 2575 -91 1722 -91 
Q 1428 -91 1123 -41 
Q 819 9 494 109 
L 494 744 
Q 775 591 1075 516 
Q 1375 441 1709 441 
Q 2250 441 2565 725 
Q 2881 1009 2881 1497 
Q 2881 1984 2565 2268 
Q 2250 2553 1709 2553 
Q 1456 2553 1204 2497 
Q 953 2441 691 2322 
L 691 4666 
z
" transform="scale(0.015625)"/>
       </defs>
       <use xlink:href="#DejaVuSans-31"/>
       <use xlink:href="#DejaVuSans-35" transform="translate(63.623047 0)"/>
       <use xlink:href="#DejaVuSans-30" transform="translate(127.246094 0)"/>
       <use xlink:href="#DejaVuSans-30" transform="translate(190.869141 0)"/>
      </g>
     </g>
    </g>
    <g id="xtick_6">
     <g id="line2d_11">
      <path d="M 636.802279 516.76 
L 636.802279 11.48 
" clip-path="url(#p2df229ff37)" style="fill: none; stroke-dasharray: 2.96,1.28; stroke-dashoffset: 0; stroke: #b0b0b0; stroke-opacity: 0.7; stroke-width: 0.8"/>
     </g>
     <g id="line2d_12">
      <g>
       <use xlink:href="#m47a65760a8" x="636.802279" y="516.76" style="stroke: #000000; stroke-width: 0.8"/>
      </g>
     </g>
     <g id="text_6">
      <!-- 1600 -->
      <g transform="translate(613.897279 537.437188) scale(0.18 -0.18)">
       <defs>
        <path id="DejaVuSans-36" d="M 2113 2584 
Q 1688 2584 1439 2293 
Q 1191 2003 1191 1497 
Q 1191 994 1439 701 
Q 1688 409 2113 409 
Q 2538 409 2786 701 
Q 3034 994 3034 1497 
Q 3034 2003 2786 2293 
Q 2538 2584 2113 2584 
z
M 3366 4563 
L 3366 3988 
Q 3128 4100 2886 4159 
Q 2644 4219 2406 4219 
Q 1781 4219 1451 3797 
Q 1122 3375 1075 2522 
Q 1259 2794 1537 2939 
Q 1816 3084 2150 3084 
Q 2853 3084 3261 2657 
Q 3669 2231 3669 1497 
Q 3669 778 3244 343 
Q 2819 -91 2113 -91 
Q 1303 -91 875 529 
Q 447 1150 447 2328 
Q 447 3434 972 4092 
Q 1497 4750 2381 4750 
Q 2619 4750 2861 4703 
Q 3103 4656 3366 4563 
z
" transform="scale(0.015625)"/>
       </defs>
       <use xlink:href="#DejaVuSans-31"/>
       <use xlink:href="#DejaVuSans-36" transform="translate(63.623047 0)"/>
       <use xlink:href="#DejaVuSans-30" transform="translate(127.246094 0)"/>
       <use xlink:href="#DejaVuSans-30" transform="translate(190.869141 0)"/>
      </g>
     </g>
    </g>
    <g id="xtick_7">
     <g id="line2d_13">
      <path d="M 725.730296 516.76 
L 725.730296 11.48 
" clip-path="url(#p2df229ff37)" style="fill: none; stroke-dasharray: 2.96,1.28; stroke-dashoffset: 0; stroke: #b0b0b0; stroke-opacity: 0.7; stroke-width: 0.8"/>
     </g>
     <g id="line2d_14">
      <g>
       <use xlink:href="#m47a65760a8" x="725.730296" y="516.76" style="stroke: #000000; stroke-width: 0.8"/>
      </g>
     </g>
     <g id="text_7">
      <!-- 1700 -->
      <g transform="translate(702.825296 537.437188) scale(0.18 -0.18)">
       <defs>
        <path id="DejaVuSans-37" d="M 525 4666 
L 3525 4666 
L 3525 4397 
L 1831 0 
L 1172 0 
L 2766 4134 
L 525 4134 
L 525 4666 
z
" transform="scale(0.015625)"/>
       </defs>
       <use xlink:href="#DejaVuSans-31"/>
       <use xlink:href="#DejaVuSans-37" transform="translate(63.623047 0)"/>
       <use xlink:href="#DejaVuSans-30" transform="translate(127.246094 0)"/>
       <use xlink:href="#DejaVuSans-30" transform="translate(190.869141 0)"/>
      </g>
     </g>
    </g>
    <g id="text_8">
     <!-- Total Cost -->
     <g transform="translate(407.0925 560.3775) scale(0.2 -0.2)">
      <defs>
       <path id="DejaVuSans-54" d="M -19 4666 
L 3928 4666 
L 3928 4134 
L 2272 4134 
L 2272 0 
L 1638 0 
L 1638 4134 
L -19 4134 
L -19 4666 
z
" transform="scale(0.015625)"/>
       <path id="DejaVuSans-6f" d="M 1959 3097 
Q 1497 3097 1228 2736 
Q 959 2375 959 1747 
Q 959 1119 1226 758 
Q 1494 397 1959 397 
Q 2419 397 2687 759 
Q 2956 1122 2956 1747 
Q 2956 2369 2687 2733 
Q 2419 3097 1959 3097 
z
M 1959 3584 
Q 2709 3584 3137 3096 
Q 3566 2609 3566 1747 
Q 3566 888 3137 398 
Q 2709 -91 1959 -91 
Q 1206 -91 779 398 
Q 353 888 353 1747 
Q 353 2609 779 3096 
Q 1206 3584 1959 3584 
z
" transform="scale(0.015625)"/>
       <path id="DejaVuSans-74" d="M 1172 4494 
L 1172 3500 
L 2356 3500 
L 2356 3053 
L 1172 3053 
L 1172 1153 
Q 1172 725 1289 603 
Q 1406 481 1766 481 
L 2356 481 
L 2356 0 
L 1766 0 
Q 1100 0 847 248 
Q 594 497 594 1153 
L 594 3053 
L 172 3053 
L 172 3500 
L 594 3500 
L 594 4494 
L 1172 4494 
z
" transform="scale(0.015625)"/>
       <path id="DejaVuSans-61" d="M 2194 1759 
Q 1497 1759 1228 1600 
Q 959 1441 959 1056 
Q 959 750 1161 570 
Q 1363 391 1709 391 
Q 2188 391 2477 730 
Q 2766 1069 2766 1631 
L 2766 1759 
L 2194 1759 
z
M 3341 1997 
L 3341 0 
L 2766 0 
L 2766 531 
Q 2569 213 2275 61 
Q 1981 -91 1556 -91 
Q 1019 -91 701 211 
Q 384 513 384 1019 
Q 384 1609 779 1909 
Q 1175 2209 1959 2209 
L 2766 2209 
L 2766 2266 
Q 2766 2663 2505 2880 
Q 2244 3097 1772 3097 
Q 1472 3097 1187 3025 
Q 903 2953 641 2809 
L 641 3341 
Q 956 3463 1253 3523 
Q 1550 3584 1831 3584 
Q 2591 3584 2966 3190 
Q 3341 2797 3341 1997 
z
" transform="scale(0.015625)"/>
       <path id="DejaVuSans-6c" d="M 603 4863 
L 1178 4863 
L 1178 0 
L 603 0 
L 603 4863 
z
" transform="scale(0.015625)"/>
       <path id="DejaVuSans-20" transform="scale(0.015625)"/>
       <path id="DejaVuSans-43" d="M 4122 4306 
L 4122 3641 
Q 3803 3938 3442 4084 
Q 3081 4231 2675 4231 
Q 1875 4231 1450 3742 
Q 1025 3253 1025 2328 
Q 1025 1406 1450 917 
Q 1875 428 2675 428 
Q 3081 428 3442 575 
Q 3803 722 4122 1019 
L 4122 359 
Q 3791 134 3420 21 
Q 3050 -91 2638 -91 
Q 1578 -91 968 557 
Q 359 1206 359 2328 
Q 359 3453 968 4101 
Q 1578 4750 2638 4750 
Q 3056 4750 3426 4639 
Q 3797 4528 4122 4306 
z
" transform="scale(0.015625)"/>
       <path id="DejaVuSans-73" d="M 2834 3397 
L 2834 2853 
Q 2591 2978 2328 3040 
Q 2066 3103 1784 3103 
Q 1356 3103 1142 2972 
Q 928 2841 928 2578 
Q 928 2378 1081 2264 
Q 1234 2150 1697 2047 
L 1894 2003 
Q 2506 1872 2764 1633 
Q 3022 1394 3022 966 
Q 3022 478 2636 193 
Q 2250 -91 1575 -91 
Q 1294 -91 989 -36 
Q 684 19 347 128 
L 347 722 
Q 666 556 975 473 
Q 1284 391 1588 391 
Q 1994 391 2212 530 
Q 2431 669 2431 922 
Q 2431 1156 2273 1281 
Q 2116 1406 1581 1522 
L 1381 1569 
Q 847 1681 609 1914 
Q 372 2147 372 2553 
Q 372 3047 722 3315 
Q 1072 3584 1716 3584 
Q 2034 3584 2315 3537 
Q 2597 3491 2834 3397 
z
" transform="scale(0.015625)"/>
      </defs>
      <use xlink:href="#DejaVuSans-54"/>
      <use xlink:href="#DejaVuSans-6f" transform="translate(44.083984 0)"/>
      <use xlink:href="#DejaVuSans-74" transform="translate(105.265625 0)"/>
      <use xlink:href="#DejaVuSans-61" transform="translate(144.474609 0)"/>
      <use xlink:href="#DejaVuSans-6c" transform="translate(205.753906 0)"/>
      <use xlink:href="#DejaVuSans-20" transform="translate(233.537109 0)"/>
      <use xlink:href="#DejaVuSans-43" transform="translate(265.324219 0)"/>
      <use xlink:href="#DejaVuSans-6f" transform="translate(335.148438 0)"/>
      <use xlink:href="#DejaVuSans-73" transform="translate(396.330078 0)"/>
      <use xlink:href="#DejaVuSans-74" transform="translate(448.429688 0)"/>
     </g>
    </g>
   </g>
   <g id="matplotlib.axis_2">
    <g id="ytick_1">
     <g id="line2d_15">
      <path d="M 110.63 481.030005 
L 801.08 481.030005 
" clip-path="url(#p2df229ff37)" style="fill: none; stroke-dasharray: 2.96,1.28; stroke-dashoffset: 0; stroke: #b0b0b0; stroke-opacity: 0.7; stroke-width: 0.8"/>
     </g>
     <g id="line2d_16">
      <defs>
       <path id="ma28dfc999f" d="M 0 0 
L -3.5 0 
" style="stroke: #000000; stroke-width: 0.8"/>
      </defs>
      <g>
       <use xlink:href="#ma28dfc999f" x="110.63" y="481.030005" style="stroke: #000000; stroke-width: 0.8"/>
      </g>
     </g>
     <g id="text_9">
      <!-- 400000 -->
      <g transform="translate(34.915 487.868599) scale(0.18 -0.18)">
       <use xlink:href="#DejaVuSans-34"/>
       <use xlink:href="#DejaVuSans-30" transform="translate(63.623047 0)"/>
       <use xlink:href="#DejaVuSans-30" transform="translate(127.246094 0)"/>
       <use xlink:href="#DejaVuSans-30" transform="translate(190.869141 0)"/>
       <use xlink:href="#DejaVuSans-30" transform="translate(254.492188 0)"/>
       <use xlink:href="#DejaVuSans-30" transform="translate(318.115234 0)"/>
      </g>
     </g>
    </g>
    <g id="ytick_2">
     <g id="line2d_17">
      <path d="M 110.63 416.498808 
L 801.08 416.498808 
" clip-path="url(#p2df229ff37)" style="fill: none; stroke-dasharray: 2.96,1.28; stroke-dashoffset: 0; stroke: #b0b0b0; stroke-opacity: 0.7; stroke-width: 0.8"/>
     </g>
     <g id="line2d_18">
      <g>
       <use xlink:href="#ma28dfc999f" x="110.63" y="416.498808" style="stroke: #000000; stroke-width: 0.8"/>
      </g>
     </g>
     <g id="text_10">
      <!-- 450000 -->
      <g transform="translate(34.915 423.337401) scale(0.18 -0.18)">
       <use xlink:href="#DejaVuSans-34"/>
       <use xlink:href="#DejaVuSans-35" transform="translate(63.623047 0)"/>
       <use xlink:href="#DejaVuSans-30" transform="translate(127.246094 0)"/>
       <use xlink:href="#DejaVuSans-30" transform="translate(190.869141 0)"/>
       <use xlink:href="#DejaVuSans-30" transform="translate(254.492188 0)"/>
       <use xlink:href="#DejaVuSans-30" transform="translate(318.115234 0)"/>
      </g>
     </g>
    </g>
    <g id="ytick_3">
     <g id="line2d_19">
      <path d="M 110.63 351.96761 
L 801.08 351.96761 
" clip-path="url(#p2df229ff37)" style="fill: none; stroke-dasharray: 2.96,1.28; stroke-dashoffset: 0; stroke: #b0b0b0; stroke-opacity: 0.7; stroke-width: 0.8"/>
     </g>
     <g id="line2d_20">
      <g>
       <use xlink:href="#ma28dfc999f" x="110.63" y="351.96761" style="stroke: #000000; stroke-width: 0.8"/>
      </g>
     </g>
     <g id="text_11">
      <!-- 500000 -->
      <g transform="translate(34.915 358.806204) scale(0.18 -0.18)">
       <use xlink:href="#DejaVuSans-35"/>
       <use xlink:href="#DejaVuSans-30" transform="translate(63.623047 0)"/>
       <use xlink:href="#DejaVuSans-30" transform="translate(127.246094 0)"/>
       <use xlink:href="#DejaVuSans-30" transform="translate(190.869141 0)"/>
       <use xlink:href="#DejaVuSans-30" transform="translate(254.492188 0)"/>
       <use xlink:href="#DejaVuSans-30" transform="translate(318.115234 0)"/>
      </g>
     </g>
    </g>
    <g id="ytick_4">
     <g id="line2d_21">
      <path d="M 110.63 287.436412 
L 801.08 287.436412 
" clip-path="url(#p2df229ff37)" style="fill: none; stroke-dasharray: 2.96,1.28; stroke-dashoffset: 0; stroke: #b0b0b0; stroke-opacity: 0.7; stroke-width: 0.8"/>
     </g>
     <g id="line2d_22">
      <g>
       <use xlink:href="#ma28dfc999f" x="110.63" y="287.436412" style="stroke: #000000; stroke-width: 0.8"/>
      </g>
     </g>
     <g id="text_12">
      <!-- 550000 -->
      <g transform="translate(34.915 294.275006) scale(0.18 -0.18)">
       <use xlink:href="#DejaVuSans-35"/>
       <use xlink:href="#DejaVuSans-35" transform="translate(63.623047 0)"/>
       <use xlink:href="#DejaVuSans-30" transform="translate(127.246094 0)"/>
       <use xlink:href="#DejaVuSans-30" transform="translate(190.869141 0)"/>
       <use xlink:href="#DejaVuSans-30" transform="translate(254.492188 0)"/>
       <use xlink:href="#DejaVuSans-30" transform="translate(318.115234 0)"/>
      </g>
     </g>
    </g>
    <g id="ytick_5">
     <g id="line2d_23">
      <path d="M 110.63 222.905215 
L 801.08 222.905215 
" clip-path="url(#p2df229ff37)" style="fill: none; stroke-dasharray: 2.96,1.28; stroke-dashoffset: 0; stroke: #b0b0b0; stroke-opacity: 0.7; stroke-width: 0.8"/>
     </g>
     <g id="line2d_24">
      <g>
       <use xlink:href="#ma28dfc999f" x="110.63" y="222.905215" style="stroke: #000000; stroke-width: 0.8"/>
      </g>
     </g>
     <g id="text_13">
      <!-- 600000 -->
      <g transform="translate(34.915 229.743808) scale(0.18 -0.18)">
       <use xlink:href="#DejaVuSans-36"/>
       <use xlink:href="#DejaVuSans-30" transform="translate(63.623047 0)"/>
       <use xlink:href="#DejaVuSans-30" transform="translate(127.246094 0)"/>
       <use xlink:href="#DejaVuSans-30" transform="translate(190.869141 0)"/>
       <use xlink:href="#DejaVuSans-30" transform="translate(254.492188 0)"/>
       <use xlink:href="#DejaVuSans-30" transform="translate(318.115234 0)"/>
      </g>
     </g>
    </g>
    <g id="ytick_6">
     <g id="line2d_25">
      <path d="M 110.63 158.374017 
L 801.08 158.374017 
" clip-path="url(#p2df229ff37)" style="fill: none; stroke-dasharray: 2.96,1.28; stroke-dashoffset: 0; stroke: #b0b0b0; stroke-opacity: 0.7; stroke-width: 0.8"/>
     </g>
     <g id="line2d_26">
      <g>
       <use xlink:href="#ma28dfc999f" x="110.63" y="158.374017" style="stroke: #000000; stroke-width: 0.8"/>
      </g>
     </g>
     <g id="text_14">
      <!-- 650000 -->
      <g transform="translate(34.915 165.212611) scale(0.18 -0.18)">
       <use xlink:href="#DejaVuSans-36"/>
       <use xlink:href="#DejaVuSans-35" transform="translate(63.623047 0)"/>
       <use xlink:href="#DejaVuSans-30" transform="translate(127.246094 0)"/>
       <use xlink:href="#DejaVuSans-30" transform="translate(190.869141 0)"/>
       <use xlink:href="#DejaVuSans-30" transform="translate(254.492188 0)"/>
       <use xlink:href="#DejaVuSans-30" transform="translate(318.115234 0)"/>
      </g>
     </g>
    </g>
    <g id="ytick_7">
     <g id="line2d_27">
      <path d="M 110.63 93.84282 
L 801.08 93.84282 
" clip-path="url(#p2df229ff37)" style="fill: none; stroke-dasharray: 2.96,1.28; stroke-dashoffset: 0; stroke: #b0b0b0; stroke-opacity: 0.7; stroke-width: 0.8"/>
     </g>
     <g id="line2d_28">
      <g>
       <use xlink:href="#ma28dfc999f" x="110.63" y="93.84282" style="stroke: #000000; stroke-width: 0.8"/>
      </g>
     </g>
     <g id="text_15">
      <!-- 700000 -->
      <g transform="translate(34.915 100.681413) scale(0.18 -0.18)">
       <use xlink:href="#DejaVuSans-37"/>
       <use xlink:href="#DejaVuSans-30" transform="translate(63.623047 0)"/>
       <use xlink:href="#DejaVuSans-30" transform="translate(127.246094 0)"/>
       <use xlink:href="#DejaVuSans-30" transform="translate(190.869141 0)"/>
       <use xlink:href="#DejaVuSans-30" transform="translate(254.492188 0)"/>
       <use xlink:href="#DejaVuSans-30" transform="translate(318.115234 0)"/>
      </g>
     </g>
    </g>
    <g id="ytick_8">
     <g id="line2d_29">
      <path d="M 110.63 29.311622 
L 801.08 29.311622 
" clip-path="url(#p2df229ff37)" style="fill: none; stroke-dasharray: 2.96,1.28; stroke-dashoffset: 0; stroke: #b0b0b0; stroke-opacity: 0.7; stroke-width: 0.8"/>
     </g>
     <g id="line2d_30">
      <g>
       <use xlink:href="#ma28dfc999f" x="110.63" y="29.311622" style="stroke: #000000; stroke-width: 0.8"/>
      </g>
     </g>
     <g id="text_16">
      <!-- 750000 -->
      <g transform="translate(34.915 36.150216) scale(0.18 -0.18)">
       <use xlink:href="#DejaVuSans-37"/>
       <use xlink:href="#DejaVuSans-35" transform="translate(63.623047 0)"/>
       <use xlink:href="#DejaVuSans-30" transform="translate(127.246094 0)"/>
       <use xlink:href="#DejaVuSans-30" transform="translate(190.869141 0)"/>
       <use xlink:href="#DejaVuSans-30" transform="translate(254.492188 0)"/>
       <use xlink:href="#DejaVuSans-30" transform="translate(318.115234 0)"/>
      </g>
     </g>
    </g>
    <g id="text_17">
     <!-- Total Latency (s) -->
     <g transform="translate(26.755625 346.37) rotate(-90) scale(0.2 -0.2)">
      <defs>
       <path id="DejaVuSans-4c" d="M 628 4666 
L 1259 4666 
L 1259 531 
L 3531 531 
L 3531 0 
L 628 0 
L 628 4666 
z
" transform="scale(0.015625)"/>
       <path id="DejaVuSans-65" d="M 3597 1894 
L 3597 1613 
L 953 1613 
Q 991 1019 1311 708 
Q 1631 397 2203 397 
Q 2534 397 2845 478 
Q 3156 559 3463 722 
L 3463 178 
Q 3153 47 2828 -22 
Q 2503 -91 2169 -91 
Q 1331 -91 842 396 
Q 353 884 353 1716 
Q 353 2575 817 3079 
Q 1281 3584 2069 3584 
Q 2775 3584 3186 3129 
Q 3597 2675 3597 1894 
z
M 3022 2063 
Q 3016 2534 2758 2815 
Q 2500 3097 2075 3097 
Q 1594 3097 1305 2825 
Q 1016 2553 972 2059 
L 3022 2063 
z
" transform="scale(0.015625)"/>
       <path id="DejaVuSans-6e" d="M 3513 2113 
L 3513 0 
L 2938 0 
L 2938 2094 
Q 2938 2591 2744 2837 
Q 2550 3084 2163 3084 
Q 1697 3084 1428 2787 
Q 1159 2491 1159 1978 
L 1159 0 
L 581 0 
L 581 3500 
L 1159 3500 
L 1159 2956 
Q 1366 3272 1645 3428 
Q 1925 3584 2291 3584 
Q 2894 3584 3203 3211 
Q 3513 2838 3513 2113 
z
" transform="scale(0.015625)"/>
       <path id="DejaVuSans-63" d="M 3122 3366 
L 3122 2828 
Q 2878 2963 2633 3030 
Q 2388 3097 2138 3097 
Q 1578 3097 1268 2742 
Q 959 2388 959 1747 
Q 959 1106 1268 751 
Q 1578 397 2138 397 
Q 2388 397 2633 464 
Q 2878 531 3122 666 
L 3122 134 
Q 2881 22 2623 -34 
Q 2366 -91 2075 -91 
Q 1284 -91 818 406 
Q 353 903 353 1747 
Q 353 2603 823 3093 
Q 1294 3584 2113 3584 
Q 2378 3584 2631 3529 
Q 2884 3475 3122 3366 
z
" transform="scale(0.015625)"/>
       <path id="DejaVuSans-79" d="M 2059 -325 
Q 1816 -950 1584 -1140 
Q 1353 -1331 966 -1331 
L 506 -1331 
L 506 -850 
L 844 -850 
Q 1081 -850 1212 -737 
Q 1344 -625 1503 -206 
L 1606 56 
L 191 3500 
L 800 3500 
L 1894 763 
L 2988 3500 
L 3597 3500 
L 2059 -325 
z
" transform="scale(0.015625)"/>
       <path id="DejaVuSans-28" d="M 1984 4856 
Q 1566 4138 1362 3434 
Q 1159 2731 1159 2009 
Q 1159 1288 1364 580 
Q 1569 -128 1984 -844 
L 1484 -844 
Q 1016 -109 783 600 
Q 550 1309 550 2009 
Q 550 2706 781 3412 
Q 1013 4119 1484 4856 
L 1984 4856 
z
" transform="scale(0.015625)"/>
       <path id="DejaVuSans-29" d="M 513 4856 
L 1013 4856 
Q 1481 4119 1714 3412 
Q 1947 2706 1947 2009 
Q 1947 1309 1714 600 
Q 1481 -109 1013 -844 
L 513 -844 
Q 928 -128 1133 580 
Q 1338 1288 1338 2009 
Q 1338 2731 1133 3434 
Q 928 4138 513 4856 
z
" transform="scale(0.015625)"/>
      </defs>
      <use xlink:href="#DejaVuSans-54"/>
      <use xlink:href="#DejaVuSans-6f" transform="translate(44.083984 0)"/>
      <use xlink:href="#DejaVuSans-74" transform="translate(105.265625 0)"/>
      <use xlink:href="#DejaVuSans-61" transform="translate(144.474609 0)"/>
      <use xlink:href="#DejaVuSans-6c" transform="translate(205.753906 0)"/>
      <use xlink:href="#DejaVuSans-20" transform="translate(233.537109 0)"/>
      <use xlink:href="#DejaVuSans-4c" transform="translate(265.324219 0)"/>
      <use xlink:href="#DejaVuSans-61" transform="translate(321.037109 0)"/>
      <use xlink:href="#DejaVuSans-74" transform="translate(382.316406 0)"/>
      <use xlink:href="#DejaVuSans-65" transform="translate(421.525391 0)"/>
      <use xlink:href="#DejaVuSans-6e" transform="translate(483.048828 0)"/>
      <use xlink:href="#DejaVuSans-63" transform="translate(546.427734 0)"/>
      <use xlink:href="#DejaVuSans-79" transform="translate(601.408203 0)"/>
      <use xlink:href="#DejaVuSans-20" transform="translate(660.587891 0)"/>
      <use xlink:href="#DejaVuSans-28" transform="translate(692.375 0)"/>
      <use xlink:href="#DejaVuSans-73" transform="translate(731.388672 0)"/>
      <use xlink:href="#DejaVuSans-29" transform="translate(783.488281 0)"/>
     </g>
    </g>
   </g>
   <g id="patch_3">
    <path d="M 110.63 516.76 
L 110.63 11.48 
" style="fill: none; stroke: #000000; stroke-width: 0.8; stroke-linejoin: miter; stroke-linecap: square"/>
   </g>
   <g id="patch_4">
    <path d="M 801.08 516.76 
L 801.08 11.48 
" style="fill: none; stroke: #000000; stroke-width: 0.8; stroke-linejoin: miter; stroke-linecap: square"/>
   </g>
   <g id="patch_5">
    <path d="M 110.63 516.76 
L 801.08 516.76 
" style="fill: none; stroke: #000000; stroke-width: 0.8; stroke-linejoin: miter; stroke-linecap: square"/>
   </g>
   <g id="patch_6">
    <path d="M 110.63 11.48 
L 801.08 11.48 
" style="fill: none; stroke: #000000; stroke-width: 0.8; stroke-linejoin: miter; stroke-linecap: square"/>
   </g>
   <g id="text_18">
    <g id="patch_7">
     <path d="M 770.695909 496.952102 
L 843.617784 496.952102 
L 843.617784 469.595852 
L 770.695909 469.595852 
z
" style="fill: #ffffff; opacity: 0.7"/>
    </g>
    <!-- w=0.1 -->
    <g transform="translate(774.695909 488.792727) scale(0.2 -0.2)">
     <defs>
      <path id="DejaVuSans-77" d="M 269 3500 
L 844 3500 
L 1563 769 
L 2278 3500 
L 2956 3500 
L 3675 769 
L 4391 3500 
L 4966 3500 
L 4050 0 
L 3372 0 
L 2619 2869 
L 1863 0 
L 1184 0 
L 269 3500 
z
" transform="scale(0.015625)"/>
      <path id="DejaVuSans-3d" d="M 678 2906 
L 4684 2906 
L 4684 2381 
L 678 2381 
L 678 2906 
z
M 678 1631 
L 4684 1631 
L 4684 1100 
L 678 1100 
L 678 1631 
z
" transform="scale(0.015625)"/>
      <path id="DejaVuSans-2e" d="M 684 794 
L 1344 794 
L 1344 0 
L 684 0 
L 684 794 
z
" transform="scale(0.015625)"/>
     </defs>
     <use xlink:href="#DejaVuSans-77"/>
     <use xlink:href="#DejaVuSans-3d" transform="translate(81.787109 0)"/>
     <use xlink:href="#DejaVuSans-30" transform="translate(165.576172 0)"/>
     <use xlink:href="#DejaVuSans-2e" transform="translate(229.199219 0)"/>
     <use xlink:href="#DejaVuSans-31" transform="translate(260.986328 0)"/>
    </g>
   </g>
   <g id="text_19">
    <g id="patch_8">
     <path d="M 268.544077 286.749728 
L 341.465952 286.749728 
L 341.465952 259.393478 
L 268.544077 259.393478 
z
" style="fill: #ffffff; opacity: 0.7"/>
    </g>
    <!-- w=0.1 -->
    <g transform="translate(272.544077 278.590353) scale(0.2 -0.2)">
     <use xlink:href="#DejaVuSans-77"/>
     <use xlink:href="#DejaVuSans-3d" transform="translate(81.787109 0)"/>
     <use xlink:href="#DejaVuSans-30" transform="translate(165.576172 0)"/>
     <use xlink:href="#DejaVuSans-2e" transform="translate(229.199219 0)"/>
     <use xlink:href="#DejaVuSans-31" transform="translate(260.986328 0)"/>
    </g>
   </g>
   <g id="text_20">
    <g id="patch_9">
     <path d="M 530.447446 395.754794 
L 603.369321 395.754794 
L 603.369321 368.398544 
L 530.447446 368.398544 
z
" style="fill: #ffffff; opacity: 0.7"/>
    </g>
    <!-- w=0.1 -->
    <g transform="translate(534.447446 387.595419) scale(0.2 -0.2)">
     <use xlink:href="#DejaVuSans-77"/>
     <use xlink:href="#DejaVuSans-3d" transform="translate(81.787109 0)"/>
     <use xlink:href="#DejaVuSans-30" transform="translate(165.576172 0)"/>
     <use xlink:href="#DejaVuSans-2e" transform="translate(229.199219 0)"/>
     <use xlink:href="#DejaVuSans-31" transform="translate(260.986328 0)"/>
    </g>
   </g>
   <g id="text_21">
    <g id="patch_10">
     <path d="M 261.557801 255.906913 
L 334.479676 255.906913 
L 334.479676 228.550663 
L 261.557801 228.550663 
z
" style="fill: #ffffff; opacity: 0.7"/>
    </g>
    <!-- w=0.4 -->
    <g transform="translate(265.557801 247.747538) scale(0.2 -0.2)">
     <use xlink:href="#DejaVuSans-77"/>
     <use xlink:href="#DejaVuSans-3d" transform="translate(81.787109 0)"/>
     <use xlink:href="#DejaVuSans-30" transform="translate(165.576172 0)"/>
     <use xlink:href="#DejaVuSans-2e" transform="translate(229.199219 0)"/>
     <use xlink:href="#DejaVuSans-34" transform="translate(260.986328 0)"/>
    </g>
   </g>
   <g id="text_22">
    <g id="patch_11">
     <path d="M 692.911369 447.744741 
L 765.833244 447.744741 
L 765.833244 420.388491 
L 692.911369 420.388491 
z
" style="fill: #ffffff; opacity: 0.7"/>
    </g>
    <!-- w=0.2 -->
    <g transform="translate(696.911369 439.585366) scale(0.2 -0.2)">
     <use xlink:href="#DejaVuSans-77"/>
     <use xlink:href="#DejaVuSans-3d" transform="translate(81.787109 0)"/>
     <use xlink:href="#DejaVuSans-30" transform="translate(165.576172 0)"/>
     <use xlink:href="#DejaVuSans-2e" transform="translate(229.199219 0)"/>
     <use xlink:href="#DejaVuSans-32" transform="translate(260.986328 0)"/>
    </g>
   </g>
   <g id="text_23">
    <g id="patch_12">
     <path d="M 618.683294 412.969653 
L 691.605169 412.969653 
L 691.605169 385.613403 
L 618.683294 385.613403 
z
" style="fill: #ffffff; opacity: 0.7"/>
    </g>
    <!-- w=0.3 -->
    <g transform="translate(622.683294 404.810278) scale(0.2 -0.2)">
     <use xlink:href="#DejaVuSans-77"/>
     <use xlink:href="#DejaVuSans-3d" transform="translate(81.787109 0)"/>
     <use xlink:href="#DejaVuSans-30" transform="translate(165.576172 0)"/>
     <use xlink:href="#DejaVuSans-2e" transform="translate(229.199219 0)"/>
     <use xlink:href="#DejaVuSans-33" transform="translate(260.986328 0)"/>
    </g>
   </g>
   <g id="text_24">
    <g id="patch_13">
     <path d="M 356.280499 304.845308 
L 429.202374 304.845308 
L 429.202374 277.489058 
L 356.280499 277.489058 
z
" style="fill: #ffffff; opacity: 0.7"/>
    </g>
    <!-- w=0.5 -->
    <g transform="translate(360.280499 296.685933) scale(0.2 -0.2)">
     <use xlink:href="#DejaVuSans-77"/>
     <use xlink:href="#DejaVuSans-3d" transform="translate(81.787109 0)"/>
     <use xlink:href="#DejaVuSans-30" transform="translate(165.576172 0)"/>
     <use xlink:href="#DejaVuSans-2e" transform="translate(229.199219 0)"/>
     <use xlink:href="#DejaVuSans-35" transform="translate(260.986328 0)"/>
    </g>
   </g>
   <g id="text_25">
    <g id="patch_14">
     <path d="M 226.760517 194.547037 
L 299.682392 194.547037 
L 299.682392 167.190787 
L 226.760517 167.190787 
z
" style="fill: #ffffff; opacity: 0.7"/>
    </g>
    <!-- w=0.7 -->
    <g transform="translate(230.760517 186.387662) scale(0.2 -0.2)">
     <use xlink:href="#DejaVuSans-77"/>
     <use xlink:href="#DejaVuSans-3d" transform="translate(81.787109 0)"/>
     <use xlink:href="#DejaVuSans-30" transform="translate(165.576172 0)"/>
     <use xlink:href="#DejaVuSans-2e" transform="translate(229.199219 0)"/>
     <use xlink:href="#DejaVuSans-37" transform="translate(260.986328 0)"/>
    </g>
   </g>
   <g id="text_26">
    <g id="patch_15">
     <path d="M 192.068149 136.393586 
L 264.990024 136.393586 
L 264.990024 109.037336 
L 192.068149 109.037336 
z
" style="fill: #ffffff; opacity: 0.7"/>
    </g>
    <!-- w=0.8 -->
    <g transform="translate(196.068149 128.234211) scale(0.2 -0.2)">
     <defs>
      <path id="DejaVuSans-38" d="M 2034 2216 
Q 1584 2216 1326 1975 
Q 1069 1734 1069 1313 
Q 1069 891 1326 650 
Q 1584 409 2034 409 
Q 2484 409 2743 651 
Q 3003 894 3003 1313 
Q 3003 1734 2745 1975 
Q 2488 2216 2034 2216 
z
M 1403 2484 
Q 997 2584 770 2862 
Q 544 3141 544 3541 
Q 544 4100 942 4425 
Q 1341 4750 2034 4750 
Q 2731 4750 3128 4425 
Q 3525 4100 3525 3541 
Q 3525 3141 3298 2862 
Q 3072 2584 2669 2484 
Q 3125 2378 3379 2068 
Q 3634 1759 3634 1313 
Q 3634 634 3220 271 
Q 2806 -91 2034 -91 
Q 1263 -91 848 271 
Q 434 634 434 1313 
Q 434 1759 690 2068 
Q 947 2378 1403 2484 
z
M 1172 3481 
Q 1172 3119 1398 2916 
Q 1625 2713 2034 2713 
Q 2441 2713 2670 2916 
Q 2900 3119 2900 3481 
Q 2900 3844 2670 4047 
Q 2441 4250 2034 4250 
Q 1625 4250 1398 4047 
Q 1172 3844 1172 3481 
z
" transform="scale(0.015625)"/>
     </defs>
     <use xlink:href="#DejaVuSans-77"/>
     <use xlink:href="#DejaVuSans-3d" transform="translate(81.787109 0)"/>
     <use xlink:href="#DejaVuSans-30" transform="translate(165.576172 0)"/>
     <use xlink:href="#DejaVuSans-2e" transform="translate(229.199219 0)"/>
     <use xlink:href="#DejaVuSans-38" transform="translate(260.986328 0)"/>
    </g>
   </g>
   <g id="text_27">
    <g id="patch_16">
     <path d="M 666.434006 427.724066 
L 739.355881 427.724066 
L 739.355881 400.367816 
L 666.434006 400.367816 
z
" style="fill: #ffffff; opacity: 0.7"/>
    </g>
    <!-- w=0.3 -->
    <g transform="translate(670.434006 419.564691) scale(0.2 -0.2)">
     <use xlink:href="#DejaVuSans-77"/>
     <use xlink:href="#DejaVuSans-3d" transform="translate(81.787109 0)"/>
     <use xlink:href="#DejaVuSans-30" transform="translate(165.576172 0)"/>
     <use xlink:href="#DejaVuSans-2e" transform="translate(229.199219 0)"/>
     <use xlink:href="#DejaVuSans-33" transform="translate(260.986328 0)"/>
    </g>
   </g>
   <g id="text_28">
    <g id="patch_17">
     <path d="M 480.173279 339.360206 
L 553.095154 339.360206 
L 553.095154 312.003956 
L 480.173279 312.003956 
z
" style="fill: #ffffff; opacity: 0.7"/>
    </g>
    <!-- w=0.6 -->
    <g transform="translate(484.173279 331.200831) scale(0.2 -0.2)">
     <use xlink:href="#DejaVuSans-77"/>
     <use xlink:href="#DejaVuSans-3d" transform="translate(81.787109 0)"/>
     <use xlink:href="#DejaVuSans-30" transform="translate(165.576172 0)"/>
     <use xlink:href="#DejaVuSans-2e" transform="translate(229.199219 0)"/>
     <use xlink:href="#DejaVuSans-36" transform="translate(260.986328 0)"/>
    </g>
   </g>
   <g id="text_29">
    <g id="patch_18">
     <path d="M 735.73719 479.532293 
L 808.659065 479.532293 
L 808.659065 452.176043 
L 735.73719 452.176043 
z
" style="fill: #ffffff; opacity: 0.7"/>
    </g>
    <!-- w=0.3 -->
    <g transform="translate(739.73719 471.372918) scale(0.2 -0.2)">
     <use xlink:href="#DejaVuSans-77"/>
     <use xlink:href="#DejaVuSans-3d" transform="translate(81.787109 0)"/>
     <use xlink:href="#DejaVuSans-30" transform="translate(165.576172 0)"/>
     <use xlink:href="#DejaVuSans-2e" transform="translate(229.199219 0)"/>
     <use xlink:href="#DejaVuSans-33" transform="translate(260.986328 0)"/>
    </g>
   </g>
   <g id="text_30">
    <g id="patch_19">
     <path d="M 507.555247 353.32166 
L 580.477122 353.32166 
L 580.477122 325.96541 
L 507.555247 325.96541 
z
" style="fill: #ffffff; opacity: 0.7"/>
    </g>
    <!-- w=0.5 -->
    <g transform="translate(511.555247 345.162285) scale(0.2 -0.2)">
     <use xlink:href="#DejaVuSans-77"/>
     <use xlink:href="#DejaVuSans-3d" transform="translate(81.787109 0)"/>
     <use xlink:href="#DejaVuSans-30" transform="translate(165.576172 0)"/>
     <use xlink:href="#DejaVuSans-2e" transform="translate(229.199219 0)"/>
     <use xlink:href="#DejaVuSans-35" transform="translate(260.986328 0)"/>
    </g>
   </g>
   <g id="text_31">
    <g id="patch_20">
     <path d="M 145.640798 75.237112 
L 218.562673 75.237112 
L 218.562673 47.880862 
L 145.640798 47.880862 
z
" style="fill: #ffffff; opacity: 0.7"/>
    </g>
    <!-- w=0.9 -->
    <g transform="translate(149.640798 67.077737) scale(0.2 -0.2)">
     <defs>
      <path id="DejaVuSans-39" d="M 703 97 
L 703 672 
Q 941 559 1184 500 
Q 1428 441 1663 441 
Q 2288 441 2617 861 
Q 2947 1281 2994 2138 
Q 2813 1869 2534 1725 
Q 2256 1581 1919 1581 
Q 1219 1581 811 2004 
Q 403 2428 403 3163 
Q 403 3881 828 4315 
Q 1253 4750 1959 4750 
Q 2769 4750 3195 4129 
Q 3622 3509 3622 2328 
Q 3622 1225 3098 567 
Q 2575 -91 1691 -91 
Q 1453 -91 1209 -44 
Q 966 3 703 97 
z
M 1959 2075 
Q 2384 2075 2632 2365 
Q 2881 2656 2881 3163 
Q 2881 3666 2632 3958 
Q 2384 4250 1959 4250 
Q 1534 4250 1286 3958 
Q 1038 3666 1038 3163 
Q 1038 2656 1286 2365 
Q 1534 2075 1959 2075 
z
" transform="scale(0.015625)"/>
     </defs>
     <use xlink:href="#DejaVuSans-77"/>
     <use xlink:href="#DejaVuSans-3d" transform="translate(81.787109 0)"/>
     <use xlink:href="#DejaVuSans-30" transform="translate(165.576172 0)"/>
     <use xlink:href="#DejaVuSans-2e" transform="translate(229.199219 0)"/>
     <use xlink:href="#DejaVuSans-39" transform="translate(260.986328 0)"/>
    </g>
   </g>
   <g id="text_32">
    <g id="patch_21">
     <path d="M 143.014091 37.606648 
L 215.935966 37.606648 
L 215.935966 10.250398 
L 143.014091 10.250398 
z
" style="fill: #ffffff; opacity: 0.7"/>
    </g>
    <!-- w=1.0 -->
    <g transform="translate(147.014091 29.447273) scale(0.2 -0.2)">
     <use xlink:href="#DejaVuSans-77"/>
     <use xlink:href="#DejaVuSans-3d" transform="translate(81.787109 0)"/>
     <use xlink:href="#DejaVuSans-31" transform="translate(165.576172 0)"/>
     <use xlink:href="#DejaVuSans-2e" transform="translate(229.199219 0)"/>
     <use xlink:href="#DejaVuSans-30" transform="translate(260.986328 0)"/>
    </g>
   </g>
   <g id="legend_1">
    <g id="patch_22">
     <path d="M 849.6025 291.68625 
L 988.718125 291.68625 
Q 992.718125 291.68625 992.718125 287.68625 
L 992.718125 25.48 
Q 992.718125 21.48 988.718125 21.48 
L 849.6025 21.48 
Q 845.6025 21.48 845.6025 25.48 
L 845.6025 287.68625 
Q 845.6025 291.68625 849.6025 291.68625 
z
" style="fill: #ffffff; opacity: 0.8; stroke: #cccccc; stroke-linejoin: miter"/>
    </g>
    <g id="PathCollection_10">
     <g>
      <use xlink:href="#m8568a366a1" x="873.6025" y="39.426875" style="fill: #66c2a5; fill-opacity: 0.7; stroke: #66c2a5; stroke-opacity: 0.7"/>
     </g>
    </g>
    <g id="text_33">
     <!-- AHL -->
     <g transform="translate(909.6025 44.676875) scale(0.2 -0.2)">
      <defs>
       <path id="DejaVuSans-41" d="M 2188 4044 
L 1331 1722 
L 3047 1722 
L 2188 4044 
z
M 1831 4666 
L 2547 4666 
L 4325 0 
L 3669 0 
L 3244 1197 
L 1141 1197 
L 716 0 
L 50 0 
L 1831 4666 
z
" transform="scale(0.015625)"/>
       <path id="DejaVuSans-48" d="M 628 4666 
L 1259 4666 
L 1259 2753 
L 3553 2753 
L 3553 4666 
L 4184 4666 
L 4184 0 
L 3553 0 
L 3553 2222 
L 1259 2222 
L 1259 0 
L 628 0 
L 628 4666 
z
" transform="scale(0.015625)"/>
      </defs>
      <use xlink:href="#DejaVuSans-41"/>
      <use xlink:href="#DejaVuSans-48" transform="translate(68.408203 0)"/>
      <use xlink:href="#DejaVuSans-4c" transform="translate(143.603516 0)"/>
     </g>
    </g>
    <g id="PathCollection_11">
     <g>
      <use xlink:href="#mfd585aa0eb" x="873.6025" y="68.783125" style="fill: #fc8d62; fill-opacity: 0.7; stroke: #fc8d62; stroke-opacity: 0.7"/>
     </g>
    </g>
    <g id="text_34">
     <!-- HV -->
     <g transform="translate(909.6025 74.033125) scale(0.2 -0.2)">
      <defs>
       <path id="DejaVuSans-56" d="M 1831 0 
L 50 4666 
L 709 4666 
L 2188 738 
L 3669 4666 
L 4325 4666 
L 2547 0 
L 1831 0 
z
" transform="scale(0.015625)"/>
      </defs>
      <use xlink:href="#DejaVuSans-48"/>
      <use xlink:href="#DejaVuSans-56" transform="translate(75.195312 0)"/>
     </g>
    </g>
    <g id="PathCollection_12">
     <g>
      <use xlink:href="#m4e60688cd6" x="873.6025" y="98.139375" style="fill: #8da0cb; fill-opacity: 0.7; stroke: #8da0cb; stroke-opacity: 0.7"/>
     </g>
    </g>
    <g id="text_35">
     <!-- KNN -->
     <g transform="translate(909.6025 103.389375) scale(0.2 -0.2)">
      <defs>
       <path id="DejaVuSans-4b" d="M 628 4666 
L 1259 4666 
L 1259 2694 
L 3353 4666 
L 4166 4666 
L 1850 2491 
L 4331 0 
L 3500 0 
L 1259 2247 
L 1259 0 
L 628 0 
L 628 4666 
z
" transform="scale(0.015625)"/>
       <path id="DejaVuSans-4e" d="M 628 4666 
L 1478 4666 
L 3547 763 
L 3547 4666 
L 4159 4666 
L 4159 0 
L 3309 0 
L 1241 3903 
L 1241 0 
L 628 0 
L 628 4666 
z
" transform="scale(0.015625)"/>
      </defs>
      <use xlink:href="#DejaVuSans-4b"/>
      <use xlink:href="#DejaVuSans-4e" transform="translate(65.576172 0)"/>
      <use xlink:href="#DejaVuSans-4e" transform="translate(140.380859 0)"/>
     </g>
    </g>
    <g id="PathCollection_13">
     <g>
      <use xlink:href="#mbd0625858e" x="873.6025" y="127.495625" style="fill: #e78ac3; fill-opacity: 0.7; stroke: #e78ac3; stroke-opacity: 0.7"/>
     </g>
    </g>
    <g id="text_36">
     <!-- RF -->
     <g transform="translate(909.6025 132.745625) scale(0.2 -0.2)">
      <defs>
       <path id="DejaVuSans-52" d="M 2841 2188 
Q 3044 2119 3236 1894 
Q 3428 1669 3622 1275 
L 4263 0 
L 3584 0 
L 2988 1197 
Q 2756 1666 2539 1819 
Q 2322 1972 1947 1972 
L 1259 1972 
L 1259 0 
L 628 0 
L 628 4666 
L 2053 4666 
Q 2853 4666 3247 4331 
Q 3641 3997 3641 3322 
Q 3641 2881 3436 2590 
Q 3231 2300 2841 2188 
z
M 1259 4147 
L 1259 2491 
L 2053 2491 
Q 2509 2491 2742 2702 
Q 2975 2913 2975 3322 
Q 2975 3731 2742 3939 
Q 2509 4147 2053 4147 
L 1259 4147 
z
" transform="scale(0.015625)"/>
       <path id="DejaVuSans-46" d="M 628 4666 
L 3309 4666 
L 3309 4134 
L 1259 4134 
L 1259 2759 
L 3109 2759 
L 3109 2228 
L 1259 2228 
L 1259 0 
L 628 0 
L 628 4666 
z
" transform="scale(0.015625)"/>
      </defs>
      <use xlink:href="#DejaVuSans-52"/>
      <use xlink:href="#DejaVuSans-46" transform="translate(69.482422 0)"/>
     </g>
    </g>
    <g id="PathCollection_14">
     <g>
      <use xlink:href="#mb8f6780bd9" x="873.6025" y="156.851875" style="fill: #a6d854; fill-opacity: 0.7; stroke: #a6d854; stroke-opacity: 0.7"/>
     </g>
    </g>
    <g id="text_37">
     <!-- SV -->
     <g transform="translate(909.6025 162.101875) scale(0.2 -0.2)">
      <defs>
       <path id="DejaVuSans-53" d="M 3425 4513 
L 3425 3897 
Q 3066 4069 2747 4153 
Q 2428 4238 2131 4238 
Q 1616 4238 1336 4038 
Q 1056 3838 1056 3469 
Q 1056 3159 1242 3001 
Q 1428 2844 1947 2747 
L 2328 2669 
Q 3034 2534 3370 2195 
Q 3706 1856 3706 1288 
Q 3706 609 3251 259 
Q 2797 -91 1919 -91 
Q 1588 -91 1214 -16 
Q 841 59 441 206 
L 441 856 
Q 825 641 1194 531 
Q 1563 422 1919 422 
Q 2459 422 2753 634 
Q 3047 847 3047 1241 
Q 3047 1584 2836 1778 
Q 2625 1972 2144 2069 
L 1759 2144 
Q 1053 2284 737 2584 
Q 422 2884 422 3419 
Q 422 4038 858 4394 
Q 1294 4750 2059 4750 
Q 2388 4750 2728 4690 
Q 3069 4631 3425 4513 
z
" transform="scale(0.015625)"/>
      </defs>
      <use xlink:href="#DejaVuSans-53"/>
      <use xlink:href="#DejaVuSans-56" transform="translate(63.476562 0)"/>
     </g>
    </g>
    <g id="PathCollection_15">
     <g>
      <use xlink:href="#m64b05f6c4c" x="873.6025" y="186.208125" style="fill: #ffd92f; fill-opacity: 0.7; stroke: #ffd92f; stroke-opacity: 0.7"/>
     </g>
    </g>
    <g id="text_38">
     <!-- SV-Grid -->
     <g transform="translate(909.6025 191.458125) scale(0.2 -0.2)">
      <defs>
       <path id="DejaVuSans-2d" d="M 313 2009 
L 1997 2009 
L 1997 1497 
L 313 1497 
L 313 2009 
z
" transform="scale(0.015625)"/>
       <path id="DejaVuSans-47" d="M 3809 666 
L 3809 1919 
L 2778 1919 
L 2778 2438 
L 4434 2438 
L 4434 434 
Q 4069 175 3628 42 
Q 3188 -91 2688 -91 
Q 1594 -91 976 548 
Q 359 1188 359 2328 
Q 359 3472 976 4111 
Q 1594 4750 2688 4750 
Q 3144 4750 3555 4637 
Q 3966 4525 4313 4306 
L 4313 3634 
Q 3963 3931 3569 4081 
Q 3175 4231 2741 4231 
Q 1884 4231 1454 3753 
Q 1025 3275 1025 2328 
Q 1025 1384 1454 906 
Q 1884 428 2741 428 
Q 3075 428 3337 486 
Q 3600 544 3809 666 
z
" transform="scale(0.015625)"/>
       <path id="DejaVuSans-72" d="M 2631 2963 
Q 2534 3019 2420 3045 
Q 2306 3072 2169 3072 
Q 1681 3072 1420 2755 
Q 1159 2438 1159 1844 
L 1159 0 
L 581 0 
L 581 3500 
L 1159 3500 
L 1159 2956 
Q 1341 3275 1631 3429 
Q 1922 3584 2338 3584 
Q 2397 3584 2469 3576 
Q 2541 3569 2628 3553 
L 2631 2963 
z
" transform="scale(0.015625)"/>
       <path id="DejaVuSans-69" d="M 603 3500 
L 1178 3500 
L 1178 0 
L 603 0 
L 603 3500 
z
M 603 4863 
L 1178 4863 
L 1178 4134 
L 603 4134 
L 603 4863 
z
" transform="scale(0.015625)"/>
       <path id="DejaVuSans-64" d="M 2906 2969 
L 2906 4863 
L 3481 4863 
L 3481 0 
L 2906 0 
L 2906 525 
Q 2725 213 2448 61 
Q 2172 -91 1784 -91 
Q 1150 -91 751 415 
Q 353 922 353 1747 
Q 353 2572 751 3078 
Q 1150 3584 1784 3584 
Q 2172 3584 2448 3432 
Q 2725 3281 2906 2969 
z
M 947 1747 
Q 947 1113 1208 752 
Q 1469 391 1925 391 
Q 2381 391 2643 752 
Q 2906 1113 2906 1747 
Q 2906 2381 2643 2742 
Q 2381 3103 1925 3103 
Q 1469 3103 1208 2742 
Q 947 2381 947 1747 
z
" transform="scale(0.015625)"/>
      </defs>
      <use xlink:href="#DejaVuSans-53"/>
      <use xlink:href="#DejaVuSans-56" transform="translate(63.476562 0)"/>
      <use xlink:href="#DejaVuSans-2d" transform="translate(126.009766 0)"/>
      <use xlink:href="#DejaVuSans-47" transform="translate(165.71875 0)"/>
      <use xlink:href="#DejaVuSans-72" transform="translate(243.208984 0)"/>
      <use xlink:href="#DejaVuSans-69" transform="translate(284.322266 0)"/>
      <use xlink:href="#DejaVuSans-64" transform="translate(312.105469 0)"/>
     </g>
    </g>
    <g id="PathCollection_16">
     <g>
      <use xlink:href="#m440b6df272" x="873.6025" y="215.564375" style="fill: #e5c494; fill-opacity: 0.7; stroke: #e5c494; stroke-opacity: 0.7"/>
     </g>
    </g>
    <g id="text_39">
     <!-- SVML -->
     <g transform="translate(909.6025 220.814375) scale(0.2 -0.2)">
      <defs>
       <path id="DejaVuSans-4d" d="M 628 4666 
L 1569 4666 
L 2759 1491 
L 3956 4666 
L 4897 4666 
L 4897 0 
L 4281 0 
L 4281 4097 
L 3078 897 
L 2444 897 
L 1241 4097 
L 1241 0 
L 628 0 
L 628 4666 
z
" transform="scale(0.015625)"/>
      </defs>
      <use xlink:href="#DejaVuSans-53"/>
      <use xlink:href="#DejaVuSans-56" transform="translate(63.476562 0)"/>
      <use xlink:href="#DejaVuSans-4d" transform="translate(131.884766 0)"/>
      <use xlink:href="#DejaVuSans-4c" transform="translate(218.164062 0)"/>
     </g>
    </g>
    <g id="PathCollection_17">
     <g>
      <use xlink:href="#m5fab52f0fb" x="873.6025" y="244.920625" style="fill: #b3b3b3; fill-opacity: 0.7; stroke: #b3b3b3; stroke-opacity: 0.7"/>
     </g>
    </g>
    <g id="text_40">
     <!-- SVMR -->
     <g transform="translate(909.6025 250.170625) scale(0.2 -0.2)">
      <use xlink:href="#DejaVuSans-53"/>
      <use xlink:href="#DejaVuSans-56" transform="translate(63.476562 0)"/>
      <use xlink:href="#DejaVuSans-4d" transform="translate(131.884766 0)"/>
      <use xlink:href="#DejaVuSans-52" transform="translate(218.164062 0)"/>
     </g>
    </g>
    <g id="PathCollection_18">
     <g>
      <use xlink:href="#m9274142837" x="873.6025" y="274.276875" style="fill: #b3b3b3; fill-opacity: 0.7; stroke: #b3b3b3; stroke-opacity: 0.7"/>
     </g>
    </g>
    <g id="text_41">
     <!-- LR -->
     <g transform="translate(909.6025 279.526875) scale(0.2 -0.2)">
      <use xlink:href="#DejaVuSans-4c"/>
      <use xlink:href="#DejaVuSans-52" transform="translate(55.712891 0)"/>
     </g>
    </g>
   </g>
  </g>
 </g>
 <defs>
  <clipPath id="p2df229ff37">
   <rect x="110.63" y="11.48" width="690.45" height="505.28"/>
  </clipPath>
 </defs>
</svg>
