<?xml version="1.0" encoding="utf-8" standalone="no"?>
<!DOCTYPE svg PUBLIC "-//W3C//DTD SVG 1.1//EN"
  "http://www.w3.org/Graphics/SVG/1.1/DTD/svg11.dtd">
<svg xmlns:xlink="http://www.w3.org/1999/xlink" width="864pt" height="576pt" viewBox="0 0 864 576" xmlns="http://www.w3.org/2000/svg" version="1.1">
 <metadata>
  <rdf:RDF xmlns:dc="http://purl.org/dc/elements/1.1/" xmlns:cc="http://creativecommons.org/ns#" xmlns:rdf="http://www.w3.org/1999/02/22-rdf-syntax-ns#">
   <cc:Work>
    <dc:type rdf:resource="http://purl.org/dc/dcmitype/StillImage"/>
    <dc:date>2025-12-13T14:31:22.052893</dc:date>
    <dc:format>image/svg+xml</dc:format>
    <dc:creator>
     <cc:Agent>
      <dc:title>Matplotlib v3.10.0, https://matplotlib.org/</dc:title>
     </cc:Agent>
    </dc:creator>
   </cc:Work>
  </rdf:RDF>
 </metadata>
 <defs>
  <style type="text/css">*{stroke-linejoin: round; stroke-linecap: butt}</style>
 </defs>
 <g id="figure_1">
  <g id="patch_1">
   <path d="M 0 576 
L 864 576 
L 864 0 
L 0 0 
z
" style="fill: #ffffff"/>
  </g>
  <g id="axes_1">
   <g id="patch_2">
    <path d="M 110.72 516.76 
L 672.56 516.76 
L 672.56 11.48 
L 110.72 11.48 
z
" style="fill: #ffffff"/>
   </g>
   <g id="PathCollection_1">
    <defs>
     <path id="mbe44c92102" d="M -0 5 
L 5 -5 
L -5 -5 
z
" style="stroke: #440154; stroke-opacity: 0.7"/>
    </defs>
    <g clip-path="url(#p0da040f2e6)">
     <use xlink:href="#mbe44c92102" x="647.021818" y="493.792727" style="fill: #440154; fill-opacity: 0.7; stroke: #440154; stroke-opacity: 0.7"/>
    </g>
   </g>
   <g id="PathCollection_2">
    <defs>
     <path id="m36ed898ab0" d="M -0 5 
L 5 -5 
L -5 -5 
z
" style="stroke: #482878; stroke-opacity: 0.7"/>
    </defs>
    <g clip-path="url(#p0da040f2e6)">
     <use xlink:href="#m36ed898ab0" x="647.021818" y="493.792727" style="fill: #482878; fill-opacity: 0.7; stroke: #482878; stroke-opacity: 0.7"/>
    </g>
   </g>
   <g id="PathCollection_3">
    <defs>
     <path id="mb91adad0ce" d="M -0 5 
L 5 -5 
L -5 -5 
z
" style="stroke: #3e4989; stroke-opacity: 0.7"/>
    </defs>
    <g clip-path="url(#p0da040f2e6)">
     <use xlink:href="#mb91adad0ce" x="647.021818" y="493.792727" style="fill: #3e4989; fill-opacity: 0.7; stroke: #3e4989; stroke-opacity: 0.7"/>
    </g>
   </g>
   <g id="PathCollection_4">
    <defs>
     <path id="m95b5f55a41" d="M -0 5 
L 5 -5 
L -5 -5 
z
" style="stroke: #31688e; stroke-opacity: 0.7"/>
    </defs>
    <g clip-path="url(#p0da040f2e6)">
     <use xlink:href="#m95b5f55a41" x="392.961543" y="384.555113" style="fill: #31688e; fill-opacity: 0.7; stroke: #31688e; stroke-opacity: 0.7"/>
    </g>
   </g>
   <g id="PathCollection_5">
    <defs>
     <path id="ma8a5c836f1" d="M -0 5 
L 5 -5 
L -5 -5 
z
" style="stroke: #26828e; stroke-opacity: 0.7"/>
    </defs>
    <g clip-path="url(#p0da040f2e6)">
     <use xlink:href="#ma8a5c836f1" x="392.961543" y="384.555113" style="fill: #26828e; fill-opacity: 0.7; stroke: #26828e; stroke-opacity: 0.7"/>
    </g>
   </g>
   <g id="PathCollection_6">
    <defs>
     <path id="mc64ec24740" d="M -0 5 
L 5 -5 
L -5 -5 
z
" style="stroke: #1f9e89; stroke-opacity: 0.7"/>
    </defs>
    <g clip-path="url(#p0da040f2e6)">
     <use xlink:href="#mc64ec24740" x="392.961543" y="384.555113" style="fill: #1f9e89; fill-opacity: 0.7; stroke: #1f9e89; stroke-opacity: 0.7"/>
    </g>
   </g>
   <g id="PathCollection_7">
    <defs>
     <path id="mfa6fd019fe" d="M -0 5 
L 5 -5 
L -5 -5 
z
" style="stroke: #35b779; stroke-opacity: 0.7"/>
    </defs>
    <g clip-path="url(#p0da040f2e6)">
     <use xlink:href="#mfa6fd019fe" x="149.765838" y="261.323872" style="fill: #35b779; fill-opacity: 0.7; stroke: #35b779; stroke-opacity: 0.7"/>
    </g>
   </g>
   <g id="PathCollection_8">
    <defs>
     <path id="mb7c453cc2f" d="M -0 5 
L 5 -5 
L -5 -5 
z
" style="stroke: #6ece58; stroke-opacity: 0.7"/>
    </defs>
    <g clip-path="url(#p0da040f2e6)">
     <use xlink:href="#mb7c453cc2f" x="149.765838" y="261.323872" style="fill: #6ece58; fill-opacity: 0.7; stroke: #6ece58; stroke-opacity: 0.7"/>
    </g>
   </g>
   <g id="PathCollection_9">
    <defs>
     <path id="mfcf95a0a4a" d="M -0 5 
L 5 -5 
L -5 -5 
z
" style="stroke: #b5de2b; stroke-opacity: 0.7"/>
    </defs>
    <g clip-path="url(#p0da040f2e6)">
     <use xlink:href="#mfcf95a0a4a" x="149.765838" y="261.323872" style="fill: #b5de2b; fill-opacity: 0.7; stroke: #b5de2b; stroke-opacity: 0.7"/>
    </g>
   </g>
   <g id="PathCollection_10">
    <defs>
     <path id="m66eef85d00" d="M -0 5 
L 5 -5 
L -5 -5 
z
" style="stroke: #fde725; stroke-opacity: 0.7"/>
    </defs>
    <g clip-path="url(#p0da040f2e6)">
     <use xlink:href="#m66eef85d00" x="136.258182" y="34.447273" style="fill: #fde725; fill-opacity: 0.7; stroke: #fde725; stroke-opacity: 0.7"/>
    </g>
   </g>
   <g id="matplotlib.axis_1">
    <g id="xtick_1">
     <g id="line2d_1">
      <path d="M 123.60374 516.76 
L 123.60374 11.48 
" clip-path="url(#p0da040f2e6)" style="fill: none; stroke-dasharray: 2.96,1.28; stroke-dashoffset: 0; stroke: #b0b0b0; stroke-opacity: 0.7; stroke-width: 0.8"/>
     </g>
     <g id="line2d_2">
      <defs>
       <path id="mf0824e5e27" d="M 0 0 
L 0 3.5 
" style="stroke: #000000; stroke-width: 0.8"/>
      </defs>
      <g>
       <use xlink:href="#mf0824e5e27" x="123.60374" y="516.76" style="stroke: #000000; stroke-width: 0.8"/>
      </g>
     </g>
     <g id="text_1">
      <!-- 1400 -->
      <g transform="translate(100.69874 537.437188) scale(0.18 -0.18)">
       <defs>
        <path id="DejaVuSans-31" d="M 794 531 
L 1825 531 
L 1825 4091 
L 703 3866 
L 703 4441 
L 1819 4666 
L 2450 4666 
L 2450 531 
L 3481 531 
L 3481 0 
L 794 0 
L 794 531 
z
" transform="scale(0.015625)"/>
        <path id="DejaVuSans-34" d="M 2419 4116 
L 825 1625 
L 2419 1625 
L 2419 4116 
z
M 2253 4666 
L 3047 4666 
L 3047 1625 
L 3713 1625 
L 3713 1100 
L 3047 1100 
L 3047 0 
L 2419 0 
L 2419 1100 
L 313 1100 
L 313 1709 
L 2253 4666 
z
" transform="scale(0.015625)"/>
        <path id="DejaVuSans-30" d="M 2034 4250 
Q 1547 4250 1301 3770 
Q 1056 3291 1056 2328 
Q 1056 1369 1301 889 
Q 1547 409 2034 409 
Q 2525 409 2770 889 
Q 3016 1369 3016 2328 
Q 3016 3291 2770 3770 
Q 2525 4250 2034 4250 
z
M 2034 4750 
Q 2819 4750 3233 4129 
Q 3647 3509 3647 2328 
Q 3647 1150 3233 529 
Q 2819 -91 2034 -91 
Q 1250 -91 836 529 
Q 422 1150 422 2328 
Q 422 3509 836 4129 
Q 1250 4750 2034 4750 
z
" transform="scale(0.015625)"/>
       </defs>
       <use xlink:href="#DejaVuSans-31"/>
       <use xlink:href="#DejaVuSans-34" transform="translate(63.623047 0)"/>
       <use xlink:href="#DejaVuSans-30" transform="translate(127.246094 0)"/>
       <use xlink:href="#DejaVuSans-30" transform="translate(190.869141 0)"/>
      </g>
     </g>
    </g>
    <g id="xtick_2">
     <g id="line2d_3">
      <path d="M 211.988512 516.76 
L 211.988512 11.48 
" clip-path="url(#p0da040f2e6)" style="fill: none; stroke-dasharray: 2.96,1.28; stroke-dashoffset: 0; stroke: #b0b0b0; stroke-opacity: 0.7; stroke-width: 0.8"/>
     </g>
     <g id="line2d_4">
      <g>
       <use xlink:href="#mf0824e5e27" x="211.988512" y="516.76" style="stroke: #000000; stroke-width: 0.8"/>
      </g>
     </g>
     <g id="text_2">
      <!-- 1450 -->
      <g transform="translate(189.083512 537.437188) scale(0.18 -0.18)">
       <defs>
        <path id="DejaVuSans-35" d="M 691 4666 
L 3169 4666 
L 3169 4134 
L 1269 4134 
L 1269 2991 
Q 1406 3038 1543 3061 
Q 1681 3084 1819 3084 
Q 2600 3084 3056 2656 
Q 3513 2228 3513 1497 
Q 3513 744 3044 326 
Q 2575 -91 1722 -91 
Q 1428 -91 1123 -41 
Q 819 9 494 109 
L 494 744 
Q 775 591 1075 516 
Q 1375 441 1709 441 
Q 2250 441 2565 725 
Q 2881 1009 2881 1497 
Q 2881 1984 2565 2268 
Q 2250 2553 1709 2553 
Q 1456 2553 1204 2497 
Q 953 2441 691 2322 
L 691 4666 
z
" transform="scale(0.015625)"/>
       </defs>
       <use xlink:href="#DejaVuSans-31"/>
       <use xlink:href="#DejaVuSans-34" transform="translate(63.623047 0)"/>
       <use xlink:href="#DejaVuSans-35" transform="translate(127.246094 0)"/>
       <use xlink:href="#DejaVuSans-30" transform="translate(190.869141 0)"/>
      </g>
     </g>
    </g>
    <g id="xtick_3">
     <g id="line2d_5">
      <path d="M 300.373284 516.76 
L 300.373284 11.48 
" clip-path="url(#p0da040f2e6)" style="fill: none; stroke-dasharray: 2.96,1.28; stroke-dashoffset: 0; stroke: #b0b0b0; stroke-opacity: 0.7; stroke-width: 0.8"/>
     </g>
     <g id="line2d_6">
      <g>
       <use xlink:href="#mf0824e5e27" x="300.373284" y="516.76" style="stroke: #000000; stroke-width: 0.8"/>
      </g>
     </g>
     <g id="text_3">
      <!-- 1500 -->
      <g transform="translate(277.468284 537.437188) scale(0.18 -0.18)">
       <use xlink:href="#DejaVuSans-31"/>
       <use xlink:href="#DejaVuSans-35" transform="translate(63.623047 0)"/>
       <use xlink:href="#DejaVuSans-30" transform="translate(127.246094 0)"/>
       <use xlink:href="#DejaVuSans-30" transform="translate(190.869141 0)"/>
      </g>
     </g>
    </g>
    <g id="xtick_4">
     <g id="line2d_7">
      <path d="M 388.758057 516.76 
L 388.758057 11.48 
" clip-path="url(#p0da040f2e6)" style="fill: none; stroke-dasharray: 2.96,1.28; stroke-dashoffset: 0; stroke: #b0b0b0; stroke-opacity: 0.7; stroke-width: 0.8"/>
     </g>
     <g id="line2d_8">
      <g>
       <use xlink:href="#mf0824e5e27" x="388.758057" y="516.76" style="stroke: #000000; stroke-width: 0.8"/>
      </g>
     </g>
     <g id="text_4">
      <!-- 1550 -->
      <g transform="translate(365.853057 537.437188) scale(0.18 -0.18)">
       <use xlink:href="#DejaVuSans-31"/>
       <use xlink:href="#DejaVuSans-35" transform="translate(63.623047 0)"/>
       <use xlink:href="#DejaVuSans-35" transform="translate(127.246094 0)"/>
       <use xlink:href="#DejaVuSans-30" transform="translate(190.869141 0)"/>
      </g>
     </g>
    </g>
    <g id="xtick_5">
     <g id="line2d_9">
      <path d="M 477.142829 516.76 
L 477.142829 11.48 
" clip-path="url(#p0da040f2e6)" style="fill: none; stroke-dasharray: 2.96,1.28; stroke-dashoffset: 0; stroke: #b0b0b0; stroke-opacity: 0.7; stroke-width: 0.8"/>
     </g>
     <g id="line2d_10">
      <g>
       <use xlink:href="#mf0824e5e27" x="477.142829" y="516.76" style="stroke: #000000; stroke-width: 0.8"/>
      </g>
     </g>
     <g id="text_5">
      <!-- 1600 -->
      <g transform="translate(454.237829 537.437188) scale(0.18 -0.18)">
       <defs>
        <path id="DejaVuSans-36" d="M 2113 2584 
Q 1688 2584 1439 2293 
Q 1191 2003 1191 1497 
Q 1191 994 1439 701 
Q 1688 409 2113 409 
Q 2538 409 2786 701 
Q 3034 994 3034 1497 
Q 3034 2003 2786 2293 
Q 2538 2584 2113 2584 
z
M 3366 4563 
L 3366 3988 
Q 3128 4100 2886 4159 
Q 2644 4219 2406 4219 
Q 1781 4219 1451 3797 
Q 1122 3375 1075 2522 
Q 1259 2794 1537 2939 
Q 1816 3084 2150 3084 
Q 2853 3084 3261 2657 
Q 3669 2231 3669 1497 
Q 3669 778 3244 343 
Q 2819 -91 2113 -91 
Q 1303 -91 875 529 
Q 447 1150 447 2328 
Q 447 3434 972 4092 
Q 1497 4750 2381 4750 
Q 2619 4750 2861 4703 
Q 3103 4656 3366 4563 
z
" transform="scale(0.015625)"/>
       </defs>
       <use xlink:href="#DejaVuSans-31"/>
       <use xlink:href="#DejaVuSans-36" transform="translate(63.623047 0)"/>
       <use xlink:href="#DejaVuSans-30" transform="translate(127.246094 0)"/>
       <use xlink:href="#DejaVuSans-30" transform="translate(190.869141 0)"/>
      </g>
     </g>
    </g>
    <g id="xtick_6">
     <g id="line2d_11">
      <path d="M 565.527601 516.76 
L 565.527601 11.48 
" clip-path="url(#p0da040f2e6)" style="fill: none; stroke-dasharray: 2.96,1.28; stroke-dashoffset: 0; stroke: #b0b0b0; stroke-opacity: 0.7; stroke-width: 0.8"/>
     </g>
     <g id="line2d_12">
      <g>
       <use xlink:href="#mf0824e5e27" x="565.527601" y="516.76" style="stroke: #000000; stroke-width: 0.8"/>
      </g>
     </g>
     <g id="text_6">
      <!-- 1650 -->
      <g transform="translate(542.622601 537.437188) scale(0.18 -0.18)">
       <use xlink:href="#DejaVuSans-31"/>
       <use xlink:href="#DejaVuSans-36" transform="translate(63.623047 0)"/>
       <use xlink:href="#DejaVuSans-35" transform="translate(127.246094 0)"/>
       <use xlink:href="#DejaVuSans-30" transform="translate(190.869141 0)"/>
      </g>
     </g>
    </g>
    <g id="xtick_7">
     <g id="line2d_13">
      <path d="M 653.912374 516.76 
L 653.912374 11.48 
" clip-path="url(#p0da040f2e6)" style="fill: none; stroke-dasharray: 2.96,1.28; stroke-dashoffset: 0; stroke: #b0b0b0; stroke-opacity: 0.7; stroke-width: 0.8"/>
     </g>
     <g id="line2d_14">
      <g>
       <use xlink:href="#mf0824e5e27" x="653.912374" y="516.76" style="stroke: #000000; stroke-width: 0.8"/>
      </g>
     </g>
     <g id="text_7">
      <!-- 1700 -->
      <g transform="translate(631.007374 537.437188) scale(0.18 -0.18)">
       <defs>
        <path id="DejaVuSans-37" d="M 525 4666 
L 3525 4666 
L 3525 4397 
L 1831 0 
L 1172 0 
L 2766 4134 
L 525 4134 
L 525 4666 
z
" transform="scale(0.015625)"/>
       </defs>
       <use xlink:href="#DejaVuSans-31"/>
       <use xlink:href="#DejaVuSans-37" transform="translate(63.623047 0)"/>
       <use xlink:href="#DejaVuSans-30" transform="translate(127.246094 0)"/>
       <use xlink:href="#DejaVuSans-30" transform="translate(190.869141 0)"/>
      </g>
     </g>
    </g>
    <g id="text_8">
     <!-- Custo Total -->
     <g transform="translate(336.54 560.3775) scale(0.2 -0.2)">
      <defs>
       <path id="DejaVuSans-43" d="M 4122 4306 
L 4122 3641 
Q 3803 3938 3442 4084 
Q 3081 4231 2675 4231 
Q 1875 4231 1450 3742 
Q 1025 3253 1025 2328 
Q 1025 1406 1450 917 
Q 1875 428 2675 428 
Q 3081 428 3442 575 
Q 3803 722 4122 1019 
L 4122 359 
Q 3791 134 3420 21 
Q 3050 -91 2638 -91 
Q 1578 -91 968 557 
Q 359 1206 359 2328 
Q 359 3453 968 4101 
Q 1578 4750 2638 4750 
Q 3056 4750 3426 4639 
Q 3797 4528 4122 4306 
z
" transform="scale(0.015625)"/>
       <path id="DejaVuSans-75" d="M 544 1381 
L 544 3500 
L 1119 3500 
L 1119 1403 
Q 1119 906 1312 657 
Q 1506 409 1894 409 
Q 2359 409 2629 706 
Q 2900 1003 2900 1516 
L 2900 3500 
L 3475 3500 
L 3475 0 
L 2900 0 
L 2900 538 
Q 2691 219 2414 64 
Q 2138 -91 1772 -91 
Q 1169 -91 856 284 
Q 544 659 544 1381 
z
M 1991 3584 
L 1991 3584 
z
" transform="scale(0.015625)"/>
       <path id="DejaVuSans-73" d="M 2834 3397 
L 2834 2853 
Q 2591 2978 2328 3040 
Q 2066 3103 1784 3103 
Q 1356 3103 1142 2972 
Q 928 2841 928 2578 
Q 928 2378 1081 2264 
Q 1234 2150 1697 2047 
L 1894 2003 
Q 2506 1872 2764 1633 
Q 3022 1394 3022 966 
Q 3022 478 2636 193 
Q 2250 -91 1575 -91 
Q 1294 -91 989 -36 
Q 684 19 347 128 
L 347 722 
Q 666 556 975 473 
Q 1284 391 1588 391 
Q 1994 391 2212 530 
Q 2431 669 2431 922 
Q 2431 1156 2273 1281 
Q 2116 1406 1581 1522 
L 1381 1569 
Q 847 1681 609 1914 
Q 372 2147 372 2553 
Q 372 3047 722 3315 
Q 1072 3584 1716 3584 
Q 2034 3584 2315 3537 
Q 2597 3491 2834 3397 
z
" transform="scale(0.015625)"/>
       <path id="DejaVuSans-74" d="M 1172 4494 
L 1172 3500 
L 2356 3500 
L 2356 3053 
L 1172 3053 
L 1172 1153 
Q 1172 725 1289 603 
Q 1406 481 1766 481 
L 2356 481 
L 2356 0 
L 1766 0 
Q 1100 0 847 248 
Q 594 497 594 1153 
L 594 3053 
L 172 3053 
L 172 3500 
L 594 3500 
L 594 4494 
L 1172 4494 
z
" transform="scale(0.015625)"/>
       <path id="DejaVuSans-6f" d="M 1959 3097 
Q 1497 3097 1228 2736 
Q 959 2375 959 1747 
Q 959 1119 1226 758 
Q 1494 397 1959 397 
Q 2419 397 2687 759 
Q 2956 1122 2956 1747 
Q 2956 2369 2687 2733 
Q 2419 3097 1959 3097 
z
M 1959 3584 
Q 2709 3584 3137 3096 
Q 3566 2609 3566 1747 
Q 3566 888 3137 398 
Q 2709 -91 1959 -91 
Q 1206 -91 779 398 
Q 353 888 353 1747 
Q 353 2609 779 3096 
Q 1206 3584 1959 3584 
z
" transform="scale(0.015625)"/>
       <path id="DejaVuSans-20" transform="scale(0.015625)"/>
       <path id="DejaVuSans-54" d="M -19 4666 
L 3928 4666 
L 3928 4134 
L 2272 4134 
L 2272 0 
L 1638 0 
L 1638 4134 
L -19 4134 
L -19 4666 
z
" transform="scale(0.015625)"/>
       <path id="DejaVuSans-61" d="M 2194 1759 
Q 1497 1759 1228 1600 
Q 959 1441 959 1056 
Q 959 750 1161 570 
Q 1363 391 1709 391 
Q 2188 391 2477 730 
Q 2766 1069 2766 1631 
L 2766 1759 
L 2194 1759 
z
M 3341 1997 
L 3341 0 
L 2766 0 
L 2766 531 
Q 2569 213 2275 61 
Q 1981 -91 1556 -91 
Q 1019 -91 701 211 
Q 384 513 384 1019 
Q 384 1609 779 1909 
Q 1175 2209 1959 2209 
L 2766 2209 
L 2766 2266 
Q 2766 2663 2505 2880 
Q 2244 3097 1772 3097 
Q 1472 3097 1187 3025 
Q 903 2953 641 2809 
L 641 3341 
Q 956 3463 1253 3523 
Q 1550 3584 1831 3584 
Q 2591 3584 2966 3190 
Q 3341 2797 3341 1997 
z
" transform="scale(0.015625)"/>
       <path id="DejaVuSans-6c" d="M 603 4863 
L 1178 4863 
L 1178 0 
L 603 0 
L 603 4863 
z
" transform="scale(0.015625)"/>
      </defs>
      <use xlink:href="#DejaVuSans-43"/>
      <use xlink:href="#DejaVuSans-75" transform="translate(69.824219 0)"/>
      <use xlink:href="#DejaVuSans-73" transform="translate(133.203125 0)"/>
      <use xlink:href="#DejaVuSans-74" transform="translate(185.302734 0)"/>
      <use xlink:href="#DejaVuSans-6f" transform="translate(224.511719 0)"/>
      <use xlink:href="#DejaVuSans-20" transform="translate(285.693359 0)"/>
      <use xlink:href="#DejaVuSans-54" transform="translate(317.480469 0)"/>
      <use xlink:href="#DejaVuSans-6f" transform="translate(361.564453 0)"/>
      <use xlink:href="#DejaVuSans-74" transform="translate(422.746094 0)"/>
      <use xlink:href="#DejaVuSans-61" transform="translate(461.955078 0)"/>
      <use xlink:href="#DejaVuSans-6c" transform="translate(523.234375 0)"/>
     </g>
    </g>
   </g>
   <g id="matplotlib.axis_2">
    <g id="ytick_1">
     <g id="line2d_15">
      <path d="M 110.72 455.708244 
L 672.56 455.708244 
" clip-path="url(#p0da040f2e6)" style="fill: none; stroke-dasharray: 2.96,1.28; stroke-dashoffset: 0; stroke: #b0b0b0; stroke-opacity: 0.7; stroke-width: 0.8"/>
     </g>
     <g id="line2d_16">
      <defs>
       <path id="mdc4ae0a84f" d="M 0 0 
L -3.5 0 
" style="stroke: #000000; stroke-width: 0.8"/>
      </defs>
      <g>
       <use xlink:href="#mdc4ae0a84f" x="110.72" y="455.708244" style="stroke: #000000; stroke-width: 0.8"/>
      </g>
     </g>
     <g id="text_9">
      <!-- 500000 -->
      <g transform="translate(35.005 462.546838) scale(0.18 -0.18)">
       <use xlink:href="#DejaVuSans-35"/>
       <use xlink:href="#DejaVuSans-30" transform="translate(63.623047 0)"/>
       <use xlink:href="#DejaVuSans-30" transform="translate(127.246094 0)"/>
       <use xlink:href="#DejaVuSans-30" transform="translate(190.869141 0)"/>
       <use xlink:href="#DejaVuSans-30" transform="translate(254.492188 0)"/>
       <use xlink:href="#DejaVuSans-30" transform="translate(318.115234 0)"/>
      </g>
     </g>
    </g>
    <g id="ytick_2">
     <g id="line2d_17">
      <path d="M 110.72 393.860695 
L 672.56 393.860695 
" clip-path="url(#p0da040f2e6)" style="fill: none; stroke-dasharray: 2.96,1.28; stroke-dashoffset: 0; stroke: #b0b0b0; stroke-opacity: 0.7; stroke-width: 0.8"/>
     </g>
     <g id="line2d_18">
      <g>
       <use xlink:href="#mdc4ae0a84f" x="110.72" y="393.860695" style="stroke: #000000; stroke-width: 0.8"/>
      </g>
     </g>
     <g id="text_10">
      <!-- 520000 -->
      <g transform="translate(35.005 400.699289) scale(0.18 -0.18)">
       <defs>
        <path id="DejaVuSans-32" d="M 1228 531 
L 3431 531 
L 3431 0 
L 469 0 
L 469 531 
Q 828 903 1448 1529 
Q 2069 2156 2228 2338 
Q 2531 2678 2651 2914 
Q 2772 3150 2772 3378 
Q 2772 3750 2511 3984 
Q 2250 4219 1831 4219 
Q 1534 4219 1204 4116 
Q 875 4013 500 3803 
L 500 4441 
Q 881 4594 1212 4672 
Q 1544 4750 1819 4750 
Q 2544 4750 2975 4387 
Q 3406 4025 3406 3419 
Q 3406 3131 3298 2873 
Q 3191 2616 2906 2266 
Q 2828 2175 2409 1742 
Q 1991 1309 1228 531 
z
" transform="scale(0.015625)"/>
       </defs>
       <use xlink:href="#DejaVuSans-35"/>
       <use xlink:href="#DejaVuSans-32" transform="translate(63.623047 0)"/>
       <use xlink:href="#DejaVuSans-30" transform="translate(127.246094 0)"/>
       <use xlink:href="#DejaVuSans-30" transform="translate(190.869141 0)"/>
       <use xlink:href="#DejaVuSans-30" transform="translate(254.492188 0)"/>
       <use xlink:href="#DejaVuSans-30" transform="translate(318.115234 0)"/>
      </g>
     </g>
    </g>
    <g id="ytick_3">
     <g id="line2d_19">
      <path d="M 110.72 332.013147 
L 672.56 332.013147 
" clip-path="url(#p0da040f2e6)" style="fill: none; stroke-dasharray: 2.96,1.28; stroke-dashoffset: 0; stroke: #b0b0b0; stroke-opacity: 0.7; stroke-width: 0.8"/>
     </g>
     <g id="line2d_20">
      <g>
       <use xlink:href="#mdc4ae0a84f" x="110.72" y="332.013147" style="stroke: #000000; stroke-width: 0.8"/>
      </g>
     </g>
     <g id="text_11">
      <!-- 540000 -->
      <g transform="translate(35.005 338.85174) scale(0.18 -0.18)">
       <use xlink:href="#DejaVuSans-35"/>
       <use xlink:href="#DejaVuSans-34" transform="translate(63.623047 0)"/>
       <use xlink:href="#DejaVuSans-30" transform="translate(127.246094 0)"/>
       <use xlink:href="#DejaVuSans-30" transform="translate(190.869141 0)"/>
       <use xlink:href="#DejaVuSans-30" transform="translate(254.492188 0)"/>
       <use xlink:href="#DejaVuSans-30" transform="translate(318.115234 0)"/>
      </g>
     </g>
    </g>
    <g id="ytick_4">
     <g id="line2d_21">
      <path d="M 110.72 270.165598 
L 672.56 270.165598 
" clip-path="url(#p0da040f2e6)" style="fill: none; stroke-dasharray: 2.96,1.28; stroke-dashoffset: 0; stroke: #b0b0b0; stroke-opacity: 0.7; stroke-width: 0.8"/>
     </g>
     <g id="line2d_22">
      <g>
       <use xlink:href="#mdc4ae0a84f" x="110.72" y="270.165598" style="stroke: #000000; stroke-width: 0.8"/>
      </g>
     </g>
     <g id="text_12">
      <!-- 560000 -->
      <g transform="translate(35.005 277.004192) scale(0.18 -0.18)">
       <use xlink:href="#DejaVuSans-35"/>
       <use xlink:href="#DejaVuSans-36" transform="translate(63.623047 0)"/>
       <use xlink:href="#DejaVuSans-30" transform="translate(127.246094 0)"/>
       <use xlink:href="#DejaVuSans-30" transform="translate(190.869141 0)"/>
       <use xlink:href="#DejaVuSans-30" transform="translate(254.492188 0)"/>
       <use xlink:href="#DejaVuSans-30" transform="translate(318.115234 0)"/>
      </g>
     </g>
    </g>
    <g id="ytick_5">
     <g id="line2d_23">
      <path d="M 110.72 208.318049 
L 672.56 208.318049 
" clip-path="url(#p0da040f2e6)" style="fill: none; stroke-dasharray: 2.96,1.28; stroke-dashoffset: 0; stroke: #b0b0b0; stroke-opacity: 0.7; stroke-width: 0.8"/>
     </g>
     <g id="line2d_24">
      <g>
       <use xlink:href="#mdc4ae0a84f" x="110.72" y="208.318049" style="stroke: #000000; stroke-width: 0.8"/>
      </g>
     </g>
     <g id="text_13">
      <!-- 580000 -->
      <g transform="translate(35.005 215.156643) scale(0.18 -0.18)">
       <defs>
        <path id="DejaVuSans-38" d="M 2034 2216 
Q 1584 2216 1326 1975 
Q 1069 1734 1069 1313 
Q 1069 891 1326 650 
Q 1584 409 2034 409 
Q 2484 409 2743 651 
Q 3003 894 3003 1313 
Q 3003 1734 2745 1975 
Q 2488 2216 2034 2216 
z
M 1403 2484 
Q 997 2584 770 2862 
Q 544 3141 544 3541 
Q 544 4100 942 4425 
Q 1341 4750 2034 4750 
Q 2731 4750 3128 4425 
Q 3525 4100 3525 3541 
Q 3525 3141 3298 2862 
Q 3072 2584 2669 2484 
Q 3125 2378 3379 2068 
Q 3634 1759 3634 1313 
Q 3634 634 3220 271 
Q 2806 -91 2034 -91 
Q 1263 -91 848 271 
Q 434 634 434 1313 
Q 434 1759 690 2068 
Q 947 2378 1403 2484 
z
M 1172 3481 
Q 1172 3119 1398 2916 
Q 1625 2713 2034 2713 
Q 2441 2713 2670 2916 
Q 2900 3119 2900 3481 
Q 2900 3844 2670 4047 
Q 2441 4250 2034 4250 
Q 1625 4250 1398 4047 
Q 1172 3844 1172 3481 
z
" transform="scale(0.015625)"/>
       </defs>
       <use xlink:href="#DejaVuSans-35"/>
       <use xlink:href="#DejaVuSans-38" transform="translate(63.623047 0)"/>
       <use xlink:href="#DejaVuSans-30" transform="translate(127.246094 0)"/>
       <use xlink:href="#DejaVuSans-30" transform="translate(190.869141 0)"/>
       <use xlink:href="#DejaVuSans-30" transform="translate(254.492188 0)"/>
       <use xlink:href="#DejaVuSans-30" transform="translate(318.115234 0)"/>
      </g>
     </g>
    </g>
    <g id="ytick_6">
     <g id="line2d_25">
      <path d="M 110.72 146.470501 
L 672.56 146.470501 
" clip-path="url(#p0da040f2e6)" style="fill: none; stroke-dasharray: 2.96,1.28; stroke-dashoffset: 0; stroke: #b0b0b0; stroke-opacity: 0.7; stroke-width: 0.8"/>
     </g>
     <g id="line2d_26">
      <g>
       <use xlink:href="#mdc4ae0a84f" x="110.72" y="146.470501" style="stroke: #000000; stroke-width: 0.8"/>
      </g>
     </g>
     <g id="text_14">
      <!-- 600000 -->
      <g transform="translate(35.005 153.309094) scale(0.18 -0.18)">
       <use xlink:href="#DejaVuSans-36"/>
       <use xlink:href="#DejaVuSans-30" transform="translate(63.623047 0)"/>
       <use xlink:href="#DejaVuSans-30" transform="translate(127.246094 0)"/>
       <use xlink:href="#DejaVuSans-30" transform="translate(190.869141 0)"/>
       <use xlink:href="#DejaVuSans-30" transform="translate(254.492188 0)"/>
       <use xlink:href="#DejaVuSans-30" transform="translate(318.115234 0)"/>
      </g>
     </g>
    </g>
    <g id="ytick_7">
     <g id="line2d_27">
      <path d="M 110.72 84.622952 
L 672.56 84.622952 
" clip-path="url(#p0da040f2e6)" style="fill: none; stroke-dasharray: 2.96,1.28; stroke-dashoffset: 0; stroke: #b0b0b0; stroke-opacity: 0.7; stroke-width: 0.8"/>
     </g>
     <g id="line2d_28">
      <g>
       <use xlink:href="#mdc4ae0a84f" x="110.72" y="84.622952" style="stroke: #000000; stroke-width: 0.8"/>
      </g>
     </g>
     <g id="text_15">
      <!-- 620000 -->
      <g transform="translate(35.005 91.461546) scale(0.18 -0.18)">
       <use xlink:href="#DejaVuSans-36"/>
       <use xlink:href="#DejaVuSans-32" transform="translate(63.623047 0)"/>
       <use xlink:href="#DejaVuSans-30" transform="translate(127.246094 0)"/>
       <use xlink:href="#DejaVuSans-30" transform="translate(190.869141 0)"/>
       <use xlink:href="#DejaVuSans-30" transform="translate(254.492188 0)"/>
       <use xlink:href="#DejaVuSans-30" transform="translate(318.115234 0)"/>
      </g>
     </g>
    </g>
    <g id="ytick_8">
     <g id="line2d_29">
      <path d="M 110.72 22.775403 
L 672.56 22.775403 
" clip-path="url(#p0da040f2e6)" style="fill: none; stroke-dasharray: 2.96,1.28; stroke-dashoffset: 0; stroke: #b0b0b0; stroke-opacity: 0.7; stroke-width: 0.8"/>
     </g>
     <g id="line2d_30">
      <g>
       <use xlink:href="#mdc4ae0a84f" x="110.72" y="22.775403" style="stroke: #000000; stroke-width: 0.8"/>
      </g>
     </g>
     <g id="text_16">
      <!-- 640000 -->
      <g transform="translate(35.005 29.613997) scale(0.18 -0.18)">
       <use xlink:href="#DejaVuSans-36"/>
       <use xlink:href="#DejaVuSans-34" transform="translate(63.623047 0)"/>
       <use xlink:href="#DejaVuSans-30" transform="translate(127.246094 0)"/>
       <use xlink:href="#DejaVuSans-30" transform="translate(190.869141 0)"/>
       <use xlink:href="#DejaVuSans-30" transform="translate(254.492188 0)"/>
       <use xlink:href="#DejaVuSans-30" transform="translate(318.115234 0)"/>
      </g>
     </g>
    </g>
    <g id="text_17">
     <!-- Latência Total (s) -->
     <g transform="translate(26.845625 349.3575) rotate(-90) scale(0.2 -0.2)">
      <defs>
       <path id="DejaVuSans-4c" d="M 628 4666 
L 1259 4666 
L 1259 531 
L 3531 531 
L 3531 0 
L 628 0 
L 628 4666 
z
" transform="scale(0.015625)"/>
       <path id="DejaVuSans-ea" d="M 3597 1894 
L 3597 1613 
L 953 1613 
Q 991 1019 1311 708 
Q 1631 397 2203 397 
Q 2534 397 2845 478 
Q 3156 559 3463 722 
L 3463 178 
Q 3153 47 2828 -22 
Q 2503 -91 2169 -91 
Q 1331 -91 842 396 
Q 353 884 353 1716 
Q 353 2575 817 3079 
Q 1281 3584 2069 3584 
Q 2775 3584 3186 3129 
Q 3597 2675 3597 1894 
z
M 3022 2063 
Q 3016 2534 2758 2815 
Q 2500 3097 2075 3097 
Q 1594 3097 1305 2825 
Q 1016 2553 972 2059 
L 3022 2063 
z
M 1801 5119 
L 2263 5119 
L 3029 3944 
L 2595 3944 
L 2032 4709 
L 1470 3944 
L 1035 3944 
L 1801 5119 
z
" transform="scale(0.015625)"/>
       <path id="DejaVuSans-6e" d="M 3513 2113 
L 3513 0 
L 2938 0 
L 2938 2094 
Q 2938 2591 2744 2837 
Q 2550 3084 2163 3084 
Q 1697 3084 1428 2787 
Q 1159 2491 1159 1978 
L 1159 0 
L 581 0 
L 581 3500 
L 1159 3500 
L 1159 2956 
Q 1366 3272 1645 3428 
Q 1925 3584 2291 3584 
Q 2894 3584 3203 3211 
Q 3513 2838 3513 2113 
z
" transform="scale(0.015625)"/>
       <path id="DejaVuSans-63" d="M 3122 3366 
L 3122 2828 
Q 2878 2963 2633 3030 
Q 2388 3097 2138 3097 
Q 1578 3097 1268 2742 
Q 959 2388 959 1747 
Q 959 1106 1268 751 
Q 1578 397 2138 397 
Q 2388 397 2633 464 
Q 2878 531 3122 666 
L 3122 134 
Q 2881 22 2623 -34 
Q 2366 -91 2075 -91 
Q 1284 -91 818 406 
Q 353 903 353 1747 
Q 353 2603 823 3093 
Q 1294 3584 2113 3584 
Q 2378 3584 2631 3529 
Q 2884 3475 3122 3366 
z
" transform="scale(0.015625)"/>
       <path id="DejaVuSans-69" d="M 603 3500 
L 1178 3500 
L 1178 0 
L 603 0 
L 603 3500 
z
M 603 4863 
L 1178 4863 
L 1178 4134 
L 603 4134 
L 603 4863 
z
" transform="scale(0.015625)"/>
       <path id="DejaVuSans-28" d="M 1984 4856 
Q 1566 4138 1362 3434 
Q 1159 2731 1159 2009 
Q 1159 1288 1364 580 
Q 1569 -128 1984 -844 
L 1484 -844 
Q 1016 -109 783 600 
Q 550 1309 550 2009 
Q 550 2706 781 3412 
Q 1013 4119 1484 4856 
L 1984 4856 
z
" transform="scale(0.015625)"/>
       <path id="DejaVuSans-29" d="M 513 4856 
L 1013 4856 
Q 1481 4119 1714 3412 
Q 1947 2706 1947 2009 
Q 1947 1309 1714 600 
Q 1481 -109 1013 -844 
L 513 -844 
Q 928 -128 1133 580 
Q 1338 1288 1338 2009 
Q 1338 2731 1133 3434 
Q 928 4138 513 4856 
z
" transform="scale(0.015625)"/>
      </defs>
      <use xlink:href="#DejaVuSans-4c"/>
      <use xlink:href="#DejaVuSans-61" transform="translate(55.712891 0)"/>
      <use xlink:href="#DejaVuSans-74" transform="translate(116.992188 0)"/>
      <use xlink:href="#DejaVuSans-ea" transform="translate(156.201172 0)"/>
      <use xlink:href="#DejaVuSans-6e" transform="translate(217.724609 0)"/>
      <use xlink:href="#DejaVuSans-63" transform="translate(281.103516 0)"/>
      <use xlink:href="#DejaVuSans-69" transform="translate(336.083984 0)"/>
      <use xlink:href="#DejaVuSans-61" transform="translate(363.867188 0)"/>
      <use xlink:href="#DejaVuSans-20" transform="translate(425.146484 0)"/>
      <use xlink:href="#DejaVuSans-54" transform="translate(456.933594 0)"/>
      <use xlink:href="#DejaVuSans-6f" transform="translate(501.017578 0)"/>
      <use xlink:href="#DejaVuSans-74" transform="translate(562.199219 0)"/>
      <use xlink:href="#DejaVuSans-61" transform="translate(601.408203 0)"/>
      <use xlink:href="#DejaVuSans-6c" transform="translate(662.6875 0)"/>
      <use xlink:href="#DejaVuSans-20" transform="translate(690.470703 0)"/>
      <use xlink:href="#DejaVuSans-28" transform="translate(722.257812 0)"/>
      <use xlink:href="#DejaVuSans-73" transform="translate(761.271484 0)"/>
      <use xlink:href="#DejaVuSans-29" transform="translate(813.371094 0)"/>
     </g>
    </g>
   </g>
   <g id="patch_3">
    <path d="M 110.72 516.76 
L 110.72 11.48 
" style="fill: none; stroke: #000000; stroke-width: 0.8; stroke-linejoin: miter; stroke-linecap: square"/>
   </g>
   <g id="patch_4">
    <path d="M 672.56 516.76 
L 672.56 11.48 
" style="fill: none; stroke: #000000; stroke-width: 0.8; stroke-linejoin: miter; stroke-linecap: square"/>
   </g>
   <g id="patch_5">
    <path d="M 110.72 516.76 
L 672.56 516.76 
" style="fill: none; stroke: #000000; stroke-width: 0.8; stroke-linejoin: miter; stroke-linecap: square"/>
   </g>
   <g id="patch_6">
    <path d="M 110.72 11.48 
L 672.56 11.48 
" style="fill: none; stroke: #000000; stroke-width: 0.8; stroke-linejoin: miter; stroke-linecap: square"/>
   </g>
   <g id="text_18">
    <g id="patch_7">
     <path d="M 648.021818 496.952102 
L 720.943693 496.952102 
L 720.943693 469.595852 
L 648.021818 469.595852 
z
" style="fill: #ffffff; opacity: 0.7"/>
    </g>
    <!-- w=0.1 -->
    <g transform="translate(652.021818 488.792727) scale(0.2 -0.2)">
     <defs>
      <path id="DejaVuSans-77" d="M 269 3500 
L 844 3500 
L 1563 769 
L 2278 3500 
L 2956 3500 
L 3675 769 
L 4391 3500 
L 4966 3500 
L 4050 0 
L 3372 0 
L 2619 2869 
L 1863 0 
L 1184 0 
L 269 3500 
z
" transform="scale(0.015625)"/>
      <path id="DejaVuSans-3d" d="M 678 2906 
L 4684 2906 
L 4684 2381 
L 678 2381 
L 678 2906 
z
M 678 1631 
L 4684 1631 
L 4684 1100 
L 678 1100 
L 678 1631 
z
" transform="scale(0.015625)"/>
      <path id="DejaVuSans-2e" d="M 684 794 
L 1344 794 
L 1344 0 
L 684 0 
L 684 794 
z
" transform="scale(0.015625)"/>
     </defs>
     <use xlink:href="#DejaVuSans-77"/>
     <use xlink:href="#DejaVuSans-3d" transform="translate(81.787109 0)"/>
     <use xlink:href="#DejaVuSans-30" transform="translate(165.576172 0)"/>
     <use xlink:href="#DejaVuSans-2e" transform="translate(229.199219 0)"/>
     <use xlink:href="#DejaVuSans-31" transform="translate(260.986328 0)"/>
    </g>
   </g>
   <g id="text_19">
    <g id="patch_8">
     <path d="M 648.021818 496.952102 
L 720.943693 496.952102 
L 720.943693 469.595852 
L 648.021818 469.595852 
z
" style="fill: #ffffff; opacity: 0.7"/>
    </g>
    <!-- w=0.2 -->
    <g transform="translate(652.021818 488.792727) scale(0.2 -0.2)">
     <use xlink:href="#DejaVuSans-77"/>
     <use xlink:href="#DejaVuSans-3d" transform="translate(81.787109 0)"/>
     <use xlink:href="#DejaVuSans-30" transform="translate(165.576172 0)"/>
     <use xlink:href="#DejaVuSans-2e" transform="translate(229.199219 0)"/>
     <use xlink:href="#DejaVuSans-32" transform="translate(260.986328 0)"/>
    </g>
   </g>
   <g id="text_20">
    <g id="patch_9">
     <path d="M 648.021818 496.952102 
L 720.943693 496.952102 
L 720.943693 469.595852 
L 648.021818 469.595852 
z
" style="fill: #ffffff; opacity: 0.7"/>
    </g>
    <!-- w=0.3 -->
    <g transform="translate(652.021818 488.792727) scale(0.2 -0.2)">
     <defs>
      <path id="DejaVuSans-33" d="M 2597 2516 
Q 3050 2419 3304 2112 
Q 3559 1806 3559 1356 
Q 3559 666 3084 287 
Q 2609 -91 1734 -91 
Q 1441 -91 1130 -33 
Q 819 25 488 141 
L 488 750 
Q 750 597 1062 519 
Q 1375 441 1716 441 
Q 2309 441 2620 675 
Q 2931 909 2931 1356 
Q 2931 1769 2642 2001 
Q 2353 2234 1838 2234 
L 1294 2234 
L 1294 2753 
L 1863 2753 
Q 2328 2753 2575 2939 
Q 2822 3125 2822 3475 
Q 2822 3834 2567 4026 
Q 2313 4219 1838 4219 
Q 1578 4219 1281 4162 
Q 984 4106 628 3988 
L 628 4550 
Q 988 4650 1302 4700 
Q 1616 4750 1894 4750 
Q 2613 4750 3031 4423 
Q 3450 4097 3450 3541 
Q 3450 3153 3228 2886 
Q 3006 2619 2597 2516 
z
" transform="scale(0.015625)"/>
     </defs>
     <use xlink:href="#DejaVuSans-77"/>
     <use xlink:href="#DejaVuSans-3d" transform="translate(81.787109 0)"/>
     <use xlink:href="#DejaVuSans-30" transform="translate(165.576172 0)"/>
     <use xlink:href="#DejaVuSans-2e" transform="translate(229.199219 0)"/>
     <use xlink:href="#DejaVuSans-33" transform="translate(260.986328 0)"/>
    </g>
   </g>
   <g id="text_21">
    <g id="patch_10">
     <path d="M 393.961543 387.714488 
L 466.883418 387.714488 
L 466.883418 360.358238 
L 393.961543 360.358238 
z
" style="fill: #ffffff; opacity: 0.7"/>
    </g>
    <!-- w=0.4 -->
    <g transform="translate(397.961543 379.555113) scale(0.2 -0.2)">
     <use xlink:href="#DejaVuSans-77"/>
     <use xlink:href="#DejaVuSans-3d" transform="translate(81.787109 0)"/>
     <use xlink:href="#DejaVuSans-30" transform="translate(165.576172 0)"/>
     <use xlink:href="#DejaVuSans-2e" transform="translate(229.199219 0)"/>
     <use xlink:href="#DejaVuSans-34" transform="translate(260.986328 0)"/>
    </g>
   </g>
   <g id="text_22">
    <g id="patch_11">
     <path d="M 393.961543 387.714488 
L 466.883418 387.714488 
L 466.883418 360.358238 
L 393.961543 360.358238 
z
" style="fill: #ffffff; opacity: 0.7"/>
    </g>
    <!-- w=0.5 -->
    <g transform="translate(397.961543 379.555113) scale(0.2 -0.2)">
     <use xlink:href="#DejaVuSans-77"/>
     <use xlink:href="#DejaVuSans-3d" transform="translate(81.787109 0)"/>
     <use xlink:href="#DejaVuSans-30" transform="translate(165.576172 0)"/>
     <use xlink:href="#DejaVuSans-2e" transform="translate(229.199219 0)"/>
     <use xlink:href="#DejaVuSans-35" transform="translate(260.986328 0)"/>
    </g>
   </g>
   <g id="text_23">
    <g id="patch_12">
     <path d="M 393.961543 387.714488 
L 466.883418 387.714488 
L 466.883418 360.358238 
L 393.961543 360.358238 
z
" style="fill: #ffffff; opacity: 0.7"/>
    </g>
    <!-- w=0.6 -->
    <g transform="translate(397.961543 379.555113) scale(0.2 -0.2)">
     <use xlink:href="#DejaVuSans-77"/>
     <use xlink:href="#DejaVuSans-3d" transform="translate(81.787109 0)"/>
     <use xlink:href="#DejaVuSans-30" transform="translate(165.576172 0)"/>
     <use xlink:href="#DejaVuSans-2e" transform="translate(229.199219 0)"/>
     <use xlink:href="#DejaVuSans-36" transform="translate(260.986328 0)"/>
    </g>
   </g>
   <g id="text_24">
    <g id="patch_13">
     <path d="M 150.765838 264.483247 
L 223.687713 264.483247 
L 223.687713 237.126997 
L 150.765838 237.126997 
z
" style="fill: #ffffff; opacity: 0.7"/>
    </g>
    <!-- w=0.7 -->
    <g transform="translate(154.765838 256.323872) scale(0.2 -0.2)">
     <use xlink:href="#DejaVuSans-77"/>
     <use xlink:href="#DejaVuSans-3d" transform="translate(81.787109 0)"/>
     <use xlink:href="#DejaVuSans-30" transform="translate(165.576172 0)"/>
     <use xlink:href="#DejaVuSans-2e" transform="translate(229.199219 0)"/>
     <use xlink:href="#DejaVuSans-37" transform="translate(260.986328 0)"/>
    </g>
   </g>
   <g id="text_25">
    <g id="patch_14">
     <path d="M 150.765838 264.483247 
L 223.687713 264.483247 
L 223.687713 237.126997 
L 150.765838 237.126997 
z
" style="fill: #ffffff; opacity: 0.7"/>
    </g>
    <!-- w=0.8 -->
    <g transform="translate(154.765838 256.323872) scale(0.2 -0.2)">
     <use xlink:href="#DejaVuSans-77"/>
     <use xlink:href="#DejaVuSans-3d" transform="translate(81.787109 0)"/>
     <use xlink:href="#DejaVuSans-30" transform="translate(165.576172 0)"/>
     <use xlink:href="#DejaVuSans-2e" transform="translate(229.199219 0)"/>
     <use xlink:href="#DejaVuSans-38" transform="translate(260.986328 0)"/>
    </g>
   </g>
   <g id="text_26">
    <g id="patch_15">
     <path d="M 150.765838 264.483247 
L 223.687713 264.483247 
L 223.687713 237.126997 
L 150.765838 237.126997 
z
" style="fill: #ffffff; opacity: 0.7"/>
    </g>
    <!-- w=0.9 -->
    <g transform="translate(154.765838 256.323872) scale(0.2 -0.2)">
     <defs>
      <path id="DejaVuSans-39" d="M 703 97 
L 703 672 
Q 941 559 1184 500 
Q 1428 441 1663 441 
Q 2288 441 2617 861 
Q 2947 1281 2994 2138 
Q 2813 1869 2534 1725 
Q 2256 1581 1919 1581 
Q 1219 1581 811 2004 
Q 403 2428 403 3163 
Q 403 3881 828 4315 
Q 1253 4750 1959 4750 
Q 2769 4750 3195 4129 
Q 3622 3509 3622 2328 
Q 3622 1225 3098 567 
Q 2575 -91 1691 -91 
Q 1453 -91 1209 -44 
Q 966 3 703 97 
z
M 1959 2075 
Q 2384 2075 2632 2365 
Q 2881 2656 2881 3163 
Q 2881 3666 2632 3958 
Q 2384 4250 1959 4250 
Q 1534 4250 1286 3958 
Q 1038 3666 1038 3163 
Q 1038 2656 1286 2365 
Q 1534 2075 1959 2075 
z
" transform="scale(0.015625)"/>
     </defs>
     <use xlink:href="#DejaVuSans-77"/>
     <use xlink:href="#DejaVuSans-3d" transform="translate(81.787109 0)"/>
     <use xlink:href="#DejaVuSans-30" transform="translate(165.576172 0)"/>
     <use xlink:href="#DejaVuSans-2e" transform="translate(229.199219 0)"/>
     <use xlink:href="#DejaVuSans-39" transform="translate(260.986328 0)"/>
    </g>
   </g>
   <g id="text_27">
    <g id="patch_16">
     <path d="M 137.258182 37.606648 
L 210.180057 37.606648 
L 210.180057 10.250398 
L 137.258182 10.250398 
z
" style="fill: #ffffff; opacity: 0.7"/>
    </g>
    <!-- w=1.0 -->
    <g transform="translate(141.258182 29.447273) scale(0.2 -0.2)">
     <use xlink:href="#DejaVuSans-77"/>
     <use xlink:href="#DejaVuSans-3d" transform="translate(81.787109 0)"/>
     <use xlink:href="#DejaVuSans-31" transform="translate(165.576172 0)"/>
     <use xlink:href="#DejaVuSans-2e" transform="translate(229.199219 0)"/>
     <use xlink:href="#DejaVuSans-30" transform="translate(260.986328 0)"/>
    </g>
   </g>
   <g id="legend_1">
    <g id="patch_17">
     <path d="M 714.652 321.0425 
L 843.573875 321.0425 
Q 847.573875 321.0425 847.573875 317.0425 
L 847.573875 25.48 
Q 847.573875 21.48 843.573875 21.48 
L 714.652 21.48 
Q 710.652 21.48 710.652 25.48 
L 710.652 317.0425 
Q 710.652 321.0425 714.652 321.0425 
z
" style="fill: #ffffff; opacity: 0.8; stroke: #cccccc; stroke-linejoin: miter"/>
    </g>
    <g id="PathCollection_11">
     <g>
      <use xlink:href="#mbe44c92102" x="738.652" y="39.426875" style="fill: #440154; fill-opacity: 0.7; stroke: #440154; stroke-opacity: 0.7"/>
     </g>
    </g>
    <g id="text_28">
     <!-- w=0.1 -->
     <g transform="translate(774.652 44.676875) scale(0.2 -0.2)">
      <use xlink:href="#DejaVuSans-77"/>
      <use xlink:href="#DejaVuSans-3d" transform="translate(81.787109 0)"/>
      <use xlink:href="#DejaVuSans-30" transform="translate(165.576172 0)"/>
      <use xlink:href="#DejaVuSans-2e" transform="translate(229.199219 0)"/>
      <use xlink:href="#DejaVuSans-31" transform="translate(260.986328 0)"/>
     </g>
    </g>
    <g id="PathCollection_12">
     <g>
      <use xlink:href="#m36ed898ab0" x="738.652" y="68.783125" style="fill: #482878; fill-opacity: 0.7; stroke: #482878; stroke-opacity: 0.7"/>
     </g>
    </g>
    <g id="text_29">
     <!-- w=0.2 -->
     <g transform="translate(774.652 74.033125) scale(0.2 -0.2)">
      <use xlink:href="#DejaVuSans-77"/>
      <use xlink:href="#DejaVuSans-3d" transform="translate(81.787109 0)"/>
      <use xlink:href="#DejaVuSans-30" transform="translate(165.576172 0)"/>
      <use xlink:href="#DejaVuSans-2e" transform="translate(229.199219 0)"/>
      <use xlink:href="#DejaVuSans-32" transform="translate(260.986328 0)"/>
     </g>
    </g>
    <g id="PathCollection_13">
     <g>
      <use xlink:href="#mb91adad0ce" x="738.652" y="98.139375" style="fill: #3e4989; fill-opacity: 0.7; stroke: #3e4989; stroke-opacity: 0.7"/>
     </g>
    </g>
    <g id="text_30">
     <!-- w=0.3 -->
     <g transform="translate(774.652 103.389375) scale(0.2 -0.2)">
      <use xlink:href="#DejaVuSans-77"/>
      <use xlink:href="#DejaVuSans-3d" transform="translate(81.787109 0)"/>
      <use xlink:href="#DejaVuSans-30" transform="translate(165.576172 0)"/>
      <use xlink:href="#DejaVuSans-2e" transform="translate(229.199219 0)"/>
      <use xlink:href="#DejaVuSans-33" transform="translate(260.986328 0)"/>
     </g>
    </g>
    <g id="PathCollection_14">
     <g>
      <use xlink:href="#m95b5f55a41" x="738.652" y="127.495625" style="fill: #31688e; fill-opacity: 0.7; stroke: #31688e; stroke-opacity: 0.7"/>
     </g>
    </g>
    <g id="text_31">
     <!-- w=0.4 -->
     <g transform="translate(774.652 132.745625) scale(0.2 -0.2)">
      <use xlink:href="#DejaVuSans-77"/>
      <use xlink:href="#DejaVuSans-3d" transform="translate(81.787109 0)"/>
      <use xlink:href="#DejaVuSans-30" transform="translate(165.576172 0)"/>
      <use xlink:href="#DejaVuSans-2e" transform="translate(229.199219 0)"/>
      <use xlink:href="#DejaVuSans-34" transform="translate(260.986328 0)"/>
     </g>
    </g>
    <g id="PathCollection_15">
     <g>
      <use xlink:href="#ma8a5c836f1" x="738.652" y="156.851875" style="fill: #26828e; fill-opacity: 0.7; stroke: #26828e; stroke-opacity: 0.7"/>
     </g>
    </g>
    <g id="text_32">
     <!-- w=0.5 -->
     <g transform="translate(774.652 162.101875) scale(0.2 -0.2)">
      <use xlink:href="#DejaVuSans-77"/>
      <use xlink:href="#DejaVuSans-3d" transform="translate(81.787109 0)"/>
      <use xlink:href="#DejaVuSans-30" transform="translate(165.576172 0)"/>
      <use xlink:href="#DejaVuSans-2e" transform="translate(229.199219 0)"/>
      <use xlink:href="#DejaVuSans-35" transform="translate(260.986328 0)"/>
     </g>
    </g>
    <g id="PathCollection_16">
     <g>
      <use xlink:href="#mc64ec24740" x="738.652" y="186.208125" style="fill: #1f9e89; fill-opacity: 0.7; stroke: #1f9e89; stroke-opacity: 0.7"/>
     </g>
    </g>
    <g id="text_33">
     <!-- w=0.6 -->
     <g transform="translate(774.652 191.458125) scale(0.2 -0.2)">
      <use xlink:href="#DejaVuSans-77"/>
      <use xlink:href="#DejaVuSans-3d" transform="translate(81.787109 0)"/>
      <use xlink:href="#DejaVuSans-30" transform="translate(165.576172 0)"/>
      <use xlink:href="#DejaVuSans-2e" transform="translate(229.199219 0)"/>
      <use xlink:href="#DejaVuSans-36" transform="translate(260.986328 0)"/>
     </g>
    </g>
    <g id="PathCollection_17">
     <g>
      <use xlink:href="#mfa6fd019fe" x="738.652" y="215.564375" style="fill: #35b779; fill-opacity: 0.7; stroke: #35b779; stroke-opacity: 0.7"/>
     </g>
    </g>
    <g id="text_34">
     <!-- w=0.7 -->
     <g transform="translate(774.652 220.814375) scale(0.2 -0.2)">
      <use xlink:href="#DejaVuSans-77"/>
      <use xlink:href="#DejaVuSans-3d" transform="translate(81.787109 0)"/>
      <use xlink:href="#DejaVuSans-30" transform="translate(165.576172 0)"/>
      <use xlink:href="#DejaVuSans-2e" transform="translate(229.199219 0)"/>
      <use xlink:href="#DejaVuSans-37" transform="translate(260.986328 0)"/>
     </g>
    </g>
    <g id="PathCollection_18">
     <g>
      <use xlink:href="#mb7c453cc2f" x="738.652" y="244.920625" style="fill: #6ece58; fill-opacity: 0.7; stroke: #6ece58; stroke-opacity: 0.7"/>
     </g>
    </g>
    <g id="text_35">
     <!-- w=0.8 -->
     <g transform="translate(774.652 250.170625) scale(0.2 -0.2)">
      <use xlink:href="#DejaVuSans-77"/>
      <use xlink:href="#DejaVuSans-3d" transform="translate(81.787109 0)"/>
      <use xlink:href="#DejaVuSans-30" transform="translate(165.576172 0)"/>
      <use xlink:href="#DejaVuSans-2e" transform="translate(229.199219 0)"/>
      <use xlink:href="#DejaVuSans-38" transform="translate(260.986328 0)"/>
     </g>
    </g>
    <g id="PathCollection_19">
     <g>
      <use xlink:href="#mfcf95a0a4a" x="738.652" y="274.276875" style="fill: #b5de2b; fill-opacity: 0.7; stroke: #b5de2b; stroke-opacity: 0.7"/>
     </g>
    </g>
    <g id="text_36">
     <!-- w=0.9 -->
     <g transform="translate(774.652 279.526875) scale(0.2 -0.2)">
      <use xlink:href="#DejaVuSans-77"/>
      <use xlink:href="#DejaVuSans-3d" transform="translate(81.787109 0)"/>
      <use xlink:href="#DejaVuSans-30" transform="translate(165.576172 0)"/>
      <use xlink:href="#DejaVuSans-2e" transform="translate(229.199219 0)"/>
      <use xlink:href="#DejaVuSans-39" transform="translate(260.986328 0)"/>
     </g>
    </g>
    <g id="PathCollection_20">
     <g>
      <use xlink:href="#m66eef85d00" x="738.652" y="303.633125" style="fill: #fde725; fill-opacity: 0.7; stroke: #fde725; stroke-opacity: 0.7"/>
     </g>
    </g>
    <g id="text_37">
     <!-- w=1.0 -->
     <g transform="translate(774.652 308.883125) scale(0.2 -0.2)">
      <use xlink:href="#DejaVuSans-77"/>
      <use xlink:href="#DejaVuSans-3d" transform="translate(81.787109 0)"/>
      <use xlink:href="#DejaVuSans-31" transform="translate(165.576172 0)"/>
      <use xlink:href="#DejaVuSans-2e" transform="translate(229.199219 0)"/>
      <use xlink:href="#DejaVuSans-30" transform="translate(260.986328 0)"/>
     </g>
    </g>
   </g>
  </g>
 </g>
 <defs>
  <clipPath id="p0da040f2e6">
   <rect x="110.72" y="11.48" width="561.84" height="505.28"/>
  </clipPath>
 </defs>
</svg>
